<?xml version="1.0" encoding="UTF-8" standalone="no"?>
<svg
   xmlns:dc="http://purl.org/dc/elements/1.1/"
   xmlns:cc="http://creativecommons.org/ns#"
   xmlns:rdf="http://www.w3.org/1999/02/22-rdf-syntax-ns#"
   xmlns:svg="http://www.w3.org/2000/svg"
   xmlns="http://www.w3.org/2000/svg"
   xmlns:sodipodi="http://sodipodi.sourceforge.net/DTD/sodipodi-0.dtd"
   xmlns:inkscape="http://www.inkscape.org/namespaces/inkscape"
   version="1.1"
   id="svg2"
   xml:space="preserve"
   width="133.33299"
   height="133.33299"
   viewBox="0 0 133.33299 133.33299"
   sodipodi:docname="beee.svg"
   inkscape:version="1.0.1 (3bc2e813f5, 2020-09-07)"><metadata
     id="metadata8"><rdf:RDF><cc:Work
         rdf:about=""><dc:format>image/svg+xml</dc:format><dc:type
           rdf:resource="http://purl.org/dc/dcmitype/StillImage" /><dc:title /></cc:Work></rdf:RDF></metadata><defs
     id="defs6"><rect
       x="17.329351"
       y="400.61379"
       width="70.846462"
       height="59.123666"
       id="rect977" /><rect
       x="250.071"
       y="70.8461"
       width="46.601898"
       height="34.416"
       id="rect2331" /><clipPath
       clipPathUnits="userSpaceOnUse"
       id="clipPath22"><path
         d="m 2676.36,3230.34 v 0 0 c 0.13,0 0.26,0 0.39,0 -0.13,0 -0.26,0 -0.39,0 m -0.43,0 c -0.01,0 -0.02,0 -0.04,0 0.02,0 0.03,0 0.04,0 m 0.99,0 c 0.08,0 0.14,0 0.23,0 -0.07,0 -0.17,0 -0.23,0 m 0.41,0 c 0.07,0 0.15,0 0.21,0 -0.06,0 -0.14,0 -0.21,0 m 0.4,0 c 0.06,0 0.14,0 0.21,0 -0.08,0 -0.13,0 -0.21,0 m 0.4,0 c 0.06,0 0.14,0 0.21,0 -0.07,0 -0.15,0 -0.21,0 m 0.39,0 c 0.06,0.01 0.14,0.01 0.21,0.01 -0.06,0 -0.15,0 -0.21,-0.01 m 0.39,0.01 c 0.07,0 0.16,0 0.23,0 -0.07,0 -0.16,0 -0.23,0 m 0.39,0 c 0.08,0 0.15,0 0.23,0 -0.08,0 -0.15,0 -0.23,0 m 0.4,0 c 0.09,0 0.14,0 0.23,0 -0.08,0 -0.15,0 -0.23,0 m 0.39,0.01 c 0.09,0 0.15,0 0.24,0 -0.08,0 -0.16,0 -0.24,0 m 0.4,0 c 0.07,0 0.17,0 0.23,0 -0.08,0 -0.15,0 -0.23,0 m 0.4,0 c 0.06,0 0.16,0 0.23,0 -0.07,0 -0.17,0 -0.23,0 m 0.4,0 c 0.07,0.01 0.15,0.01 0.22,0.01 -0.07,0 -0.16,0 -0.22,-0.01 m 0.4,0.01 c 0.07,0 0.14,0 0.21,0 -0.08,0 -0.13,0 -0.21,0 m 0.4,0 c 0.08,0.01 0.12,0.01 0.2,0.01 -0.08,0 -0.12,0 -0.2,-0.01 m 0.39,0.01 c 0.07,0 0.13,0 0.2,0 -0.07,0 -0.13,0 -0.2,0 m 0.41,0 c 0.07,0 0.1,0 0.17,0 -0.06,0 -0.11,0 -0.17,0 m 0.39,0.01 c 0.05,0 0.11,0 0.16,0 -0.05,0 -0.11,0 -0.16,0 m 0.41,0 c 0.05,0 0.07,0 0.12,0 -0.03,0 -0.09,0 -0.12,0 m 0.38,0.01 c 0.05,0 0.09,0 0.14,0 -0.04,0 -0.1,0 -0.14,0 m 0.4,0.01 c 0.04,0 0.06,0 0.09,0 -0.03,0 -0.05,0 -0.09,0 m 0.39,0 c 0.05,0 0.07,0 0.12,0 -0.04,0 -0.09,0 -0.12,0 m 1.53,0.03 h 0.02 -0.02 m 0.4,0.01 h 0.01 -0.01 m 0.32,0 c 0.03,0 0.05,0.01 0.09,0.01 -0.04,0 -0.06,-0.01 -0.09,-0.01 m 0.39,0.01 c 0.04,0 0.05,0 0.08,0 -0.01,0 -0.06,0 -0.08,0 m 0.38,0.01 c 0.03,0 0.07,0 0.1,0 -0.05,0 -0.05,0 -0.1,0 m 0.38,0.01 c 0.04,0 0.07,0 0.11,0 -0.05,0 -0.06,0 -0.11,0 m 0.39,0.01 c 0.04,0 0.08,0 0.11,0 -0.03,0 -0.08,0 -0.11,0 m 0.41,0.01 c 0.02,0 0.06,0 0.08,0 -0.04,0 -0.05,0 -0.08,0 m 0.4,0.01 c 0.01,0 0.05,0 0.06,0 -0.03,0 -0.03,0 -0.06,0 m 0.39,0.01 c 0.02,0 0.04,0 0.06,0 -0.04,0 -0.03,0 -0.06,0 m 0.38,0.01 c 0.03,0 0.04,0 0.07,0 -0.03,0 -0.04,0 -0.07,0 m 0.39,0.01 c 0.02,0 0.05,0 0.06,0 -0.03,0 -0.03,0 -0.06,0 m 0.4,0.01 c 0.01,0 0.02,0 0.04,0 -0.02,0 -0.03,0 -0.04,0 m 0.39,0.01 h 0.03 -0.03 m 0.38,0.01 c 0.02,0 0.03,0 0.05,0 -0.02,0 -0.03,0 -0.05,0"
         id="path20" /></clipPath><linearGradient
       x1="0"
       y1="0"
       x2="1"
       y2="0"
       gradientUnits="userSpaceOnUse"
       gradientTransform="matrix(439.981,-439.981,-439.981,-439.981,2556.64,3783.56)"
       spreadMethod="pad"
       id="linearGradient28"><stop
         style="stop-opacity:1;stop-color:#9c9c9b"
         offset="0"
         id="stop24" /><stop
         style="stop-opacity:1;stop-color:#c8c7c6"
         offset="1"
         id="stop26" /></linearGradient><clipPath
       clipPathUnits="userSpaceOnUse"
       id="clipPath38"><path
         d="m 2676.36,3230.34 v 0 c -0.14,0 -0.29,0 -0.43,0 -0.01,0 -0.02,0 -0.04,0 -36.43,0.04 -71.9,4.08 -106.11,11.5 l -171.49,169 278.21,124.64 145.68,513.63 352.88,-353.1 c -17.32,-255.02 -225.71,-457.6 -483.22,-465.44 -0.02,0 -0.03,0 -0.05,0 -0.13,0 -0.22,0 -0.35,-0.01 h -0.03 c -0.11,0 -0.24,-0.01 -0.35,-0.01 -0.02,0 -0.03,0 -0.04,0 -0.11,0 -0.22,0 -0.34,-0.01 -0.01,0 -0.04,0 -0.06,0 -0.1,0 -0.22,0 -0.32,-0.01 -0.03,0 -0.04,0 -0.07,0 -0.1,0 -0.23,-0.01 -0.32,-0.01 -0.02,0 -0.04,0 -0.06,0 -0.1,0 -0.23,-0.01 -0.33,-0.01 -0.01,0 -0.05,0 -0.06,0 -0.1,0 -0.23,-0.01 -0.32,-0.01 -0.02,0 -0.06,0 -0.08,0 -0.1,0 -0.2,-0.01 -0.3,-0.01 -0.03,0 -0.07,0 -0.11,0 -0.09,-0.01 -0.19,-0.01 -0.28,-0.01 -0.04,0 -0.07,0 -0.11,0 -0.08,0 -0.2,0 -0.28,-0.01 -0.03,0 -0.07,0 -0.1,0 -0.1,0 -0.2,-0.01 -0.3,-0.01 -0.03,0 -0.04,0 -0.08,0 -0.11,0 -0.19,0 -0.3,0 -0.04,0 -0.06,-0.01 -0.09,-0.01 -0.1,0 -0.22,0 -0.31,0 h -0.01 c -0.13,0 -0.25,-0.01 -0.38,-0.01 h -0.02 c -0.48,-0.01 -0.93,-0.02 -1.41,-0.03 -0.05,0 -0.07,0 -0.12,0 -0.1,0 -0.2,0 -0.3,0 -0.03,0 -0.05,0 -0.09,0 -0.09,-0.01 -0.17,-0.01 -0.26,-0.01 -0.05,0 -0.09,0 -0.14,0 -0.09,0 -0.16,-0.01 -0.26,-0.01 -0.05,0 -0.07,0 -0.12,0 -0.1,0 -0.15,0 -0.25,0 -0.05,0 -0.11,0 -0.16,0 -0.06,0 -0.15,0 -0.22,-0.01 -0.07,0 -0.1,0 -0.17,0 -0.06,0 -0.15,0 -0.21,0 -0.07,0 -0.13,0 -0.2,0 -0.06,0 -0.12,0 -0.19,0 -0.08,0 -0.12,0 -0.2,-0.01 -0.05,0 -0.14,0 -0.19,0 -0.07,0 -0.14,0 -0.21,0 -0.07,0 -0.12,0 -0.18,0 -0.07,0 -0.15,0 -0.22,-0.01 -0.06,0 -0.11,0 -0.17,0 -0.07,0 -0.17,0 -0.23,0 -0.07,0 -0.1,0 -0.17,0 -0.06,0 -0.16,0 -0.23,0 -0.05,0 -0.12,0 -0.16,0 -0.09,0 -0.15,0 -0.24,0 -0.05,0 -0.11,-0.01 -0.16,-0.01 -0.09,0 -0.14,0 -0.23,0 -0.04,0 -0.12,0 -0.17,0 -0.08,0 -0.15,0 -0.23,0 -0.07,0 -0.1,0 -0.16,0 -0.07,0 -0.16,0 -0.23,0 -0.06,0 -0.11,0 -0.18,0 -0.07,0 -0.15,0 -0.21,-0.01 -0.07,0 -0.12,0 -0.18,0 -0.07,0 -0.15,0 -0.21,0 -0.07,0 -0.13,0 -0.19,0 -0.07,0 -0.15,0 -0.21,0 -0.07,0 -0.12,0 -0.19,0 -0.06,0 -0.14,0 -0.21,0 -0.06,0 -0.12,0 -0.18,0 -0.09,0 -0.15,0 -0.23,0 -0.07,0 -0.1,0 -0.17,0 -0.13,0 -0.26,0 -0.39,0"
         id="path36" /></clipPath><linearGradient
       x1="0"
       y1="0"
       x2="1"
       y2="0"
       gradientUnits="userSpaceOnUse"
       gradientTransform="matrix(439.981,-439.981,-439.981,-439.981,2556.64,3783.56)"
       spreadMethod="pad"
       id="linearGradient44"><stop
         style="stop-opacity:1;stop-color:#4c848a"
         offset="0"
         id="stop40" /><stop
         style="stop-opacity:1;stop-color:#61a8ac"
         offset="1"
         id="stop42" /></linearGradient><clipPath
       clipPathUnits="userSpaceOnUse"
       id="clipPath70"><path
         d="M 523.691,3230.97 279.063,3474.48 720.957,4019.93 999.805,3738 c 0.031,-1.59 0.117,-3.17 0.129,-4.76 v -5.79 C 998.563,3487.72 828.547,3287.98 602.473,3240.89 l -78.782,-9.92"
         id="path68" /></clipPath><linearGradient
       x1="0"
       y1="0"
       x2="1"
       y2="0"
       gradientUnits="userSpaceOnUse"
       gradientTransform="matrix(720.869,0,0,-720.869,279.063,3625.45)"
       spreadMethod="pad"
       id="linearGradient76"><stop
         style="stop-opacity:1;stop-color:#9d381e"
         offset="0"
         id="stop72" /><stop
         style="stop-opacity:1;stop-color:#c84520"
         offset="1"
         id="stop74" /></linearGradient><clipPath
       clipPathUnits="userSpaceOnUse"
       id="clipPath128"><path
         d="m 2775.48,1088.48 -186.09,185.31 219.81,562.24 356.51,-360.29 c -40.75,-194.82 -194.87,-347.97 -390.23,-387.26"
         id="path126" /></clipPath><linearGradient
       x1="0"
       y1="0"
       x2="1"
       y2="0"
       gradientUnits="userSpaceOnUse"
       gradientTransform="matrix(576.318,0,0,-576.318,2589.39,1462.25)"
       spreadMethod="pad"
       id="linearGradient134"><stop
         style="stop-opacity:1;stop-color:#9d381e"
         offset="0"
         id="stop130" /><stop
         style="stop-opacity:1;stop-color:#c84520"
         offset="1"
         id="stop132" /></linearGradient><clipPath
       clipPathUnits="userSpaceOnUse"
       id="clipPath168"><path
         d="m 3176.24,488.852 v 0.007 -0.007 m 0.04,2.058 c 0,0.012 0,0.039 0,0.051 0,-0.031 0,-0.02 0,-0.051 m 0.01,0.699 c 0,0.02 0,0.039 0,0.063 0,-0.031 0,-0.031 0,-0.063 m 0.02,1.371 c 0,0.02 0,0.051 0,0.071 0,-0.031 0,-0.039 0,-0.071 m 0.01,0.7 c 0,0.039 0,0.05 0,0.09 0,-0.032 0,-0.059 0,-0.09 m 0.01,0.711 c 0,0.039 0,0.05 0,0.078 0,-0.028 0,-0.047 0,-0.078 m 0,0.699 v 0.031 c 0,-0.012 0,-0.019 0,-0.031 m 0.01,0.652 c 0,0.039 0,0.09 0,0.117 0,-0.039 0,-0.07 0,-0.117 m 0.01,0.727 c 0,0.031 0,0.062 0,0.09 0,-0.02 0,-0.059 0,-0.09 m 0,0.722 c 0,0.028 0,0.028 0,0.059 0,-0.02 0,-0.051 0,-0.059 m 0,0.661 c 0,0.019 0,0.058 0,0.078 0,-0.032 0,-0.051 0,-0.078 m 0.01,0.687 c 0,0.043 0,0.082 0,0.121 0,-0.031 0,-0.09 0,-0.121 m 0,0.723 c 0,0.039 0,0.07 0,0.097 0,-0.027 0,-0.07 0,-0.097"
         id="path166" /></clipPath><linearGradient
       x1="0"
       y1="0"
       x2="1"
       y2="0"
       gradientUnits="userSpaceOnUse"
       gradientTransform="matrix(810.82,0,0,-810.82,2365.54,367.61)"
       spreadMethod="pad"
       id="linearGradient174"><stop
         style="stop-opacity:1;stop-color:#9c9c9b"
         offset="0"
         id="stop170" /><stop
         style="stop-opacity:1;stop-color:#c8c7c6"
         offset="1"
         id="stop172" /></linearGradient><clipPath
       clipPathUnits="userSpaceOnUse"
       id="clipPath184"><path
         d="M 2683.06,0.171875 2446.77,235.039 v 21.191 l -81.23,81.461 h 285.08 v -53.902 h 57.6 v 53.902 h 285.08 v 397.348 l 179.93,-179.648 c 2.01,-18.18 3.13,-36.661 3.13,-55.391 v 0 c 0,-0.219 0,-0.418 0,-0.641 0,-0.027 0,-0.058 0,-0.097 0,-0.203 0,-0.403 0,-0.602 0,-0.039 0,-0.078 0,-0.121 -0.01,-0.199 -0.01,-0.41 -0.01,-0.609 0,-0.02 0,-0.059 0,-0.078 0,-0.204 0,-0.403 0,-0.602 0,-0.031 0,-0.031 0,-0.059 0,-0.222 0,-0.41 0,-0.632 0,-0.028 0,-0.059 0,-0.09 -0.01,-0.207 -0.01,-0.41 -0.01,-0.61 0,-0.027 0,-0.078 0,-0.117 0,-0.203 0,-0.41 -0.01,-0.621 v -0.031 c 0,-0.211 0,-0.418 0,-0.621 0,-0.028 0,-0.039 0,-0.078 -0.01,-0.2 -0.01,-0.422 -0.01,-0.621 0,-0.04 0,-0.051 0,-0.09 0,-0.2 -0.01,-0.43 -0.01,-0.629 0,-0.02 0,-0.051 0,-0.071 -0.01,-0.429 -0.01,-0.878 -0.02,-1.308 0,-0.024 0,-0.043 0,-0.063 0,-0.199 -0.01,-0.437 -0.01,-0.648 0,-0.012 0,-0.039 0,-0.051 -0.02,-0.68 -0.03,-1.371 -0.04,-2.051 v -0.007 C 3171.13,255.359 3005.9,61.4414 2786.03,12.2188 L 2685.08,0.230469 2683.06,0.171875"
         id="path182" /></clipPath><linearGradient
       x1="0"
       y1="0"
       x2="1"
       y2="0"
       gradientUnits="userSpaceOnUse"
       gradientTransform="matrix(810.82,0,0,-810.82,2365.54,367.61)"
       spreadMethod="pad"
       id="linearGradient190"><stop
         style="stop-opacity:1;stop-color:#996a1e"
         offset="0"
         id="stop186" /><stop
         style="stop-opacity:1;stop-color:#c4871b"
         offset="1"
         id="stop188" /></linearGradient><clipPath
       clipPathUnits="userSpaceOnUse"
       id="clipPath234"><path
         d="m 589.211,2161.84 -373.41,375.87 14.453,59.86 v 158.93 l -30.652,32.57 h 600.8 l 193.907,-199 0.398,-8.83 C 965.723,2381.79 819.055,2220.52 627.355,2170.17 l -34.66,-7.71 c -1.164,-0.22 -2.324,-0.41 -3.484,-0.62"
         id="path232" /></clipPath><linearGradient
       x1="0"
       y1="0"
       x2="1"
       y2="0"
       gradientUnits="userSpaceOnUse"
       gradientTransform="matrix(795.107,0,0,-795.107,199.6,2475.46)"
       spreadMethod="pad"
       id="linearGradient240"><stop
         style="stop-opacity:1;stop-color:#996a1e"
         offset="0"
         id="stop236" /><stop
         style="stop-opacity:1;stop-color:#c4871b"
         offset="1"
         id="stop238" /></linearGradient><clipPath
       clipPathUnits="userSpaceOnUse"
       id="clipPath264"><path
         d="m 2677.13,2153.75 c 0.01,0 0.01,0 0.03,0 -0.02,0 -0.02,0 -0.03,0 m 0.3,0 c 0.05,0 0.08,0 0.13,0 -0.03,0 -0.09,0 -0.13,0 m 0.35,0 c 0.07,0 0.12,0 0.18,0 -0.06,0 -0.12,0 -0.18,0 m 0.37,0 c 0.07,0 0.15,0 0.22,0 -0.07,0 -0.15,0 -0.22,0 m 0.4,0 c 0.08,0 0.13,0 0.22,0 -0.07,0 -0.15,0 -0.22,0 m 0.4,0 c 0.09,0.01 0.14,0.01 0.22,0.01 -0.07,0 -0.15,0 -0.22,-0.01 m 0.39,0.01 c 0.08,0 0.15,0 0.23,0 -0.07,0 -0.17,0 -0.23,0 m 0.46,0 c 0.05,0 0.11,0 0.17,0 -0.05,0 -0.12,0 -0.17,0 m 0.39,0 c 0.05,0 0.13,0 0.18,0 -0.05,0 -0.13,0 -0.18,0 m 0.38,0.01 c 0.07,0 0.14,0 0.2,0 -0.06,0 -0.13,0 -0.2,0 m 0.4,0 c 0.06,0 0.14,0 0.21,0 -0.09,0 -0.13,0 -0.21,0 m 0.41,0 c 0.05,0 0.14,0 0.19,0 -0.06,0 -0.12,0 -0.19,0 m 0.41,0.01 c 0.05,0 0.13,0 0.18,0 -0.06,0 -0.12,0 -0.18,0 m 0.42,0 c 0.05,0 0.11,0 0.16,0 -0.07,0 -0.09,0 -0.16,0 m 0.4,0.01 c 0.05,0 0.11,0 0.16,0 -0.07,0 -0.09,0 -0.16,0 m 0.41,0 c 0.05,0 0.1,0 0.15,0 -0.05,0 -0.1,0 -0.15,0 m 0.4,0.01 c 0.05,0 0.1,0 0.15,0 -0.05,0 -0.1,0 -0.15,0 m 0.42,0 c 0.05,0 0.07,0 0.12,0 -0.05,0 -0.07,0 -0.12,0 m 0.39,0.01 c 0.05,0 0.09,0 0.14,0 -0.05,0 -0.09,0 -0.14,0 m 0.39,0.01 c 0.05,0 0.1,0 0.15,0 -0.05,0 -0.1,0 -0.15,0 m 0.39,0 c 0.05,0 0.11,0 0.16,0 -0.05,0 -0.11,0 -0.16,0 m 0.42,0.01 c 0.03,0 0.1,0 0.13,0 -0.05,0 -0.08,0 -0.13,0 m 0.4,0.01 c 0.03,0 0.1,0 0.13,0 -0.05,0 -0.08,0 -0.13,0 m 0.41,0 c 0.04,0 0.08,0.01 0.12,0.01 -0.05,0 -0.07,-0.01 -0.12,-0.01 m 0.4,0.01 c 0.03,0 0.08,0 0.12,0 -0.05,0 -0.08,0 -0.12,0 m 0.4,0.01 c 0.03,0 0.08,0 0.11,0 -0.05,0 -0.06,0 -0.11,0 m 0.4,0.01 c 0.03,0 0.08,0 0.11,0 -0.05,0 -0.06,0 -0.11,0 m 0.41,0.01 c 0.04,0 0.06,0 0.09,0 -0.03,0 -0.06,0 -0.09,0 m 0.39,0.01 c 0.03,0 0.08,0 0.11,0 -0.03,0 -0.08,0 -0.11,0 m 0.39,0.01 c 0.05,0 0.07,0 0.12,0 -0.05,0 -0.07,0 -0.12,0 m 0.4,0.01 c 0.05,0 0.07,0 0.12,0 -0.05,0 -0.08,0 -0.12,0 m 0.4,0.01 c 0.05,0 0.07,0 0.12,0 -0.04,0 -0.08,0 -0.12,0 m 0.4,0.01 c 0.04,0 0.07,0 0.11,0 -0.04,0 -0.07,0 -0.11,0 m 0.41,0.01 c 0.02,0 0.08,0 0.09,0 -0.03,0 -0.05,0 -0.09,0 m 0.4,0.01 c 0.03,0 0.06,0 0.09,0 -0.03,0 -0.06,0 -0.09,0 m 0.41,0.01 c 0.02,0 0.05,0 0.07,0 -0.04,0 -0.04,0 -0.07,0 m 0.4,0.01 c 0.03,0 0.03,0 0.07,0 -0.04,0 -0.04,0 -0.07,0 m 0.4,0.01 c 0.02,0 0.04,0 0.06,0.01 -0.03,-0.01 -0.03,-0.01 -0.06,-0.01 m 0.39,0.02 c 0.04,0 0.03,0 0.07,0 -0.04,0 -0.03,0 -0.07,0 m 0.42,0.01 h 0.02 -0.02 m 0.39,0.01 c 0.02,0 0.02,0 0.04,0 h -0.04 m 0.41,0.01 0.02,0.01 -0.02,-0.01 m 0.38,0.02 c 0.02,0 0.02,0 0.04,0 h -0.04 m 0.42,0.01 v 0 0"
         id="path262" /></clipPath><linearGradient
       x1="0"
       y1="0"
       x2="1"
       y2="0"
       gradientUnits="userSpaceOnUse"
       gradientTransform="matrix(802.949,0,0,-802.949,2373.14,2507.76)"
       spreadMethod="pad"
       id="linearGradient270"><stop
         style="stop-opacity:1;stop-color:#9c9c9b"
         offset="0"
         id="stop266" /><stop
         style="stop-opacity:1;stop-color:#c8c7c6"
         offset="1"
         id="stop268" /></linearGradient><clipPath
       clipPathUnits="userSpaceOnUse"
       id="clipPath280"><path
         d="m 2676.36,2153.75 v 0 c -9.49,0 -18.9,0.32 -28.25,0.84 l -274.97,274.46 591.01,432.73 211.94,-218.31 c -5.37,-265.42 -217.4,-480.1 -481.83,-489.41 v 0 c -0.14,0 -0.25,-0.01 -0.38,-0.01 -0.02,0 -0.02,0 -0.04,0 -0.13,-0.01 -0.23,-0.01 -0.36,-0.01 l -0.02,-0.01 c -0.14,0 -0.24,0 -0.37,-0.01 -0.02,0 -0.02,0 -0.04,0 -0.13,0 -0.23,-0.01 -0.37,-0.01 h -0.02 c -0.11,0 -0.24,-0.01 -0.35,-0.01 -0.04,0 -0.03,0 -0.07,0 -0.1,-0.01 -0.23,-0.01 -0.33,-0.01 -0.02,-0.01 -0.04,-0.01 -0.06,-0.01 -0.1,0 -0.23,0 -0.33,-0.01 -0.04,0 -0.04,0 -0.07,0 -0.1,0 -0.23,-0.01 -0.33,-0.01 -0.02,0 -0.05,0 -0.07,0 -0.1,0 -0.22,-0.01 -0.32,-0.01 -0.03,0 -0.06,0 -0.09,0 -0.1,0 -0.21,-0.01 -0.31,-0.01 -0.01,0 -0.07,0 -0.09,0 -0.1,-0.01 -0.2,-0.01 -0.3,-0.01 -0.04,0 -0.07,0 -0.11,0 -0.09,-0.01 -0.19,-0.01 -0.28,-0.01 -0.05,0 -0.07,0 -0.12,0 -0.09,-0.01 -0.18,-0.01 -0.28,-0.01 -0.05,0 -0.07,0 -0.12,0 -0.09,-0.01 -0.19,-0.01 -0.28,-0.01 -0.05,0 -0.07,0 -0.12,0 -0.08,-0.01 -0.2,-0.01 -0.28,-0.01 -0.03,0 -0.08,0 -0.11,0 -0.1,-0.01 -0.2,-0.01 -0.3,-0.01 -0.03,0 -0.05,0 -0.09,0 -0.1,0 -0.2,-0.01 -0.3,-0.01 -0.03,0 -0.08,0 -0.11,0 -0.09,0 -0.2,-0.01 -0.29,-0.01 -0.03,0 -0.08,0 -0.11,0 -0.08,0 -0.2,0 -0.28,-0.01 -0.04,0 -0.09,0 -0.12,0 -0.09,0 -0.2,0 -0.28,0 -0.04,0 -0.08,-0.01 -0.12,-0.01 -0.08,0 -0.2,0 -0.28,0 -0.03,0 -0.1,0 -0.13,0 -0.09,-0.01 -0.19,-0.01 -0.27,-0.01 -0.03,0 -0.1,0 -0.13,0 -0.08,0 -0.18,0 -0.26,-0.01 -0.05,0 -0.11,0 -0.16,0 -0.08,0 -0.16,0 -0.24,0 -0.05,0 -0.1,0 -0.15,0 -0.08,-0.01 -0.17,-0.01 -0.25,-0.01 -0.05,0 -0.09,0 -0.14,0 -0.09,0 -0.19,0 -0.27,-0.01 -0.05,0 -0.07,0 -0.12,0 -0.08,0 -0.19,0 -0.27,0 -0.05,0 -0.1,0 -0.15,0 -0.08,0 -0.17,-0.01 -0.25,-0.01 -0.05,0 -0.1,0 -0.15,0 -0.08,0 -0.17,0 -0.25,0 -0.05,0 -0.11,0 -0.16,0 -0.07,0 -0.18,-0.01 -0.24,-0.01 -0.05,0 -0.11,0 -0.16,0 -0.07,0 -0.17,0 -0.24,0 -0.05,0 -0.13,0 -0.18,0 -0.07,0 -0.15,0 -0.22,-0.01 -0.05,0 -0.14,0 -0.19,0 -0.06,0 -0.14,0 -0.2,0 -0.07,0 -0.15,0 -0.21,0 -0.05,0 -0.15,0 -0.2,0 -0.06,0 -0.13,0 -0.2,0 -0.08,-0.01 -0.11,-0.01 -0.2,-0.01 -0.05,0 -0.13,0 -0.18,0 -0.09,0 -0.14,0 -0.22,0 -0.06,0 -0.12,0 -0.17,0 -0.09,0 -0.15,0 -0.23,0 -0.08,0 -0.15,0 -0.23,0 -0.07,0 -0.1,0 -0.17,0 -0.08,0 -0.13,0 -0.22,-0.01 -0.06,0 -0.12,0 -0.18,0 -0.09,0 -0.14,0 -0.22,0 -0.07,0 -0.12,0 -0.18,0 -0.07,0 -0.15,0 -0.22,0 -0.06,0 -0.12,0 -0.19,0 -0.06,0 -0.11,0 -0.18,0 -0.07,0 -0.15,0 -0.22,0 -0.05,0 -0.08,0 -0.13,0 -0.1,0 -0.17,0 -0.27,0 -0.02,0 -0.02,0 -0.03,0 -0.25,0 -0.52,0 -0.77,0 v 0"
         id="path278" /></clipPath><linearGradient
       x1="0"
       y1="0"
       x2="1"
       y2="0"
       gradientUnits="userSpaceOnUse"
       gradientTransform="matrix(802.949,0,0,-802.949,2373.14,2507.76)"
       spreadMethod="pad"
       id="linearGradient286"><stop
         style="stop-opacity:1;stop-color:#2f313a"
         offset="0"
         id="stop282" /><stop
         style="stop-opacity:1;stop-color:#3a3d4b"
         offset="1"
         id="stop284" /></linearGradient><clipPath
       clipPathUnits="userSpaceOnUse"
       id="clipPath318"><path
         d="m 1738.72,2175.07 h -2.89 l -309.39,311.23 164.93,270.2 10,147.25 26.51,-27.41 73.38,23.62 374.57,-374.89 0.23,-4.48 c -45.56,-165.23 -173.71,-296.16 -337.34,-345.52"
         id="path316" /></clipPath><linearGradient
       x1="0"
       y1="0"
       x2="1"
       y2="0"
       gradientUnits="userSpaceOnUse"
       gradientTransform="matrix(649.619,0,0,-649.619,1426.44,2539.41)"
       spreadMethod="pad"
       id="linearGradient324"><stop
         style="stop-opacity:1;stop-color:#4c848a"
         offset="0"
         id="stop320" /><stop
         style="stop-opacity:1;stop-color:#61a8ac"
         offset="1"
         id="stop322" /></linearGradient><clipPath
       clipPathUnits="userSpaceOnUse"
       id="clipPath346"><path
         d="m 2094.01,3719.65 c 0,0.01 0,0.01 0,0.03 v -0.03 m 0.01,0.71 c 0,0.02 0,0.02 0,0.03 v -0.03 m 0.03,1.41 c 0,0.02 0,0.02 0,0.04 0,-0.01 0,-0.02 0,-0.04 m 0.01,0.7 c 0,0.01 0,0.05 0,0.07 0,-0.03 0,-0.04 0,-0.07 m 0.01,0.72 c 0,0.03 0,0.04 0,0.07 0,-0.03 0,-0.04 0,-0.07 m 0.01,0.74 v 0.01 -0.01 m 0.01,0.68 c 0,0.02 0,0.03 0,0.05 0,-0.02 0,-0.03 0,-0.05 m 0.01,0.69 c 0,0.04 0,0.06 0,0.09 0,-0.03 0,-0.05 0,-0.09 m 0,0.72 c 0,0.03 0,0.07 0,0.1 0,-0.03 0,-0.07 0,-0.1 m 0.01,0.74 c 0,0.02 0,0.04 0,0.06 0,-0.02 0,-0.04 0,-0.06 m 0,0.7 c 0,0.02 0,0.02 0,0.04 0,-0.01 0,-0.02 0,-0.04 m 0.01,0.68 c 0,0.04 0,0.07 0,0.11 0,-0.04 0,-0.08 0,-0.11 m 0,0.73 c 0,0.03 0,0.07 0,0.11 0,-0.03 0,-0.09 0,-0.11 m 0,0.73 c 0,0.03 0,0.06 0,0.09 0,-0.03 0,-0.06 0,-0.09"
         id="path344" /></clipPath><linearGradient
       x1="0"
       y1="0"
       x2="1"
       y2="0"
       gradientUnits="userSpaceOnUse"
       gradientTransform="matrix(631.24,0,0,-631.24,1462.88,3642.63)"
       spreadMethod="pad"
       id="linearGradient352"><stop
         style="stop-opacity:1;stop-color:#9c9c9b"
         offset="0"
         id="stop348" /><stop
         style="stop-opacity:1;stop-color:#c8c7c6"
         offset="1"
         id="stop350" /></linearGradient><clipPath
       clipPathUnits="userSpaceOnUse"
       id="clipPath362"><path
         d="m 1689.16,3239.48 -226.28,226.95 80.35,285.34 -17.87,82.48 -61.6,211.52 147.11,-146.73 214.93,146.73 266.21,-270.53 c 1.32,-14.8 2.11,-29.75 2.11,-44.9 v 0 c 0,-0.22 0,-0.43 0,-0.65 0,-0.03 0,-0.06 0,-0.09 0,-0.21 0,-0.42 0,-0.62 0,-0.04 0,-0.08 0,-0.11 0,-0.21 0,-0.42 0,-0.62 0,-0.04 0,-0.07 0,-0.11 0,-0.22 -0.01,-0.42 -0.01,-0.64 0,-0.02 0,-0.02 0,-0.04 0,-0.2 0,-0.44 0,-0.64 0,-0.02 0,-0.04 0,-0.06 0,-0.22 0,-0.42 -0.01,-0.64 0,-0.03 0,-0.07 0,-0.1 0,-0.21 0,-0.42 0,-0.63 0,-0.03 0,-0.05 0,-0.09 -0.01,-0.22 -0.01,-0.42 -0.01,-0.64 0,-0.02 0,-0.03 0,-0.05 0,-0.22 -0.01,-0.45 -0.01,-0.67 v -0.01 c 0,-0.22 0,-0.45 -0.01,-0.67 0,-0.03 0,-0.04 0,-0.07 0,-0.21 -0.01,-0.44 -0.01,-0.65 0,-0.02 0,-0.06 0,-0.07 0,-0.22 -0.01,-0.43 -0.01,-0.66 0,-0.02 0,-0.02 0,-0.04 -0.01,-0.46 -0.02,-0.92 -0.03,-1.38 0,-0.01 0,-0.01 0,-0.03 0,-0.23 -0.01,-0.44 -0.01,-0.68 0,-0.02 0,-0.02 0,-0.03 -5.01,-238.86 -177.56,-436.41 -404.85,-480.17"
         id="path360" /></clipPath><linearGradient
       x1="0"
       y1="0"
       x2="1"
       y2="0"
       gradientUnits="userSpaceOnUse"
       gradientTransform="matrix(631.24,0,0,-631.24,1462.88,3642.63)"
       spreadMethod="pad"
       id="linearGradient368"><stop
         style="stop-opacity:1;stop-color:#2f313a"
         offset="0"
         id="stop364" /><stop
         style="stop-opacity:1;stop-color:#3a3d4b"
         offset="1"
         id="stop366" /></linearGradient><clipPath
       clipPathUnits="userSpaceOnUse"
       id="clipPath394"><path
         d="m 3749.34,3230.35 v 0 0 c 0.13,0 0.25,0 0.39,0 -0.13,0 -0.27,0 -0.39,0 m 0.54,0 c 0.08,0 0.16,0 0.25,0 -0.08,0 -0.17,0 -0.25,0 m 0.4,0 c 0.07,0 0.18,0 0.24,0 -0.08,0 -0.16,0 -0.24,0 m 0.41,0 c 0.06,0 0.16,0 0.23,0 -0.08,0 -0.15,0 -0.23,0 m 0.39,0 c 0.07,0 0.17,0 0.24,0 -0.08,0 -0.16,0 -0.24,0 m 0.39,0 c 0.09,0 0.16,0 0.24,0 -0.08,0 -0.16,0 -0.24,0 m 0.41,0 c 0.09,0 0.15,0 0.23,0 -0.08,0 -0.15,0 -0.23,0 m 0.39,0.01 c 0.09,0 0.15,0 0.23,0 -0.08,0 -0.15,0 -0.23,0 m 0.42,0 c 0.06,0 0.13,0 0.2,0 -0.08,0 -0.12,0 -0.2,0 m 0.39,0 c 0.07,0 0.14,0 0.21,0 -0.07,0 -0.15,0 -0.21,0 m 0.4,0 c 0.06,0 0.14,0 0.2,0 -0.06,0 -0.14,0 -0.2,0 m 0.39,0.01 c 0.06,0 0.14,0 0.2,0 -0.06,0 -0.14,0 -0.2,0 m 0.41,0 c 0.05,0 0.12,0 0.17,0 -0.06,0 -0.11,0 -0.17,0 m 0.39,0.01 c 0.05,0 0.13,0 0.18,0 -0.05,0 -0.13,0 -0.18,0 m 0.39,0 c 0.07,0 0.12,0 0.19,0 -0.07,0 -0.12,0 -0.19,0 m 0.39,0 c 0.07,0 0.11,0 0.18,0 -0.06,0 -0.11,0 -0.18,0 m 0.41,0.01 c 0.05,0 0.09,0 0.14,0 -0.05,0 -0.09,0 -0.14,0 m 0.39,0 c 0.05,0 0.08,0 0.13,0 -0.03,0 -0.1,0 -0.13,0 m 0.4,0.01 c 0.02,0 0.06,0 0.08,0 -0.02,0 -0.06,0 -0.08,0 m 0.39,0 c 0.01,0 0.05,0 0.06,0.01 -0.01,-0.01 -0.05,-0.01 -0.06,-0.01 m 1.5,0.03 c 0.01,0 0.03,0 0.04,0 -0.01,0 -0.03,0 -0.04,0 m 0.76,0.01 c 0.03,0 0.03,0 0.06,0.01 -0.01,0 -0.05,-0.01 -0.06,-0.01 m 0.38,0.01 c 0.02,0 0.05,0 0.07,0 -0.02,0 -0.05,0 -0.07,0 m 0.38,0.01 c 0.01,0 0.06,0 0.08,0 -0.02,0 -0.07,0 -0.08,0 m 0.39,0.01 c 0.04,0 0.04,0 0.07,0 -0.01,0 -0.05,0 -0.07,0 m 0.38,0.01 c 0.03,0 0.06,0 0.09,0 -0.03,0 -0.06,0 -0.09,0 m 0.38,0 c 0.02,0 0.08,0 0.1,0 -0.04,0 -0.06,0 -0.1,0 m 0.39,0.01 c 0.04,0.01 0.06,0.01 0.1,0.01 -0.04,0 -0.07,0 -0.1,-0.01 m 0.41,0.01 c 0.02,0 0.04,0 0.05,0 -0.03,0 -0.02,0 -0.05,0 m 0.39,0.01 c 0.02,0 0.03,0.01 0.04,0.01 l -0.04,-0.01 m 0.39,0.01 c 0.02,0 0.02,0 0.04,0 h -0.04 m 0.39,0.02 h 0.02 -0.02"
         id="path392" /></clipPath><linearGradient
       x1="0"
       y1="0"
       x2="1"
       y2="0"
       gradientUnits="userSpaceOnUse"
       gradientTransform="matrix(783.486,0,0,-783.486,3464.31,3619.31)"
       spreadMethod="pad"
       id="linearGradient400"><stop
         style="stop-opacity:1;stop-color:#9c9c9b"
         offset="0"
         id="stop396" /><stop
         style="stop-opacity:1;stop-color:#c8c7c6"
         offset="1"
         id="stop398" /></linearGradient><clipPath
       clipPathUnits="userSpaceOnUse"
       id="clipPath410"><path
         d="m 3749.34,3230.35 v 0 c -13.8,0 -27.44,0.71 -40.95,1.8 l -244.08,248.14 544.1,527.98 239.01,-235.58 0.15,-1.87 0.22,-77.93 c -18.83,-254.08 -227.38,-455.36 -484.59,-462.35 h -0.02 c -0.13,-0.01 -0.23,-0.01 -0.35,-0.02 -0.02,0 -0.02,0 -0.04,0 -0.13,0 -0.22,0 -0.35,0 -0.01,0 -0.02,-0.01 -0.04,-0.01 -0.11,0 -0.23,0 -0.34,-0.01 -0.01,0 -0.03,0 -0.05,0 -0.1,0 -0.22,0 -0.31,0 -0.04,0 -0.06,0 -0.1,-0.01 -0.09,0 -0.2,0 -0.29,-0.01 -0.02,0 -0.08,0 -0.1,0 -0.09,0 -0.19,0 -0.29,0 -0.03,0 -0.06,0 -0.09,0 -0.11,-0.01 -0.19,-0.01 -0.31,-0.01 -0.03,0 -0.03,0 -0.07,0 -0.11,-0.01 -0.2,-0.01 -0.31,-0.01 -0.02,0 -0.07,0 -0.08,0 -0.12,0 -0.2,-0.01 -0.31,-0.01 -0.02,0 -0.05,0 -0.07,0 -0.11,0 -0.21,0 -0.32,0 -0.03,-0.01 -0.03,-0.01 -0.06,-0.01 -0.24,0 -0.48,-0.01 -0.72,-0.01 -0.01,0 -0.03,0 -0.04,0 -0.49,-0.01 -0.96,-0.02 -1.44,-0.02 -0.01,-0.01 -0.05,-0.01 -0.06,-0.01 -0.12,0 -0.2,0 -0.31,0 -0.02,0 -0.06,0 -0.08,0 -0.1,0 -0.17,-0.01 -0.27,-0.01 -0.05,0 -0.08,0 -0.13,0 -0.1,0 -0.15,0 -0.25,0 -0.05,0 -0.09,0 -0.14,0 -0.06,0 -0.17,0 -0.23,-0.01 -0.07,0 -0.11,0 -0.18,0 -0.06,0 -0.14,0 -0.2,0 -0.07,0 -0.12,0 -0.19,0 -0.08,0 -0.13,0 -0.21,0 -0.05,0 -0.13,0 -0.18,0 -0.08,0 -0.14,-0.01 -0.22,-0.01 -0.05,0 -0.12,0 -0.17,0 -0.07,0 -0.14,0 -0.21,0 -0.06,0 -0.14,0 -0.2,0 -0.07,0 -0.12,0 -0.19,-0.01 -0.06,0 -0.14,0 -0.2,0 -0.07,0 -0.13,0 -0.19,0 -0.07,0 -0.14,0 -0.21,0 -0.06,0 -0.13,0 -0.19,0 -0.07,0 -0.14,0 -0.2,0 -0.05,0 -0.14,0 -0.19,0 -0.08,0 -0.14,0 -0.23,0 -0.05,0 -0.11,-0.01 -0.16,-0.01 -0.08,0 -0.14,0 -0.23,0 -0.06,0 -0.11,0 -0.17,0 -0.08,0 -0.15,0 -0.24,0 -0.04,0 -0.1,0 -0.15,0 -0.07,0 -0.17,0 -0.24,0 -0.04,0 -0.11,0 -0.16,0 -0.07,0 -0.17,0 -0.23,0 -0.05,0 -0.12,0 -0.17,0 -0.06,0 -0.17,0 -0.24,0 -0.07,0 -0.09,0 -0.15,0 -0.09,0 -0.17,0 -0.25,0 -0.05,0 -0.1,0 -0.15,0 -0.14,0 -0.26,0 -0.39,0"
         id="path408" /></clipPath><linearGradient
       x1="0"
       y1="0"
       x2="1"
       y2="0"
       gradientUnits="userSpaceOnUse"
       gradientTransform="matrix(783.486,0,0,-783.486,3464.31,3619.31)"
       spreadMethod="pad"
       id="linearGradient416"><stop
         style="stop-opacity:1;stop-color:#9d381e"
         offset="0"
         id="stop412" /><stop
         style="stop-opacity:1;stop-color:#c84520"
         offset="1"
         id="stop414" /></linearGradient><clipPath
       clipPathUnits="userSpaceOnUse"
       id="clipPath440"><path
         d="m 500.012,1078.62 v 0 0 c 0.133,0 0.265,0 0.398,0 -0.133,0 -0.265,0 -0.398,0 m 0.547,0 c 0.082,0 0.171,0 0.254,0 -0.083,0 -0.172,0 -0.254,0 m 0.457,0 c 0.07,0 0.125,0 0.195,0 -0.066,0 -0.129,0 -0.195,0 m 0.41,0 c 0.066,0 0.121,0 0.187,0 -0.066,0 -0.125,0 -0.187,0 m 0.379,0.01 c 0.082,0 0.129,0 0.211,0 -0.067,0 -0.145,0 -0.211,0 m 0.39,0 c 0.086,0 0.137,0 0.223,0 -0.066,0 -0.156,0 -0.223,0 m 0.403,0 c 0.086,0 0.136,0 0.222,0 -0.082,0 -0.14,0 -0.222,0 m 0.382,0 c 0.083,0 0.157,0 0.243,0 -0.086,0 -0.16,0 -0.243,0 m 0.422,0 c 0.067,0 0.153,0 0.219,0 -0.086,0 -0.137,0 -0.219,0 m 0.399,0.01 c 0.066,0 0.152,0 0.222,0 -0.085,0 -0.14,0 -0.222,0 m 0.418,0 c 0.066,0 0.129,0 0.199,0 -0.066,0 -0.133,0 -0.199,0 m 0.402,0 c 0.067,0 0.133,0 0.199,0 -0.066,0 -0.132,0 -0.199,0 m 0.41,0.01 c 0.067,0 0.117,0 0.184,0 -0.067,0 -0.117,0 -0.184,0 m 0.399,0 c 0.066,0 0.125,0 0.191,0 -0.066,0 -0.129,0 -0.191,0 m 0.398,0.01 c 0.067,0 0.121,0 0.192,0 -0.071,0 -0.125,0 -0.192,0 m 0.399,0 c 0.07,0 0.121,0 0.191,0 -0.066,0 -0.125,0 -0.191,0 m 0.418,0.01 c 0.07,0 0.101,0 0.168,0 -0.051,0 -0.118,0 -0.168,0 m 0.406,0 c 0.066,0 0.09,0 0.156,0 -0.047,0 -0.109,0 -0.156,0 m 0.402,0.01 c 0.07,0 0.086,0 0.152,0 -0.046,0 -0.101,0 -0.152,0 m 0.391,0 c 0.066,0 0.097,0 0.168,0 -0.051,0 -0.117,0 -0.168,0 m 0.402,0.01 c 0.051,0 0.113,0 0.164,0 -0.051,0 -0.113,0 -0.164,0 m 0.395,0.01 c 0.05,0 0.117,0 0.168,0 -0.051,0 -0.118,0 -0.168,0 m 0.418,0 c 0.046,0 0.089,0 0.136,0 -0.047,0 -0.09,0 -0.136,0 m 0.398,0.01 c 0.051,0 0.086,0 0.137,0 -0.047,0 -0.086,0 -0.137,0 m 0.414,0.01 c 0.035,0 0.082,0 0.113,0 -0.031,0 -0.078,0 -0.113,0 m 0.395,0 c 0.05,0.01 0.066,0.01 0.117,0.01 -0.031,0 -0.082,0 -0.117,-0.01 m 0.414,0.01 c 0.019,0 0.074,0.01 0.093,0.01 -0.035,-0.01 -0.058,-0.01 -0.093,-0.01 m 0.39,0.01 c 0.035,0 0.071,0 0.106,0 -0.035,0 -0.071,0 -0.106,0 m 0.41,0.01 c 0.036,0 0.051,0 0.083,0 -0.032,0 -0.047,0 -0.083,0 m 0.403,0.01 c 0.035,0 0.039,0 0.07,0 -0.031,0 -0.035,0 -0.07,0 m 0.41,0.01 c 0.016,0 0.035,0 0.051,0 -0.035,0 -0.02,0 -0.051,0 m 0.387,0.01 c 0.035,0 0.031,0 0.062,0 -0.031,0 -0.027,0 -0.062,0 m 0.414,0.01 h 0.031 -0.031 m 0.402,0.01 h 0.02 -0.02 m 0.797,0.02 c 0.016,0 -0.008,0 0.012,0 h -0.012"
         id="path438" /></clipPath><linearGradient
       x1="0"
       y1="0"
       x2="1"
       y2="0"
       gradientUnits="userSpaceOnUse"
       gradientTransform="matrix(816.631,0,0,-816.631,183.047,1480.9)"
       spreadMethod="pad"
       id="linearGradient446"><stop
         style="stop-opacity:1;stop-color:#9c9c9b"
         offset="0"
         id="stop442" /><stop
         style="stop-opacity:1;stop-color:#c8c7c6"
         offset="1"
         id="stop444" /></linearGradient><clipPath
       clipPathUnits="userSpaceOnUse"
       id="clipPath456"><path
         d="m 500.012,1078.62 v 0 c -2.992,0 -5.942,0.18 -8.91,0.23 l -308.055,307.68 63.652,80.69 41.953,145.04 146.133,139.39 h 179.934 l 131.511,131.51 251.036,-252.2 0.031,-0.22 2.383,-65.03 c -6.754,-265.41 -220.145,-479.44 -485.375,-486.89 -0.02,0 0.004,0 -0.012,0 -0.266,-0.01 -0.516,-0.01 -0.777,-0.02 h -0.02 c -0.133,0 -0.238,-0.01 -0.371,-0.01 h -0.031 c -0.114,0 -0.235,-0.01 -0.352,-0.01 -0.031,0 -0.027,0 -0.062,0 -0.098,0 -0.239,-0.01 -0.336,-0.01 -0.016,0 -0.035,0 -0.051,0 -0.102,0 -0.238,-0.01 -0.34,-0.01 -0.031,0 -0.035,0 -0.07,0 -0.098,0 -0.223,0 -0.32,-0.01 -0.032,0 -0.047,0 -0.083,0 -0.097,0 -0.207,0 -0.304,-0.01 -0.035,0 -0.071,0 -0.106,0 -0.097,0 -0.199,0 -0.297,0 -0.019,0 -0.074,-0.01 -0.093,-0.01 -0.098,0 -0.2,0 -0.297,0 -0.051,0 -0.067,0 -0.117,-0.01 -0.098,0 -0.18,0 -0.282,0 -0.031,0 -0.078,0 -0.113,0 -0.098,0 -0.176,-0.01 -0.277,-0.01 -0.051,0 -0.086,0 -0.137,0 -0.082,0 -0.176,0 -0.262,-0.01 -0.047,0 -0.09,0 -0.136,0 -0.086,0 -0.168,0 -0.25,0 -0.051,0 -0.118,0 -0.168,0 -0.082,-0.01 -0.149,-0.01 -0.231,-0.01 -0.051,0 -0.113,0 -0.164,0 -0.082,0 -0.152,0 -0.234,-0.01 -0.071,0 -0.102,0 -0.168,0 -0.082,0 -0.153,0 -0.239,0 -0.066,0 -0.082,0 -0.152,0 -0.082,-0.01 -0.164,-0.01 -0.246,-0.01 -0.066,0 -0.09,0 -0.156,0 -0.086,0 -0.156,0 -0.238,0 -0.067,0 -0.098,0 -0.168,0 -0.082,-0.01 -0.145,-0.01 -0.227,-0.01 -0.07,0 -0.121,0 -0.191,0 -0.067,0 -0.141,0 -0.207,0 -0.071,0 -0.125,0 -0.192,0 -0.066,-0.01 -0.14,-0.01 -0.207,-0.01 -0.066,0 -0.125,0 -0.191,0 -0.067,0 -0.149,0 -0.215,0 -0.067,0 -0.117,0 -0.184,0 -0.066,0 -0.144,0 -0.211,-0.01 -0.066,0 -0.132,0 -0.199,0 -0.066,0 -0.137,0 -0.203,0 -0.07,0 -0.133,0 -0.199,0 -0.067,0 -0.129,0 -0.196,0 -0.07,0 -0.156,0 -0.222,0 -0.051,0 -0.129,-0.01 -0.18,-0.01 -0.066,0 -0.152,0 -0.219,0 -0.05,0 -0.132,0 -0.179,0 -0.086,0 -0.16,0 -0.243,0 -0.05,0 -0.109,0 -0.16,0 -0.086,0 -0.136,0 -0.222,0 -0.067,0 -0.114,0 -0.18,0 -0.086,0 -0.137,0 -0.223,0 -0.066,0 -0.113,0 -0.179,0 -0.082,0 -0.129,0 -0.211,0 -0.067,-0.01 -0.125,-0.01 -0.192,-0.01 -0.066,0 -0.121,0 -0.187,0 -0.067,0 -0.149,0 -0.215,0 -0.07,0 -0.125,0 -0.195,0 -0.067,0 -0.137,0 -0.203,0 -0.083,0 -0.172,0 -0.254,0 -0.051,0 -0.098,0 -0.149,0 -0.133,0 -0.265,0 -0.398,0"
         id="path454" /></clipPath><linearGradient
       x1="0"
       y1="0"
       x2="1"
       y2="0"
       gradientUnits="userSpaceOnUse"
       gradientTransform="matrix(816.631,0,0,-816.631,183.047,1480.9)"
       spreadMethod="pad"
       id="linearGradient462"><stop
         style="stop-opacity:1;stop-color:#2f313a"
         offset="0"
         id="stop458" /><stop
         style="stop-opacity:1;stop-color:#3a3d4b"
         offset="1"
         id="stop460" /></linearGradient><clipPath
       clipPathUnits="userSpaceOnUse"
       id="clipPath576"><path
         d="m 3767.09,2154.2 -168.56,169.29 64.89,22 12.5,31.8 -89.72,86.76 19.72,2.94 13.78,47.69 -74.46,78.69 265.68,313.94 30,57.38 83.67,-44.15 319.64,-320.43 -9.89,-68.11 c -52.99,-211.76 -240.99,-369.89 -467.25,-377.8"
         id="path574" /></clipPath><linearGradient
       x1="0"
       y1="0"
       x2="1"
       y2="0"
       gradientUnits="userSpaceOnUse"
       gradientTransform="matrix(698.984,0,0,-698.984,3545.24,2559.44)"
       spreadMethod="pad"
       id="linearGradient582"><stop
         style="stop-opacity:1;stop-color:#4c848a"
         offset="0"
         id="stop578" /><stop
         style="stop-opacity:1;stop-color:#61a8ac"
         offset="1"
         id="stop580" /></linearGradient><clipPath
       clipPathUnits="userSpaceOnUse"
       id="clipPath612"><path
         d="m 3749.34,1078.62 v 0 0 c 0.13,0 0.25,0 0.38,0 -0.12,0 -0.26,0 -0.38,0 m 0.53,0 c 0.08,0 0.17,0 0.25,0 -0.09,0 -0.15,0 -0.25,0 m 0.4,0 c 0.07,0 0.17,0 0.24,0 -0.08,0 -0.16,0 -0.24,0 m 0.41,0 c 0.07,0 0.15,0 0.22,0 -0.08,0 -0.14,0 -0.22,0 m 0.4,0 c 0.07,0.01 0.15,0.01 0.22,0.01 -0.08,0 -0.14,0 -0.22,-0.01 m 0.37,0.01 c 0.09,0 0.16,0 0.25,0 -0.08,0 -0.17,0 -0.25,0 m 0.4,0 c 0.08,0 0.16,0 0.25,0 -0.08,0 -0.17,0 -0.25,0 m 0.39,0 c 0.08,0 0.16,0 0.25,0 -0.1,0 -0.16,0 -0.25,0 m 0.4,0 c 0.09,0 0.16,0 0.24,0 -0.08,0 -0.16,0 -0.24,0 m 0.39,0.01 c 0.08,0 0.16,0 0.25,0 -0.08,0 -0.17,0 -0.25,0 m 0.4,0 c 0.08,0 0.17,0 0.25,0 -0.08,0 -0.17,0 -0.25,0 m 0.38,0 c 0.08,0 0.19,0 0.28,0 -0.1,0 -0.19,0 -0.28,0 m 0.4,0.01 c 0.08,0 0.21,0 0.29,0 -0.09,0 -0.19,0 -0.29,0 m 0.39,0 c 0.4,0 0.77,0.01 1.18,0.01 -0.4,0 -0.79,-0.01 -1.18,-0.01 m 1.32,0.01 c 0.09,0.01 0.17,0.01 0.25,0.01 -0.07,0 -0.17,0 -0.25,-0.01 m 0.4,0.01 c 0.09,0 0.15,0 0.24,0 -0.08,0 -0.16,0 -0.24,0 m 0.4,0.01 c 0.09,0 0.15,0 0.23,0 -0.06,0 -0.16,0 -0.23,0 m 0.41,0 c 0.08,0 0.12,0 0.21,0 -0.08,0 -0.14,0 -0.21,0 m 0.39,0.01 c 0.08,0 0.14,0 0.22,0 -0.08,0 -0.15,0 -0.22,0 m 0.38,0 c 0.07,0.01 0.17,0.01 0.23,0.01 -0.07,0 -0.15,0 -0.23,-0.01 m 0.39,0.01 c 0.08,0 0.15,0 0.24,0 -0.08,0 -0.17,0 -0.24,0 m 0.4,0.01 c 0.07,0 0.13,0 0.2,0 -0.08,0 -0.12,0 -0.2,0 m 0.4,0.01 c 0.07,0 0.13,0 0.2,0 -0.07,0 -0.14,0 -0.2,0 m 0.39,0 c 0.07,0 0.13,0.01 0.2,0.01 -0.06,0 -0.14,-0.01 -0.2,-0.01 m 0.38,0.01 c 0.07,0 0.14,0 0.21,0.01 -0.08,-0.01 -0.13,-0.01 -0.21,-0.01 m 0.4,0.01 c 0.05,0 0.11,0 0.16,0 -0.04,0 -0.11,0 -0.16,0 m 0.39,0.01 c 0.05,0 0.09,0 0.14,0 -0.05,0 -0.09,0 -0.14,0 m 0.57,0.01 c 0.07,0 0.13,0 0.2,0.01 -0.06,-0.01 -0.14,-0.01 -0.2,-0.01 m 0.42,0.01 c 0.05,0 0.11,0 0.16,0 -0.05,0 -0.12,0 -0.16,0 m 0.41,0.01 c 0.05,0 0.08,0 0.13,0 -0.03,0 -0.1,0 -0.13,0 m 0.39,0.01 c 0.05,0 0.08,0 0.13,0 -0.05,0 -0.08,0 -0.13,0 m 0.37,0.01 c 0.05,0 0.1,0 0.15,0 -0.05,0 -0.11,0 -0.15,0 m 0.38,0.01 c 0.06,0 0.1,0 0.16,0 -0.05,0 -0.11,0 -0.16,0 m 0.39,0.01 c 0.05,0 0.1,0 0.15,0.01 -0.05,-0.01 -0.1,-0.01 -0.15,-0.01 m 0.4,0.01 c 0.03,0 0.1,0.01 0.13,0.01 -0.05,-0.01 -0.09,-0.01 -0.13,-0.01 m 0.37,0.01 c 0.05,0 0.11,0.01 0.16,0.01 -0.05,0 -0.11,-0.01 -0.16,-0.01 m 0.4,0.01 c 0.03,0.01 0.09,0.01 0.12,0.01 -0.04,0 -0.08,0 -0.12,-0.01 m 0.39,0.02 c 0.03,0 0.06,0 0.1,0 -0.05,0 -0.06,0 -0.1,0 m 0.39,0.01 h 0.05 c -0.02,0 -0.03,0 -0.05,0 m 0.37,0.01 c 0.04,0 0.06,0 0.09,0 -0.03,0 -0.06,0 -0.09,0 m 1.47,0.05 c 0.02,0 0.03,0 0.05,0 -0.01,0 -0.03,0 -0.05,0 m 0.41,0.02 c 0.02,0 0,0 0.01,0 h -0.01 m 0.35,0.01 c 0.01,0 0.03,0 0.05,0 -0.02,0 -0.04,0 -0.05,0 m 0.41,0.01 v 0 0 m 0.33,0.02 c 0.04,0 0.04,0 0.07,0 -0.03,0 -0.03,0 -0.07,0 m 0.38,0.01 c 0.02,0 0.05,0 0.07,0 -0.03,0 -0.04,0 -0.07,0 m 0.39,0.02 c 0.03,0 0.02,0 0.05,0 -0.03,0 -0.02,0 -0.05,0 m 0.38,0.01 c 0.02,0 0.03,0 0.05,0 -0.02,0 -0.03,0 -0.05,0 m 0.36,0.02 c 0.04,0 0.06,0 0.1,0 -0.04,0 -0.07,0 -0.1,0 m 0.38,0.01 c 0.04,0 0.05,0 0.08,0.01 -0.03,-0.01 -0.04,-0.01 -0.08,-0.01 m 0.4,0.02 h 0.02 -0.02"
         id="path610" /></clipPath><linearGradient
       x1="0"
       y1="0"
       x2="1"
       y2="0"
       gradientUnits="userSpaceOnUse"
       gradientTransform="matrix(792.646,0,0,-792.646,3453.88,1476.35)"
       spreadMethod="pad"
       id="linearGradient618"><stop
         style="stop-opacity:1;stop-color:#9c9c9b"
         offset="0"
         id="stop614" /><stop
         style="stop-opacity:1;stop-color:#c8c7c6"
         offset="1"
         id="stop616" /></linearGradient><clipPath
       clipPathUnits="userSpaceOnUse"
       id="clipPath628"><path
         d="m 3749.34,1078.62 v 0 c -33.83,0 -66.87,3.41 -98.81,9.81 l -196.65,194.73 514.84,590.92 277.46,-277.97 0.34,-70.45 c -25.7,-244.12 -227.03,-435.9 -475.34,-446.57 h -0.02 c -0.11,-0.01 -0.21,-0.01 -0.32,-0.01 -0.03,-0.01 -0.04,-0.01 -0.08,-0.01 -0.09,0 -0.19,-0.01 -0.28,-0.01 -0.04,0 -0.06,0 -0.1,0 -0.09,-0.01 -0.22,-0.01 -0.31,-0.02 -0.02,0 -0.03,0 -0.05,0 -0.11,0 -0.22,-0.01 -0.33,-0.01 -0.03,0 -0.02,0 -0.05,0 -0.1,-0.01 -0.23,-0.01 -0.32,-0.02 -0.02,0 -0.05,0 -0.07,0 -0.09,0 -0.21,-0.01 -0.31,-0.01 -0.03,0 -0.03,0 -0.07,0 -0.1,-0.01 -0.22,-0.01 -0.33,-0.02 v 0 c -0.12,0 -0.24,-0.01 -0.36,-0.01 -0.02,0 -0.04,0 -0.05,0 -0.11,-0.01 -0.23,-0.01 -0.34,-0.01 -0.01,0 0.01,0 -0.01,0 -0.12,-0.01 -0.23,-0.01 -0.36,-0.02 -0.02,0 -0.03,0 -0.05,0 -0.45,-0.01 -0.92,-0.03 -1.38,-0.05 -0.03,0 -0.05,0 -0.09,0 -0.11,0 -0.21,-0.01 -0.32,-0.01 h -0.05 c -0.09,0 -0.2,-0.01 -0.29,-0.01 -0.04,0 -0.07,0 -0.1,0 -0.08,-0.01 -0.19,-0.01 -0.27,-0.01 -0.03,0 -0.09,0 -0.12,-0.01 -0.08,0 -0.17,0 -0.24,0 -0.05,0 -0.11,-0.01 -0.16,-0.01 -0.08,0 -0.16,0 -0.24,0 -0.03,0 -0.1,-0.01 -0.13,-0.01 -0.1,0 -0.16,0 -0.25,0 -0.05,-0.01 -0.1,-0.01 -0.15,-0.01 -0.08,0 -0.16,0 -0.23,-0.01 -0.06,0 -0.1,0 -0.16,0 -0.07,0 -0.15,0 -0.23,-0.01 -0.05,0 -0.1,0 -0.15,0 -0.08,0 -0.16,0 -0.24,-0.01 -0.05,0 -0.08,0 -0.13,0 -0.09,0 -0.16,0 -0.26,-0.01 -0.05,0 -0.08,0 -0.13,0 -0.1,0 -0.16,0 -0.25,-0.01 -0.05,0 -0.11,0 -0.16,0 -0.08,0 -0.14,0 -0.22,0 -0.07,-0.01 -0.13,-0.01 -0.2,-0.01 -0.14,0 -0.29,-0.01 -0.43,-0.01 -0.05,0 -0.09,0 -0.14,0 -0.08,0 -0.15,-0.01 -0.23,-0.01 -0.05,0 -0.11,0 -0.16,0 -0.06,0 -0.13,0 -0.19,0 -0.07,-0.01 -0.14,-0.01 -0.21,-0.01 -0.06,0 -0.12,0 -0.18,0 -0.07,0 -0.13,-0.01 -0.2,-0.01 -0.06,0 -0.13,0 -0.19,0 -0.07,0 -0.13,0 -0.2,0 -0.06,-0.01 -0.14,-0.01 -0.2,-0.01 -0.07,0 -0.13,0 -0.2,0 -0.04,0 -0.12,0 -0.16,-0.01 -0.09,0 -0.16,0 -0.24,0 -0.07,0 -0.09,0 -0.16,0 -0.06,0 -0.16,0 -0.23,-0.01 -0.05,0 -0.11,0 -0.16,0 -0.08,0 -0.14,0 -0.22,0 -0.05,0 -0.14,0 -0.18,-0.01 -0.09,0 -0.13,0 -0.21,0 -0.07,0 -0.11,0 -0.18,0 -0.08,0 -0.14,0 -0.23,0 -0.06,-0.01 -0.1,-0.01 -0.16,-0.01 -0.09,0 -0.15,0 -0.24,0 -0.05,0 -0.1,0 -0.15,0 -0.08,0 -0.16,0 -0.25,-0.01 -0.06,0 -0.08,0 -0.14,0 -0.41,0 -0.78,-0.01 -1.18,-0.01 -0.03,0 -0.07,0 -0.1,0 -0.08,0 -0.21,0 -0.29,0 -0.03,-0.01 -0.09,-0.01 -0.12,-0.01 -0.09,0 -0.2,0 -0.28,0 -0.05,0 -0.08,0 -0.13,0 -0.08,0 -0.17,0 -0.25,0 -0.06,0 -0.09,0 -0.15,0 -0.09,0 -0.17,0 -0.25,0 -0.05,-0.01 -0.1,-0.01 -0.15,-0.01 -0.08,0 -0.15,0 -0.24,0 -0.05,0 -0.11,0 -0.15,0 -0.09,0 -0.17,0 -0.25,0 -0.05,0 -0.1,0 -0.14,0 -0.09,0 -0.17,0 -0.25,0 -0.05,0 -0.1,0 -0.15,0 -0.09,0 -0.16,0 -0.25,0 -0.04,0 -0.1,0 -0.15,0 -0.07,0 -0.15,0 -0.22,-0.01 -0.06,0 -0.12,0 -0.18,0 -0.07,0 -0.15,0 -0.22,0 -0.05,0 -0.12,0 -0.17,0 -0.07,0 -0.17,0 -0.24,0 -0.04,0 -0.1,0 -0.15,0 -0.08,0 -0.17,0 -0.25,0 -0.05,0 -0.1,0 -0.15,0 -0.13,0 -0.25,0 -0.38,0"
         id="path626" /></clipPath><linearGradient
       x1="0"
       y1="0"
       x2="1"
       y2="0"
       gradientUnits="userSpaceOnUse"
       gradientTransform="matrix(792.646,0,0,-792.646,3453.88,1476.35)"
       spreadMethod="pad"
       id="linearGradient634"><stop
         style="stop-opacity:1;stop-color:#996a1e"
         offset="0"
         id="stop630" /><stop
         style="stop-opacity:1;stop-color:#c4871b"
         offset="1"
         id="stop632" /></linearGradient><clipPath
       clipPathUnits="userSpaceOnUse"
       id="clipPath656"><path
         d="M 520.754,0.539063 313.555,204.559 686.445,795.398 999.531,481.23 C 989.891,220.699 781.023,11.1719 520.754,0.539063"
         id="path654" /></clipPath><linearGradient
       x1="0"
       y1="0"
       x2="1"
       y2="0"
       gradientUnits="userSpaceOnUse"
       gradientTransform="matrix(685.977,0,0,-685.977,313.555,397.97)"
       spreadMethod="pad"
       id="linearGradient662"><stop
         style="stop-opacity:1;stop-color:#4c848a"
         offset="0"
         id="stop658" /><stop
         style="stop-opacity:1;stop-color:#61a8ac"
         offset="1"
         id="stop660" /></linearGradient><clipPath
       clipPathUnits="userSpaceOnUse"
       id="clipPath686"><path
         d="m 1593.66,0.0117188 c -0.04,0 -0.09,0 -0.14,0 0.05,0 0.09,0 0.14,0 m 1.12,0 c 0.04,0 0.06,0 0.09,0 -0.03,0 -0.06,0 -0.09,0 m -1.59,0 c -0.05,0 -0.1,0 -0.15,0 0.05,0 0.1,0 0.15,0 m 2.32,0 c 0.03,0 0.07,0 0.1,0 -0.03,0 -0.07,0 -0.1,0 m -2.82,0 c -0.04,0 -0.07,0 -0.1,0 0.03,0 0.06,0 0.1,0 m 3.55,0 c 0.03,0 0.07,0 0.1,0 -0.03,0 -0.07,0 -0.1,0 m 0.74,0.0078125 c 0.02,0 0.05,0 0.07,0 -0.02,0 -0.05,0 -0.07,0 m -5.85,0 c -0.01,0 -0.02,0 -0.03,0 0.02,0 0.01,0 0.03,0 m 6.57,0 h 0.03 c -0.01,0 -0.02,0 -0.03,0 m 0.69,0.0117187 c 0.03,0 0.05,0 0.09,0 -0.03,0 -0.06,0 -0.09,0 m 0.72,0 c 0.04,0 0.07,0 0.1,0 -0.03,0 -0.07,0 -0.1,0 m 0.74,0.0078125 c 0.03,0 0.05,0 0.08,0 -0.03,0 -0.05,0 -0.08,0 m 1.45,0.0195313 c 0.01,0 0.01,0 0.03,0 h -0.03 m 0.7,0.0117187 c 0.02,0 0.05,0 0.06,0 -0.03,0 -0.03,0 -0.06,0 m 0.72,0.0117188 c 0.04,0 0.04,0 0.07,0 -0.03,0 -0.04,0 -0.07,0 m 2.9,0.0585937 h 0.01 -0.01"
         id="path684" /></clipPath><linearGradient
       x1="0"
       y1="0"
       x2="1"
       y2="0"
       gradientUnits="userSpaceOnUse"
       gradientTransform="matrix(795.273,0,0,-795.273,1290.95,380.53)"
       spreadMethod="pad"
       id="linearGradient692"><stop
         style="stop-opacity:1;stop-color:#9c9c9b"
         offset="0"
         id="stop688" /><stop
         style="stop-opacity:1;stop-color:#c8c7c6"
         offset="1"
         id="stop690" /></linearGradient><clipPath
       clipPathUnits="userSpaceOnUse"
       id="clipPath702"><path
         d="m 1594.12,0.0117188 v 0 c -0.15,0 -0.31,0 -0.46,0 -0.05,0 -0.09,0 -0.14,0 -0.11,0 -0.22,0 -0.33,0 -0.05,0 -0.1,0 -0.15,0 -0.11,0 -0.24,0 -0.35,0 -0.04,0 -0.07,0 -0.1,0 -0.49,0 -0.97,0 -1.46,0.0078125 -0.02,0 -0.01,0 -0.03,0 C 1549.44,0.261719 1509.01,5.62891 1470.35,15.4805 l -12.87,4.6406 -166.53,162.1289 286.87,250.52 160.49,328.261 347.91,-349.16 C 2045.21,181.461 1846.53,5.58203 1605.63,0.140625 h -0.01 c -0.94,-0.019531 -1.88,-0.039062 -2.83,-0.0585937 -0.03,0 -0.03,0 -0.07,0 -0.21,0 -0.45,-0.0117188 -0.66,-0.0117188 -0.01,0 -0.04,0 -0.06,0 -0.23,0 -0.45,-0.0117187 -0.67,-0.0117187 -0.02,0 -0.02,0 -0.03,0 -0.47,-0.0078125 -0.9,-0.0078125 -1.37,-0.0195313 -0.03,0 -0.05,0 -0.08,0 -0.21,0 -0.43,0 -0.64,-0.0078125 -0.03,0 -0.06,0 -0.1,0 -0.21,0 -0.42,0 -0.63,0 -0.04,0 -0.06,0 -0.09,0 -0.23,-0.0117187 -0.43,-0.0117187 -0.66,-0.0117187 h -0.03 c -0.21,0 -0.44,0 -0.65,0 -0.02,0 -0.05,0 -0.07,0 -0.22,0 -0.41,-0.0078125 -0.64,-0.0078125 -0.03,0 -0.07,0 -0.1,0 -0.21,0 -0.42,0 -0.63,0 -0.03,0 -0.07,0 -0.1,0 -0.21,0 -0.43,0 -0.64,0 -0.03,0 -0.05,0 -0.09,0 -0.22,0 -0.43,0 -0.66,0 v 0"
         id="path700" /></clipPath><linearGradient
       x1="0"
       y1="0"
       x2="1"
       y2="0"
       gradientUnits="userSpaceOnUse"
       gradientTransform="matrix(795.273,0,0,-795.273,1290.95,380.53)"
       spreadMethod="pad"
       id="linearGradient708"><stop
         style="stop-opacity:1;stop-color:#9d381e"
         offset="0"
         id="stop704" /><stop
         style="stop-opacity:1;stop-color:#c84520"
         offset="1"
         id="stop706" /></linearGradient><clipPath
       clipPathUnits="userSpaceOnUse"
       id="clipPath758"><path
         d="m 3739.9,0.242188 c -3.06,0.058593 -6.14,0.128906 -9.2,0.238281 L 3452.51,276.309 l 12,135.441 41.56,21.281 c -11.77,84.571 10.11,172.09 19.07,196.34 8.95,24.258 44.74,115.43 151.04,164.09 21.07,9.641 43.65,13.5 66.32,13.5 91.76,0 185,-63.289 185,-63.289 L 4244.57,431.719 C 4212.89,199.922 4022.43,18.8203 3786.36,1.51953 L 3739.9,0.242188"
         id="path756" /></clipPath><clipPath
       clipPathUnits="userSpaceOnUse"
       id="clipPath764"><path
         d="m 3452.51,0.242188 h 792.059 V 806.96119 H 3452.51 Z"
         id="path762" /></clipPath><linearGradient
       x1="0"
       y1="0"
       x2="1"
       y2="0"
       gradientUnits="userSpaceOnUse"
       gradientTransform="matrix(792.061,0,0,-792.061,3452.51,403.6)"
       spreadMethod="pad"
       id="linearGradient770"><stop
         style="stop-opacity:1;stop-color:#2f313a"
         offset="0"
         id="stop766" /><stop
         style="stop-opacity:1;stop-color:#3a3d4b"
         offset="1"
         id="stop768" /></linearGradient><clipPath
       clipPathUnits="userSpaceOnUse"
       id="clipPath794"><path
         d="m 1594.12,1078.62 c -0.16,0 -0.33,0 -0.49,0 0.17,0 0.32,0 0.49,0 0.14,0 0.26,0 0.4,0 -0.13,0 -0.27,0 -0.4,0 m 0.57,0 c 0.09,0 0.13,0 0.22,0 -0.07,0 -0.15,0 -0.22,0 m 0.42,0 c 0.05,0 0.14,0 0.19,0 -0.04,0 -0.14,0 -0.19,0 m 0.38,0 c 0.07,0 0.15,0 0.21,0 -0.08,0 -0.13,0 -0.21,0 m 0.39,0 c 0.06,0.01 0.16,0.01 0.23,0.01 -0.08,0 -0.15,0 -0.23,-0.01 m -3.78,0.01 c -0.01,0 -0.02,0 -0.03,0 0.02,0 0.01,0 0.03,0 m 4.17,0 c 0.07,0 0.16,0 0.23,0 -0.09,0 -0.15,0 -0.23,0 m 0.41,0 c 0.07,0 0.15,0 0.21,0 -0.06,0 -0.15,0 -0.21,0 m 0.38,0 c 0.09,0 0.15,0 0.23,0 -0.08,0 -0.14,0 -0.23,0 m 0.42,0 c 0.06,0 0.13,0 0.2,0 -0.08,0 -0.12,0 -0.2,0 m 0.4,0.01 c 0.06,0 0.12,0 0.19,0 -0.06,0 -0.13,0 -0.19,0 m 0.4,0 c 0.06,0 0.12,0 0.19,0 -0.07,0 -0.13,0 -0.19,0 m 0.38,0 c 0.07,0 0.14,0 0.21,0 -0.07,0 -0.14,0 -0.21,0 m 0.41,0.01 c 0.06,0 0.12,0 0.19,0 -0.07,0 -0.13,0 -0.19,0 m 0.39,0 c 0.06,0 0.13,0 0.19,0 -0.06,0 -0.13,0 -0.19,0 m 0.4,0 c 0.05,0 0.13,0.01 0.18,0.01 -0.05,0 -0.13,-0.01 -0.18,-0.01 m 0.39,0.01 c 0.07,0 0.11,0 0.17,0 -0.05,0 -0.12,0 -0.17,0 m 0.41,0 c 0.03,0 0.1,0.01 0.14,0.01 -0.05,-0.01 -0.09,-0.01 -0.14,-0.01 m 0.39,0.01 c 0.05,0 0.09,0 0.14,0 -0.05,0 -0.09,0 -0.14,0 m 0.4,0 c 0.03,0 0.08,0.01 0.12,0.01 -0.04,0 -0.09,-0.01 -0.12,-0.01 m 0.39,0.01 c 0.03,0 0.06,0 0.09,0 -0.03,0 -0.06,0 -0.09,0 m 0.4,0.01 v 0 0 m 0.38,0 h 0.01 -0.01 m 2.32,0.05 v 0 0 m 0.76,0.01 h 0.01 -0.01 m 0.38,0.01 c 0.02,0 0,0 0.02,0 h -0.02 m 0.38,0.01 h 0.03 -0.03 m -44.49,0.87 c -0.09,0 -0.18,0.01 -0.27,0.02 0.08,-0.01 0.19,-0.02 0.27,-0.02 m -0.36,0.02 c -6.27,0.4 -12.5,0.92 -18.7,1.55 h -0.01 c 6.2,-0.63 12.44,-1.15 18.71,-1.55"
         id="path792" /></clipPath><linearGradient
       x1="0"
       y1="0"
       x2="1"
       y2="0"
       gradientUnits="userSpaceOnUse"
       gradientTransform="matrix(832.383,0,0,-832.383,1260.4,1442.26)"
       spreadMethod="pad"
       id="linearGradient800"><stop
         style="stop-opacity:1;stop-color:#9c9c9b"
         offset="0"
         id="stop796" /><stop
         style="stop-opacity:1;stop-color:#c8c7c6"
         offset="1"
         id="stop798" /></linearGradient><clipPath
       clipPathUnits="userSpaceOnUse"
       id="clipPath810"><path
         d="m 1594.12,1078.62 c -0.17,0 -0.32,0 -0.49,0 -0.51,0 -1.02,0 -1.53,0.01 -0.02,0 -0.01,0 -0.03,0 -10.11,0.04 -20.14,0.38 -30.1,1.01 -0.08,0 -0.19,0.01 -0.27,0.02 -0.03,0 -0.06,0 -0.09,0 -6.27,0.4 -12.51,0.92 -18.71,1.55 l -14.47,4.05 -268.03,266.09 128.54,98.21 h 466.39 v 356.34 l 237.39,-239.9 0.06,-22.21 c -17.63,-255.81 -227.51,-458.74 -486.29,-465.02 h -0.03 c -0.13,0 -0.23,0 -0.36,-0.01 -0.02,0 0,0 -0.02,0 -0.13,0 -0.24,0 -0.37,-0.01 h -0.01 c -0.26,0 -0.5,-0.01 -0.76,-0.01 v 0 c -0.78,-0.02 -1.54,-0.03 -2.31,-0.05 h -0.01 c -0.12,0 -0.25,0 -0.38,0 v 0 c -0.1,-0.01 -0.21,-0.01 -0.31,-0.01 -0.03,0 -0.06,0 -0.09,0 -0.1,0 -0.18,0 -0.27,0 -0.04,0 -0.09,-0.01 -0.12,-0.01 -0.1,0 -0.17,0 -0.26,0 -0.05,0 -0.09,0 -0.14,0 -0.08,0 -0.17,0 -0.25,0 -0.04,0 -0.11,-0.01 -0.14,-0.01 -0.08,0 -0.16,0 -0.24,0 -0.06,0 -0.1,0 -0.17,0 -0.08,0 -0.13,0 -0.21,0 -0.05,0 -0.13,-0.01 -0.18,-0.01 -0.08,0 -0.13,0 -0.21,0 -0.06,0 -0.13,0 -0.19,0 -0.07,0 -0.14,0 -0.2,0 -0.07,0 -0.13,0 -0.19,0 -0.07,0 -0.14,-0.01 -0.2,-0.01 -0.07,0 -0.14,0 -0.21,0 -0.06,0 -0.13,0 -0.19,0 -0.07,0 -0.13,0 -0.19,0 -0.07,0 -0.14,0 -0.21,0 -0.07,0 -0.13,0 -0.19,0 -0.07,0 -0.14,-0.01 -0.2,-0.01 -0.07,0 -0.14,0 -0.2,0 -0.05,0 -0.14,0 -0.19,0 -0.08,0 -0.14,0 -0.23,0 -0.06,0 -0.1,0 -0.17,0 -0.06,0 -0.14,0 -0.21,0 -0.06,0 -0.12,0 -0.18,0 -0.07,0 -0.16,0 -0.23,0 -0.05,0 -0.12,0 -0.16,0 -0.07,0 -0.17,0 -0.23,-0.01 -0.05,0 -0.13,0 -0.18,0 -0.06,0 -0.14,0 -0.21,0 -0.06,0 -0.12,0 -0.19,0 -0.05,0 -0.14,0 -0.19,0 -0.08,0 -0.12,0 -0.2,0 -0.09,0 -0.13,0 -0.22,0 -0.06,0 -0.11,0 -0.17,0 -0.14,0 -0.26,0 -0.4,0"
         id="path808" /></clipPath><linearGradient
       x1="0"
       y1="0"
       x2="1"
       y2="0"
       gradientUnits="userSpaceOnUse"
       gradientTransform="matrix(832.383,0,0,-832.383,1260.4,1442.26)"
       spreadMethod="pad"
       id="linearGradient816"><stop
         style="stop-opacity:1;stop-color:#996a1e"
         offset="0"
         id="stop812" /><stop
         style="stop-opacity:1;stop-color:#c4871b"
         offset="1"
         id="stop814" /></linearGradient><clipPath
       clipPathUnits="userSpaceOnUse"
       id="clipPath810-1"><path
         d="m 1594.12,1078.62 c -0.17,0 -0.32,0 -0.49,0 -0.51,0 -1.02,0 -1.53,0.01 -0.02,0 -0.01,0 -0.03,0 -10.11,0.04 -20.14,0.38 -30.1,1.01 -0.08,0 -0.19,0.01 -0.27,0.02 -0.03,0 -0.06,0 -0.09,0 -6.27,0.4 -12.51,0.92 -18.71,1.55 l -14.47,4.05 -268.03,266.09 128.54,98.21 h 466.39 v 356.34 l 237.39,-239.9 0.06,-22.21 c -17.63,-255.81 -227.51,-458.74 -486.29,-465.02 h -0.03 c -0.13,0 -0.23,0 -0.36,-0.01 -0.02,0 0,0 -0.02,0 -0.13,0 -0.24,0 -0.37,-0.01 h -0.01 c -0.26,0 -0.5,-0.01 -0.76,-0.01 v 0 c -0.78,-0.02 -1.54,-0.03 -2.31,-0.05 h -0.01 c -0.12,0 -0.25,0 -0.38,0 v 0 c -0.1,-0.01 -0.21,-0.01 -0.31,-0.01 -0.03,0 -0.06,0 -0.09,0 -0.1,0 -0.18,0 -0.27,0 -0.04,0 -0.09,-0.01 -0.12,-0.01 -0.1,0 -0.17,0 -0.26,0 -0.05,0 -0.09,0 -0.14,0 -0.08,0 -0.17,0 -0.25,0 -0.04,0 -0.11,-0.01 -0.14,-0.01 -0.08,0 -0.16,0 -0.24,0 -0.06,0 -0.1,0 -0.17,0 -0.08,0 -0.13,0 -0.21,0 -0.05,0 -0.13,-0.01 -0.18,-0.01 -0.08,0 -0.13,0 -0.21,0 -0.06,0 -0.13,0 -0.19,0 -0.07,0 -0.14,0 -0.2,0 -0.07,0 -0.13,0 -0.19,0 -0.07,0 -0.14,-0.01 -0.2,-0.01 -0.07,0 -0.14,0 -0.21,0 -0.06,0 -0.13,0 -0.19,0 -0.07,0 -0.13,0 -0.19,0 -0.07,0 -0.14,0 -0.21,0 -0.07,0 -0.13,0 -0.19,0 -0.07,0 -0.14,-0.01 -0.2,-0.01 -0.07,0 -0.14,0 -0.2,0 -0.05,0 -0.14,0 -0.19,0 -0.08,0 -0.14,0 -0.23,0 -0.06,0 -0.1,0 -0.17,0 -0.06,0 -0.14,0 -0.21,0 -0.06,0 -0.12,0 -0.18,0 -0.07,0 -0.16,0 -0.23,0 -0.05,0 -0.12,0 -0.16,0 -0.07,0 -0.17,0 -0.23,-0.01 -0.05,0 -0.13,0 -0.18,0 -0.06,0 -0.14,0 -0.21,0 -0.06,0 -0.12,0 -0.19,0 -0.05,0 -0.14,0 -0.19,0 -0.08,0 -0.12,0 -0.2,0 -0.09,0 -0.13,0 -0.22,0 -0.06,0 -0.11,0 -0.17,0 -0.14,0 -0.26,0 -0.4,0"
         id="path808-6" /></clipPath></defs><sodipodi:namedview
     pagecolor="#ffffff"
     bordercolor="#666666"
     borderopacity="1"
     objecttolerance="10"
     gridtolerance="10"
     guidetolerance="10"
     inkscape:pageopacity="0"
     inkscape:pageshadow="2"
     inkscape:window-width="1920"
     inkscape:window-height="1001"
     id="namedview4"
     inkscape:document-rotation="0"
     showgrid="false"
     inkscape:zoom="3.3760864"
     inkscape:cx="65.775179"
     inkscape:cy="99.068067"
     inkscape:window-x="-9"
     inkscape:window-y="-9"
     inkscape:window-maximized="1"
     inkscape:current-layer="g10" /><g
     id="g10"
     inkscape:groupmode="layer"
     inkscape:label="ink_ext_XXXXXX"
     transform="matrix(1.3333333,0,0,-1.3333333,0,564.05333)"><path
       d="m 99.999747,372.43242 c 0,-27.44148 -22.386,-49.6896 -50,-49.6896 -27.615,0 -49.99999758388,22.24812 -49.99999758388,49.6896 0,27.44337 22.38499758388,49.68961 49.99999758388,49.68961 27.614,0 50,-22.24624 50,-49.68961"
       style="fill:#00d4aa;fill-opacity:1;fill-rule:nonzero;stroke:none;stroke-width:0.0996891"
       id="path160" /><g
       id="g162"
       transform="matrix(0.1,0,0,0.09937921,-217.63625,322.74282)"><g
         id="g164"
         clip-path="url(#clipPath168)"><path
           d="m 3176.24,488.852 v 0.007 -0.007 m 0.04,2.058 c 0,0.012 0,0.039 0,0.051 0,-0.031 0,-0.02 0,-0.051 m 0.01,0.699 c 0,0.02 0,0.039 0,0.063 0,-0.031 0,-0.031 0,-0.063 m 0.02,1.371 c 0,0.02 0,0.051 0,0.071 0,-0.031 0,-0.039 0,-0.071 m 0.01,0.7 c 0,0.039 0,0.05 0,0.09 0,-0.032 0,-0.059 0,-0.09 m 0.01,0.711 c 0,0.039 0,0.05 0,0.078 0,-0.028 0,-0.047 0,-0.078 m 0,0.699 v 0.031 c 0,-0.012 0,-0.019 0,-0.031 m 0.01,0.652 c 0,0.039 0,0.09 0,0.117 0,-0.039 0,-0.07 0,-0.117 m 0.01,0.727 c 0,0.031 0,0.062 0,0.09 0,-0.02 0,-0.059 0,-0.09 m 0,0.722 c 0,0.028 0,0.028 0,0.059 0,-0.02 0,-0.051 0,-0.059 m 0,0.661 c 0,0.019 0,0.058 0,0.078 0,-0.032 0,-0.051 0,-0.078 m 0.01,0.687 c 0,0.043 0,0.082 0,0.121 0,-0.031 0,-0.09 0,-0.121 m 0,0.723 c 0,0.039 0,0.07 0,0.097 0,-0.027 0,-0.07 0,-0.097"
           style="fill:url(#linearGradient174);fill-opacity:1;fill-rule:nonzero;stroke:none"
           id="path176" /></g></g><g
       id="g804"
       transform="matrix(0.1,0,0,0.1,-109.27925,215.00479)"
       style="display:inline;fill:#008066"><g
         id="g806"
         clip-path="url(#clipPath810-1)"
         style="fill:#008066"><path
           d="m 1594.12,1078.62 h -0.49 c -0.51,0 -1.02,0 -1.53,0.01 h -0.03 c -10.11,0.04 -20.14,0.38 -30.1,1.01 -0.08,0 -0.19,0.01 -0.27,0.02 h -0.09 c -6.27,0.4 -12.51,0.92 -18.71,1.55 l -14.47,4.05 -194.7203,192.7803 295.1531,-23.9729 226.4672,195.4926 21.8727,412.8203 L 2092.72,1566 l 0.06,-22.21 c -17.63,-255.81 -227.51,-458.74 -486.29,-465.02 h -0.03 c -0.13,0 -0.23,0 -0.36,-0.01 h -0.02 c -0.13,0 -0.24,0 -0.37,-0.01 h -0.01 c -0.26,0 -0.5,-0.01 -0.76,-0.01 v 0 c -0.78,-0.02 -1.54,-0.03 -2.31,-0.05 h -0.01 -0.38 v 0 c -0.1,-0.01 -0.21,-0.01 -0.31,-0.01 h -0.09 -0.27 c -0.04,0 -0.09,-0.01 -0.12,-0.01 h -0.26 -0.14 -0.25 c -0.04,0 -0.11,-0.01 -0.14,-0.01 h -0.24 -0.17 -0.21 c -0.05,0 -0.13,-0.01 -0.18,-0.01 h -0.21 -0.19 -0.2 -0.19 c -0.07,0 -0.14,-0.01 -0.2,-0.01 h -0.21 -0.19 -0.19 -0.21 -0.19 c -0.07,0 -0.14,-0.01 -0.2,-0.01 h -0.2 -0.19 -0.23 -0.17 -0.21 -0.18 -0.23 -0.16 c -0.07,0 -0.17,0 -0.23,-0.01 h -0.18 -0.21 -0.19 -0.19 -0.2 -0.22 -0.17 -0.4"
           style="fill:#008066;fill-opacity:1;fill-rule:nonzero;stroke:none"
           id="path818"
           sodipodi:nodetypes="cscsccccccccccccscscssscccsscssccssccsscccssccccsscccccccsccccccccc" /></g></g><path
       d="m 45.235056,400.90394 c -8.032324,-7.22436 -9.040637,-8.17939 -9.040637,-8.6107 0,-0.61615 0.512702,-1.09366 1.315934,-1.20149 0.358891,-0.0462 1.931176,-0.16944 3.52055,-0.26186 1.709005,-0.10783 2.854039,-0.24646 2.854039,-0.33888 0,-0.0924 -1.025403,-2.38758 -2.290067,-5.09864 -4.477593,-9.67355 -4.357963,-9.35007 -3.691451,-9.95082 0.205081,-0.18484 0.563972,-0.30807 0.905773,-0.30807 0.495611,0 1.401384,0.77019 10.33948,8.82634 9.382438,8.45665 9.792599,8.85715 9.741329,9.35007 -0.08545,0.8318 -0.563972,1.00124 -3.981982,1.46336 -1.691915,0.23105 -3.127479,0.46211 -3.195839,0.52372 -0.06836,0.0462 0.871592,2.83429 2.084986,6.1769 1.230483,3.34262 2.221706,6.26933 2.221706,6.50038 0,0.49292 -0.700692,1.04746 -1.315934,1.04746 -0.324711,0 -2.478057,-1.86386 -9.467887,-8.11777 z"
       id="path4"
       style="fill:#ffd42a;fill-opacity:1;stroke:url(#meshgradient986);stroke-width:0.016225" /><path
       d="m 16.609222,401.1658 c -0.717782,-0.26186 -0.751962,-0.69317 -0.717782,-6.70063 l 0.05127,-5.69938 3.161659,-0.0462 c 1.743185,-0.0308 4.802304,0 6.80184,0.0462 l 3.623091,0.10782 v 5.77641 5.7764 l -0.495612,0.44671 -0.495611,0.44671 -5.793527,-0.0154 c -3.178749,0 -5.930247,-0.0616 -6.135328,-0.13863 z"
       id="path6"
       style="fill:#ececec;fill-opacity:1;stroke:url(#meshgradient1000);stroke-width:0.016225" /><path
       d="m 66.324177,401.1658 c -0.20508,-0.077 -0.444341,-0.27727 -0.546881,-0.44671 -0.119631,-0.20025 -0.187991,-2.29516 -0.187991,-6.08448 v -5.7918 h 6.75057 6.75057 v 5.83801 c 0,5.51454 -0.01709,5.85343 -0.324711,6.19231 l -0.324711,0.36969 -5.878977,0.0308 c -3.21293,0.0154 -6.032788,-0.0308 -6.237869,-0.10782 z"
       id="path8"
       style="fill:#e6e6e6;fill-opacity:1;stroke:url(#meshgradient1014);stroke-width:0.016225" /><path
       d="m 15.85726,383.95982 c 0,-1.34012 -0.05127,-6.5928 -0.10254,-11.67603 -0.136721,-10.53616 -0.01709,-12.67728 0.820322,-15.78884 1.640645,-6.16149 5.485906,-11.81467 10.783821,-15.81964 3.862352,-2.91131 7.929784,-4.79056 12.817538,-5.89963 2.922398,-0.66236 4.853574,-0.8318 8.391214,-0.72398 6.220779,0.18485 11.245253,1.6174 16.252638,4.62113 6.357499,3.80472 11.057262,9.53491 13.227699,16.14312 1.333024,4.02037 1.418474,5.46832 1.281753,19.67057 l -0.11963,11.89169 h -6.80184 -6.80184 l -0.06836,-12.81591 -0.05127,-12.83132 -0.444341,-1.46335 c -1.657735,-5.54535 -6.237869,-9.53492 -12.783358,-11.13691 -1.726095,-0.4313 -3.48637,-0.61615 -5.639716,-0.60074 -5.144105,0.0154 -9.536248,1.61739 -12.646637,4.60571 -1.982446,1.87926 -3.076209,3.66609 -3.896532,6.36175 l -0.461431,1.46335 -0.05127,13.21641 -0.05127,13.20101 h -6.81893 -6.83602 z"
       id="path10"
       style="fill:#ff5555;fill-opacity:1;stroke:url(#meshgradient2966);stroke-width:0.016225" /></g></svg>
