<?xml version="1.0" standalone="no"?>
<!DOCTYPE svg PUBLIC "-//W3C//DTD SVG 20010904//EN"
 "http://www.w3.org/TR/2001/REC-SVG-20010904/DTD/svg10.dtd">
<svg version="1.0" xmlns="http://www.w3.org/2000/svg"
 width="450.000000pt" height="450.000000pt" viewBox="0 0 450.000000 450.000000"
 preserveAspectRatio="xMidYMid meet">
<metadata>
Created by potrace 1.16, written by Peter Selinger 2001-2019
</metadata>
<g transform="translate(0.000000,450.000000) scale(0.100000,-0.100000)"
fill="#000000" stroke="none">
<path d="M2045 4146 c-256 -49 -475 -166 -650 -347 -104 -107 -157 -182 -219
-306 -323 -646 7 -1438 694 -1667 715 -238 1463 228 1570 979 31 224 -11 478
-116 688 -66 132 -116 201 -228 313 -160 161 -334 262 -551 320 -85 22 -125
27 -265 30 -111 2 -188 -1 -235 -10z m302 -217 c83 -40 170 -148 224 -279 12
-30 25 -58 29 -63 3 -4 52 -2 107 4 267 30 433 -65 433 -249 0 -89 -67 -231
-163 -347 l-24 -29 53 -71 c78 -104 116 -193 122 -286 4 -70 2 -82 -23 -127
-30 -55 -75 -92 -145 -118 -49 -18 -225 -25 -311 -12 l-47 7 -17 -47 c-54
-145 -146 -269 -231 -312 -62 -31 -142 -33 -199 -5 -87 42 -182 166 -236 307
l-22 58 -41 -8 c-82 -14 -257 -8 -315 12 -68 23 -135 84 -157 142 -39 102 5
252 116 398 41 55 46 67 34 77 -8 7 -41 52 -74 101 -115 172 -130 315 -44 417
64 75 207 110 370 91 115 -13 124 -13 124 3 0 7 20 55 45 107 35 71 61 108
113 159 39 40 82 72 102 78 58 18 129 15 177 -8z"/>
<path d="M2201 3868 c-53 -15 -132 -103 -179 -201 -23 -47 -42 -91 -42 -99 0
-9 19 -19 48 -27 26 -6 86 -27 133 -45 l87 -32 87 33 c49 18 108 39 132 45 25
6 47 17 50 25 8 22 -70 173 -119 227 -42 49 -105 86 -143 85 -11 0 -35 -5 -54
-11z"/>
<path d="M1562 3502 c-165 -59 -170 -206 -14 -420 l46 -62 25 23 c128 114 126
112 123 144 -4 43 22 91 61 109 30 14 33 21 53 110 11 53 16 98 11 101 -5 3
-63 7 -130 9 -102 4 -131 2 -175 -14z"/>
<path d="M2661 3513 c-37 -5 -37 -2 -10 -135 12 -59 17 -69 41 -79 43 -18 68
-60 68 -113 0 -25 3 -46 8 -46 4 0 36 -28 71 -61 l63 -59 45 57 c160 206 156
379 -11 428 -47 14 -190 18 -275 8z"/>
<path d="M2448 3457 c-54 -17 -98 -33 -98 -36 0 -8 217 -131 230 -131 6 0 10
7 10 16 0 20 -31 156 -39 171 -4 8 -34 2 -103 -20z"/>
<path d="M1941 3443 c-23 -88 -31 -137 -23 -145 4 -4 59 21 121 56 94 54 109
66 94 74 -24 13 -151 52 -169 52 -7 0 -18 -17 -23 -37z"/>
<path d="M2133 3321 c-135 -71 -159 -89 -155 -118 5 -33 -26 -91 -58 -110 -37
-21 -44 -67 -34 -220 l7 -115 81 -52 c45 -29 103 -65 130 -80 47 -28 50 -28
83 -12 43 21 87 20 123 -1 27 -16 30 -15 91 19 35 19 96 55 135 80 l71 46 6
68 c4 38 7 108 7 156 l0 86 -33 21 c-41 25 -61 61 -60 106 1 33 -3 37 -75 78
-72 42 -198 107 -204 107 -2 0 -53 -27 -115 -59z m178 -162 c88 -30 143 -106
143 -199 0 -116 -86 -200 -204 -200 -118 0 -204 84 -204 200 0 142 134 242
265 199z"/>
<path d="M2159 3051 c-33 -33 -39 -45 -39 -82 0 -26 8 -57 20 -76 69 -114 240
-61 240 76 0 37 -6 49 -39 82 -35 35 -44 39 -91 39 -47 0 -56 -4 -91 -39z"/>
<path d="M1716 3029 l-67 -62 23 -24 c13 -14 49 -48 81 -75 l57 -50 0 136 c0
108 -3 136 -14 136 -7 0 -43 -28 -80 -61z"/>
<path d="M2697 3083 c-10 -9 -9 -253 1 -253 4 0 40 31 81 68 l74 67 -68 63
c-69 63 -76 67 -88 55z"/>
<path d="M1552 2850 c-136 -186 -144 -336 -19 -403 38 -20 56 -22 184 -22 78
0 144 3 148 7 6 5 -4 67 -41 264 -2 11 -36 48 -76 82 -40 33 -91 76 -113 95
l-40 35 -43 -58z"/>
<path d="M2854 2869 c-16 -17 -61 -58 -101 -90 -66 -55 -72 -63 -78 -107 -4
-26 -16 -89 -27 -140 -11 -52 -17 -96 -14 -99 12 -13 166 -21 227 -12 82 11
106 20 147 54 62 52 66 139 11 256 -35 74 -104 169 -122 169 -7 0 -26 -14 -43
-31z"/>
<path d="M2480 2594 c-58 -35 -106 -70 -108 -78 -2 -11 21 -22 82 -41 47 -14
90 -24 95 -21 4 3 12 20 15 38 24 110 33 168 27 167 -3 -1 -53 -30 -111 -65z"/>
<path d="M1910 2633 c0 -22 36 -172 42 -179 10 -9 178 49 178 62 0 8 -18 23
-41 34 -22 12 -70 39 -105 61 -35 21 -67 39 -69 39 -3 0 -5 -8 -5 -17z"/>
<path d="M2064 2405 l-91 -30 13 -38 c20 -57 81 -168 112 -203 109 -123 233
-110 332 35 37 55 106 199 98 206 -2 1 -44 15 -94 30 -88 26 -92 27 -118 10
-35 -23 -100 -23 -134 1 -27 19 -28 19 -118 -11z"/>
<path d="M1494 1331 c-94 -58 -108 -195 -29 -271 28 -27 44 -34 89 -38 29 -2
62 0 71 6 13 7 27 4 52 -11 29 -17 36 -18 44 -6 6 10 1 18 -16 27 -14 7 -25
14 -25 15 0 2 9 20 20 42 39 77 19 183 -42 228 -40 30 -124 34 -164 8z m139
-42 c48 -37 60 -134 23 -184 -12 -17 -17 -18 -41 -7 -35 16 -59 -1 -31 -21 16
-12 17 -15 3 -20 -30 -11 -87 13 -107 46 -36 58 -20 168 27 196 31 18 98 13
126 -10z"/>
<path d="M2543 1323 c-7 -2 -13 -17 -13 -33 0 -16 -7 -30 -15 -34 -8 -3 -15
-10 -15 -16 0 -5 7 -10 15 -10 12 0 15 -17 15 -89 0 -98 11 -121 55 -121 40 0
41 29 3 43 -15 5 -18 19 -18 83 0 67 2 76 20 81 11 3 20 12 20 19 0 8 -9 14
-20 14 -16 0 -20 7 -20 35 0 35 -3 38 -27 28z"/>
<path d="M1774 1245 c-3 -8 -4 -53 -3 -101 4 -76 7 -88 28 -105 28 -23 78 -25
109 -3 20 14 22 14 22 0 0 -9 7 -16 15 -16 13 0 15 20 15 121 0 109 -2 120
-17 117 -15 -3 -19 -18 -23 -91 -4 -73 -9 -91 -24 -103 -56 -40 -86 0 -86 113
0 68 -3 83 -15 83 -9 0 -18 -7 -21 -15z"/>
<path d="M2045 1235 c-14 -13 -25 -29 -25 -35 0 -17 29 -11 50 10 33 33 100
20 100 -20 0 -20 -7 -23 -83 -35 -70 -11 -100 -72 -57 -115 24 -24 79 -26 120
-5 25 13 29 13 34 0 3 -8 12 -15 20 -15 12 0 13 18 9 103 -6 122 -16 137 -95
137 -39 0 -54 -5 -73 -25z"/>
<path d="M2279 1233 c-1 -16 -1 -68 -1 -118 1 -73 4 -91 16 -93 13 -3 16 8 16
67 0 38 4 81 10 95 13 35 46 51 76 37 23 -10 24 -16 24 -101 0 -72 3 -92 15
-97 9 -3 18 -3 20 -1 3 3 5 49 6 104 1 90 -1 100 -21 116 -27 22 -78 23 -108
2 -20 -14 -22 -14 -22 0 0 29 -30 18 -31 -11z"/>
<path d="M2650 1160 c0 -87 3 -103 20 -120 24 -24 76 -26 107 -5 19 13 22 13
27 0 3 -8 12 -15 21 -15 13 0 15 19 15 120 0 111 -1 120 -19 120 -17 0 -19 -9
-23 -90 -3 -94 -8 -105 -49 -115 -46 -11 -59 14 -59 116 0 82 -1 89 -20 89
-19 0 -20 -7 -20 -100z"/>
<path d="M2900 1140 c0 -113 1 -120 20 -120 18 0 20 7 20 85 0 72 3 88 20 105
24 24 43 25 64 4 12 -12 16 -37 16 -105 0 -82 1 -89 20 -89 18 0 20 7 20 85 0
72 3 88 20 105 24 24 43 25 64 4 12 -12 16 -37 16 -105 0 -81 2 -90 18 -87 14
3 18 16 20 73 4 84 -4 129 -24 150 -19 19 -73 20 -100 1 -17 -12 -22 -12 -39
0 -22 16 -68 18 -95 4 -13 -7 -21 -7 -25 0 -3 5 -13 10 -21 10 -11 0 -14 -22
-14 -120z"/>
<path d="M1280 646 c0 -159 1 -166 20 -166 19 0 20 7 21 133 l1 132 45 -132
c63 -186 67 -185 144 42 l24 70 5 -120 c5 -112 6 -120 25 -120 19 0 20 7 20
160 l0 160 -29 0 c-29 0 -30 -3 -72 -129 -24 -71 -45 -131 -48 -133 -2 -2 -24
56 -48 129 -44 131 -45 133 -76 136 l-32 3 0 -165z"/>
<path d="M2124 797 c-2 -7 -3 -80 -2 -162 3 -133 5 -150 21 -153 15 -3 17 5
17 70 0 84 14 119 53 132 50 18 65 -18 66 -156 1 -36 5 -48 16 -48 12 0 15 18
15 105 0 100 -1 105 -25 121 -25 16 -70 16 -107 -1 -16 -6 -18 -1 -18 49 0 44
-3 56 -15 56 -9 0 -18 -6 -21 -13z"/>
<path d="M1669 691 c-26 -26 -29 -36 -29 -90 0 -79 25 -111 93 -118 51 -6 87
10 107 47 18 33 -16 38 -45 6 -13 -14 -33 -26 -43 -26 -27 0 -72 38 -72 61 0
17 8 19 85 19 84 0 85 0 85 25 0 34 -25 82 -49 95 -11 5 -38 10 -61 10 -33 0
-48 -6 -71 -29z"/>
<path d="M1924 697 c-52 -45 -42 -176 15 -207 39 -20 91 -12 123 20 16 17 28
36 25 43 -5 17 -37 21 -37 4 0 -20 -33 -47 -58 -47 -38 0 -62 34 -62 90 0 37
5 55 20 70 27 27 66 26 85 -4 11 -16 22 -22 35 -19 19 5 19 7 3 33 -27 47
-104 55 -149 17z"/>
<path d="M2395 695 c-14 -13 -25 -29 -25 -35 0 -17 29 -11 50 10 35 35 100 21
100 -22 0 -18 -8 -21 -83 -33 -68 -11 -99 -73 -57 -115 24 -24 79 -26 120 -5
25 13 29 13 34 0 3 -8 12 -15 19 -15 11 0 13 20 10 103 -6 122 -16 137 -95
137 -39 0 -54 -5 -73 -25z"/>
<path d="M2625 708 c-2 -7 -3 -60 -2 -118 2 -88 5 -105 18 -108 14 -2 17 11
21 84 4 76 8 89 27 106 28 22 41 23 66 4 15 -11 19 -29 21 -102 2 -71 6 -90
18 -92 14 -3 16 11 16 102 0 97 -2 106 -22 120 -12 9 -36 16 -53 16 -17 0 -41
-7 -53 -16 -20 -14 -22 -14 -22 0 0 19 -29 21 -35 4z"/>
<path d="M3002 695 c-55 -46 -52 -150 5 -195 37 -29 97 -27 128 5 28 27 33 65
10 65 -9 0 -20 -11 -25 -25 -19 -49 -91 -41 -111 13 -15 39 -1 100 27 118 30
20 70 11 79 -16 7 -22 13 -24 34 -11 10 7 11 13 2 29 -26 49 -102 57 -149 17z"/>
<path d="M3216 699 c-52 -41 -27 -87 64 -117 59 -19 69 -32 45 -56 -24 -23
-63 -20 -89 9 -28 30 -46 32 -46 6 0 -29 47 -61 89 -61 48 0 84 20 95 52 14
41 -12 73 -73 88 -59 14 -80 33 -61 55 18 22 67 19 82 -5 13 -21 33 -26 42
-11 3 5 -4 20 -15 35 -27 34 -93 37 -133 5z"/>
</g>
</svg>
