<?xml version="1.0" standalone="no"?>
<!DOCTYPE svg PUBLIC "-//W3C//DTD SVG 20010904//EN"
 "http://www.w3.org/TR/2001/REC-SVG-20010904/DTD/svg10.dtd">
<svg version="1.0" xmlns="http://www.w3.org/2000/svg"
 width="600.000000pt" height="300.000000pt" viewBox="0 0 600.000000 300.000000"
 preserveAspectRatio="xMidYMid meet">
<metadata>
Created by potrace 1.16, written by Peter Selinger 2001-2019
</metadata>
<g transform="translate(0.000000,300.000000) scale(0.100000,-0.100000)"
fill="#000000" stroke="none">
<path d="M0 1500 l0 -1500 3000 0 3000 0 0 1500 0 1500 -3000 0 -3000 0 0
-1500z m965 685 c33 -7 87 -23 118 -35 56 -21 57 -22 57 -61 0 -42 -11 -49
-45 -26 -67 45 -194 76 -315 76 -275 1 -430 -121 -430 -338 0 -96 22 -160 76
-220 76 -85 183 -122 354 -122 112 0 195 18 286 60 37 17 68 31 71 31 2 0 3
-19 1 -42 -3 -41 -4 -41 -64 -64 -329 -123 -687 -29 -774 204 -30 81 -36 172
-16 252 40 158 171 263 373 300 62 12 229 4 308 -15z m2238 14 c48 -6 125 -23
170 -38 l82 -28 3 -41 c2 -23 0 -42 -3 -42 -4 0 -35 13 -70 30 -99 47 -183 63
-315 58 -127 -5 -197 -25 -272 -75 -153 -103 -171 -380 -31 -502 82 -73 176
-101 334 -102 120 -1 203 17 293 62 33 16 61 29 63 29 2 0 3 -19 1 -42 l-3
-43 -65 -23 c-200 -72 -421 -68 -579 9 -158 78 -234 228 -209 412 21 154 133
271 308 321 98 27 166 31 293 15z m-1785 -401 l-3 -393 -32 -3 -33 -3 0 395 0
396 35 0 35 0 -2 -392z m843 374 c98 -32 149 -103 149 -206 0 -103 -56 -181
-145 -202 -16 -4 -33 -9 -37 -11 -4 -2 51 -79 122 -171 72 -92 130 -170 130
-174 0 -5 -18 -8 -40 -8 l-40 0 -127 170 -128 170 -192 0 -193 0 -2 -167 -3
-168 -35 0 -35 0 -3 393 -2 393 272 -4 c173 -2 286 -8 309 -15z m1479 -272 c0
-311 1 -320 52 -367 107 -100 429 -100 536 0 51 47 52 56 52 367 l0 290 41 0
40 0 -3 -298 c-3 -295 -3 -298 -28 -346 -49 -94 -153 -143 -326 -153 -171 -10
-299 25 -376 101 -62 60 -68 98 -68 418 l0 278 40 0 40 0 0 -290z m1048 -102
l-3 -393 -35 0 -35 0 -3 393 -2 392 40 0 40 0 -2 -392z m942 362 l0 -30 -180
0 -180 0 0 -365 0 -365 -35 0 -35 0 0 365 0 365 -180 0 -180 0 0 30 0 30 395
0 395 0 0 -30z m-2630 -975 l0 -115 323 0 c330 0 363 -4 336 -37 -9 -10 -79
-13 -335 -13 l-324 0 0 -115 0 -115 -45 0 -45 0 0 115 c0 63 -2 115 -4 115 -2
0 -97 -49 -210 -110 -113 -60 -208 -110 -211 -110 -3 0 -5 50 -5 110 l0 110
-335 0 -335 0 -44 87 -43 87 -98 -199 -97 -200 -98 200 -97 200 -98 -200 -97
-200 -98 200 -98 200 -97 -200 -97 -200 -56 113 -57 112 -221 0 c-187 0 -224
2 -234 15 -9 10 -10 19 -3 26 6 6 102 8 248 7 l239 -3 42 -85 41 -85 98 200
97 200 98 -200 98 -200 97 200 97 200 98 -200 98 -200 95 198 c53 108 98 197
101 197 2 0 28 -49 57 -110 l52 -110 324 0 323 0 0 110 c0 61 3 110 8 110 4 0
99 -50 212 -110 l205 -110 3 115 3 115 44 0 45 0 0 -115z m890 -80 l0 -195
183 -2 182 -3 3 -58 3 -57 -253 2 -253 3 -3 253 -2 252 70 0 70 0 0 -195z
m949 -56 c72 -139 131 -253 131 -255 0 -2 -34 -4 -75 -4 l-75 0 -25 50 -25 50
-138 0 -137 0 -25 -48 -25 -47 -72 -3 c-48 -2 -73 1 -73 8 0 6 57 121 128 255
l127 245 77 0 76 0 131 -251z m657 240 c62 -16 94 -56 94 -118 0 -55 -20 -87
-64 -107 -30 -13 -31 -13 -5 -14 14 0 41 -10 60 -23 27 -18 36 -32 43 -69 12
-61 -13 -114 -69 -142 -37 -19 -57 -21 -270 -21 l-230 0 -3 253 -2 252 200 0
c116 0 220 -5 246 -11z"/>
<path d="M1760 1965 l0 -157 223 4 c198 4 227 6 269 25 77 35 105 106 73 190
-15 38 -25 49 -64 67 -42 19 -66 21 -273 24 l-228 4 0 -157z"/>
<path d="M4686 1081 l-46 -91 89 0 90 0 -41 88 c-22 48 -41 89 -43 91 -2 1
-24 -38 -49 -88z"/>
<path d="M5290 1151 l0 -51 108 0 c141 0 186 23 149 75 -13 16 -31 19 -136 23
l-121 4 0 -51z"/>
<path d="M5290 950 l0 -50 134 0 c142 0 166 7 166 50 0 40 -36 50 -172 50
l-128 0 0 -50z"/>
</g>
</svg>
