<?xml version="1.0" encoding="UTF-8" standalone="no"?>
<svg
   xmlns:dc="http://purl.org/dc/elements/1.1/"
   xmlns:cc="http://creativecommons.org/ns#"
   xmlns:rdf="http://www.w3.org/1999/02/22-rdf-syntax-ns#"
   xmlns:svg="http://www.w3.org/2000/svg"
   xmlns="http://www.w3.org/2000/svg"
   xmlns:sodipodi="http://sodipodi.sourceforge.net/DTD/sodipodi-0.dtd"
   xmlns:inkscape="http://www.inkscape.org/namespaces/inkscape"
   viewBox="0 0 45.200001 45.400002"
   version="1.1"
   id="svg13"
   sodipodi:docname="c-programming.svg"
   width="45.200001"
   height="45.400002"
   inkscape:version="1.0.1 (3bc2e813f5, 2020-09-07)">
  <defs
     id="defs17" />
  <sodipodi:namedview
     pagecolor="#ffffff"
     bordercolor="#666666"
     borderopacity="1"
     objecttolerance="10"
     gridtolerance="10"
     guidetolerance="10"
     inkscape:pageopacity="0"
     inkscape:pageshadow="2"
     inkscape:window-width="1920"
     inkscape:window-height="1001"
     id="namedview15"
     showgrid="false"
     inkscape:zoom="17.291667"
     inkscape:cx="24"
     inkscape:cy="22.778342"
     inkscape:window-x="-9"
     inkscape:window-y="-9"
     inkscape:window-maximized="1"
     inkscape:current-layer="svg13" />
  <metadata
     id="metadata11">
    <rdf:RDF>
      <rdf:Description
         about="https://iconscout.com/legal#licenses"
         dc:title="c,programming"
         dc:description="c,programming"
         dc:publisher="Iconscout"
         dc:date="2017-12-15"
         dc:format="image/svg+xml"
         dc:language="en">
        <dc:creator>
          <rdf:Bag>
            <rdf:li>Icons8</rdf:li>
          </rdf:Bag>
        </dc:creator>
      </rdf:Description>
      <cc:Work
         rdf:about="">
        <dc:format>image/svg+xml</dc:format>
        <dc:type
           rdf:resource="http://purl.org/dc/dcmitype/StillImage" />
        <dc:title></dc:title>
      </cc:Work>
    </rdf:RDF>
  </metadata>
  <ellipse
     style="fill:#2c5aa0;stroke-width:1.05938"
     id="path842"
     cx="22.59"
     cy="22.756626"
     rx="22.576263"
     ry="22.698795" />
  <g
     id="surface1"
     fill-rule="evenodd"
     transform="matrix(1.0526291,0,0,0.95240975,-2.477602,-0.18795444)">
    <path
       d="m 22.902,3.285 a 2.262,2.262 0 0 1 2.196,0 c 3.351,1.883 13.449,7.55 16.804,9.434 A 2.125,2.125 0 0 1 43,14.566 v 18.868 c 0,0.761 -0.418,1.464 -1.098,1.847 l -16.804,9.434 a 2.262,2.262 0 0 1 -2.196,0 L 6.098,35.28 A 2.125,2.125 0 0 1 5,33.434 V 14.566 C 5,13.805 5.418,13.102 6.098,12.719 9.449,10.836 19.551,5.168 22.902,3.285 Z"
       fill="#283593"
       id="path2" />
    <path
       d="M 5.305,34.402 C 5.039,34.047 5,33.711 5,33.254 V 14.496 A 2.11,2.11 0 0 1 6.094,12.66 C 9.437,10.79 19.5,5.152 22.844,3.281 c 0.676,-0.379 1.593,-0.37 2.27,0.008 3.343,1.871 13.37,7.457 16.714,9.328 0.27,0.153 0.477,0.336 0.66,0.578 z"
       fill="#5c6bc0"
       id="path4" />
    <path
       d="m 24,10 c 7.727,0 14,6.273 14,14 0,7.727 -6.273,14 -14,14 -7.727,0 -14,-6.273 -14,-14 0,-7.727 6.273,-14 14,-14 z m 0,7 c 3.863,0 7,3.137 7,7 0,3.863 -3.137,7 -7,7 -3.863,0 -7,-3.137 -7,-7 0,-3.863 3.137,-7 7,-7 z"
       fill="#ffffff"
       id="path6" />
    <path
       d="m 42.484,13.203 c 0.516,0.485 0.508,1.211 0.508,1.785 0,3.797 -0.031,14.59 0.008,18.383 0.004,0.399 -0.129,0.816 -0.324,1.129 L 23.594,24 Z"
       fill="#3949ab"
       id="path8" />
  </g>
</svg>
