<?xml version="1.0" encoding="UTF-8" standalone="no"?>
<svg
   xmlns:dc="http://purl.org/dc/elements/1.1/"
   xmlns:cc="http://creativecommons.org/ns#"
   xmlns:rdf="http://www.w3.org/1999/02/22-rdf-syntax-ns#"
   xmlns:svg="http://www.w3.org/2000/svg"
   xmlns="http://www.w3.org/2000/svg"
   xmlns:sodipodi="http://sodipodi.sourceforge.net/DTD/sodipodi-0.dtd"
   xmlns:inkscape="http://www.inkscape.org/namespaces/inkscape"
   version="1.0"
   width="512.000000pt"
   height="512.000000pt"
   viewBox="0 0 512.000000 512.000000"
   preserveAspectRatio="xMidYMid meet"
   id="svg10"
   sodipodi:docname="desmos.svg"
   inkscape:version="1.0.1 (3bc2e813f5, 2020-09-07)">
  <defs
     id="defs14" />
  <sodipodi:namedview
     pagecolor="#ffffff"
     bordercolor="#666666"
     borderopacity="1"
     objecttolerance="10"
     gridtolerance="10"
     guidetolerance="10"
     inkscape:pageopacity="0"
     inkscape:pageshadow="2"
     inkscape:window-width="1920"
     inkscape:window-height="1001"
     id="namedview12"
     showgrid="false"
     inkscape:zoom="1.2158203"
     inkscape:cx="183.00402"
     inkscape:cy="341.33333"
     inkscape:window-x="-9"
     inkscape:window-y="-9"
     inkscape:window-maximized="1"
     inkscape:current-layer="svg10" />
  <metadata
     id="metadata2">
Created by potrace 1.16, written by Peter Selinger 2001-2019
<rdf:RDF>
  <cc:Work
     rdf:about="">
    <dc:format>image/svg+xml</dc:format>
    <dc:type
       rdf:resource="http://purl.org/dc/dcmitype/StillImage" />
  </cc:Work>
</rdf:RDF>
</metadata>
  <g
     transform="translate(0.000000,512.000000) scale(0.100000,-0.100000)"
     fill="#000000"
     stroke="none"
     id="g8"
     style="fill:#12783c;fill-opacity:1">
    <path
       d="M857 4718 c208 -789 494 -1628 726 -2136 l65 -142 -61 -58 c-34 -31 -91 -85 -128 -120 l-66 -62 -62 131 c-159 336 -390 945 -557 1468 -81 255 -251 838 -280 964 -20 87 -27 91 -96 56 -50 -26 -85 -62 -109 -114 -18 -38 -19 -95 -19 -1210 l0 -1171 197 -196 c287 -284 365 -334 508 -326 129 8 174 39 496 344 259 245 313 290 414 339 197 95 370 93 570 -7 111 -56 189 -120 415 -343 124 -122 247 -237 273 -254 89 -60 156 -85 227 -85 125 1 209 59 523 362 267 259 367 331 523 378 112 34 272 21 397 -31 16 -7 17 48 17 1076 0 1032 -1 1086 -19 1124 -40 88 -113 134 -226 142 l-72 6 -12 -49 c-32 -130 -151 -555 -218 -779 -203 -680 -435 -1298 -650 -1730 -92 -184 -214 -395 -236 -407 -41 -22 -154 26 -249 104 l-47 39 48 77 c298 477 628 1337 931 2428 44 157 80 293 80 300 0 12 -261 14 -1669 14 l-1669 0 35 -132z"
       id="path4"
       style="fill:#12783c;fill-opacity:1" />
    <path
       d="M2075 2207 c-84 -28 -146 -78 -373 -299 -128 -125 -269 -254 -313 -287 -148 -112 -289 -164 -439 -163 -189 1 -364 92 -587 306 l-93 88 0 -695 0 -695 28 -53 c33 -63 86 -103 155 -118 67 -15 4127 -15 4194 0 69 15 122 55 155 118 l28 53 0 827 0 826 -48 32 c-94 62 -111 68 -207 68 -85 0 -93 -2 -156 -37 -77 -44 -133 -93 -359 -318 -306 -305 -472 -402 -685 -401 -113 0 -186 19 -300 76 -120 60 -223 146 -440 365 -179 181 -263 253 -340 293 -50 25 -163 32 -220 14z m-104 -299 c113 -152 256 -280 370 -332 127 -58 256 -41 405 54 20 12 27 9 80 -37 62 -53 173 -128 205 -138 10 -4 19 -10 19 -14 0 -17 -159 -126 -235 -162 -119 -56 -192 -73 -320 -73 -124 -1 -208 20 -326 79 -135 69 -325 237 -453 403 l-46 61 117 115 c65 64 121 116 124 116 3 0 30 -32 60 -72z"
       id="path6"
       style="fill:#12783c;fill-opacity:1" />
  </g>
</svg>
