<?xml version="1.0" standalone="no"?>
<!DOCTYPE svg PUBLIC "-//W3C//DTD SVG 20010904//EN"
 "http://www.w3.org/TR/2001/REC-SVG-20010904/DTD/svg10.dtd">
<svg version="1.0" xmlns="http://www.w3.org/2000/svg"
 width="640.000000pt" height="640.000000pt" viewBox="0 0 640.000000 640.000000"
 preserveAspectRatio="xMidYMid meet">
<metadata>
Created by potrace 1.16, written by Peter Selinger 2001-2019
</metadata>
<g transform="translate(0.000000,640.000000) scale(0.100000,-0.100000)"
fill="#000000" stroke="none">
<path d="M3069 5103 c-470 -469 -529 -531 -529 -559 0 -40 30 -71 77 -78 21
-3 113 -11 206 -17 100 -7 167 -16 167 -22 0 -6 -60 -155 -134 -331 -262 -628
-255 -607 -216 -646 12 -12 33 -20 53 -20 29 0 82 50 605 573 549 549 573 575
570 607 -5 54 -33 65 -233 95 -99 15 -183 30 -187 34 -4 3 51 184 122 401 72
217 130 407 130 422 0 32 -41 68 -77 68 -19 0 -145 -121 -554 -527z"/>
<path d="M1394 5120 c-42 -17 -44 -45 -42 -435 l3 -370 185 -3 c102 -2 281 0
398 3 l212 7 0 375 0 375 -29 29 -29 29 -339 -1 c-186 0 -347 -4 -359 -9z"/>
<path d="M4303 5120 c-12 -5 -26 -18 -32 -29 -7 -13 -11 -149 -11 -395 l0
-376 395 0 395 0 0 379 c0 358 -1 380 -19 402 l-19 24 -344 2 c-188 1 -353 -2
-365 -7z"/>
<path d="M1350 4003 c0 -87 -3 -428 -6 -758 -8 -684 -1 -823 48 -1025 96 -400
321 -767 631 -1027 226 -189 464 -311 750 -383 171 -43 284 -54 491 -47 364
12 658 105 951 300 372 247 647 619 774 1048 78 261 83 355 75 1277 l-7 772
-398 0 -398 0 -4 -832 -3 -833 -26 -95 c-97 -360 -365 -619 -748 -723 -101
-28 -204 -40 -330 -39 -301 1 -558 105 -740 299 -116 122 -180 238 -228 413
l-27 95 -3 858 -3 857 -399 0 -400 0 0 -157z"/>
</g>
</svg>
