<?xml version="1.0" encoding="UTF-8" standalone="no"?>
<svg
   xmlns:dc="http://purl.org/dc/elements/1.1/"
   xmlns:cc="http://creativecommons.org/ns#"
   xmlns:rdf="http://www.w3.org/1999/02/22-rdf-syntax-ns#"
   xmlns:svg="http://www.w3.org/2000/svg"
   xmlns="http://www.w3.org/2000/svg"
   xmlns:xlink="http://www.w3.org/1999/xlink"
   xmlns:sodipodi="http://sodipodi.sourceforge.net/DTD/sodipodi-0.dtd"
   xmlns:inkscape="http://www.inkscape.org/namespaces/inkscape"
   version="1.1"
   id="svg2"
   xml:space="preserve"
   width="133.33299"
   height="133.33299"
   viewBox="0 0 133.33299 133.33299"
   sodipodi:docname="semi.svg"
   inkscape:version="1.0.1 (3bc2e813f5, 2020-09-07)"><metadata
     id="metadata8"><rdf:RDF><cc:Work
         rdf:about=""><dc:format>image/svg+xml</dc:format><dc:type
           rdf:resource="http://purl.org/dc/dcmitype/StillImage" /><dc:title /></cc:Work></rdf:RDF></metadata><defs
     id="defs6"><clipPath
       clipPathUnits="userSpaceOnUse"
       id="clipPath22"><path
         d="m 2676.36,3230.34 v 0 0 c 0.13,0 0.26,0 0.39,0 -0.13,0 -0.26,0 -0.39,0 m -0.43,0 c -0.01,0 -0.02,0 -0.04,0 0.02,0 0.03,0 0.04,0 m 0.99,0 c 0.08,0 0.14,0 0.23,0 -0.07,0 -0.17,0 -0.23,0 m 0.41,0 c 0.07,0 0.15,0 0.21,0 -0.06,0 -0.14,0 -0.21,0 m 0.4,0 c 0.06,0 0.14,0 0.21,0 -0.08,0 -0.13,0 -0.21,0 m 0.4,0 c 0.06,0 0.14,0 0.21,0 -0.07,0 -0.15,0 -0.21,0 m 0.39,0 c 0.06,0.01 0.14,0.01 0.21,0.01 -0.06,0 -0.15,0 -0.21,-0.01 m 0.39,0.01 c 0.07,0 0.16,0 0.23,0 -0.07,0 -0.16,0 -0.23,0 m 0.39,0 c 0.08,0 0.15,0 0.23,0 -0.08,0 -0.15,0 -0.23,0 m 0.4,0 c 0.09,0 0.14,0 0.23,0 -0.08,0 -0.15,0 -0.23,0 m 0.39,0.01 c 0.09,0 0.15,0 0.24,0 -0.08,0 -0.16,0 -0.24,0 m 0.4,0 c 0.07,0 0.17,0 0.23,0 -0.08,0 -0.15,0 -0.23,0 m 0.4,0 c 0.06,0 0.16,0 0.23,0 -0.07,0 -0.17,0 -0.23,0 m 0.4,0 c 0.07,0.01 0.15,0.01 0.22,0.01 -0.07,0 -0.16,0 -0.22,-0.01 m 0.4,0.01 c 0.07,0 0.14,0 0.21,0 -0.08,0 -0.13,0 -0.21,0 m 0.4,0 c 0.08,0.01 0.12,0.01 0.2,0.01 -0.08,0 -0.12,0 -0.2,-0.01 m 0.39,0.01 c 0.07,0 0.13,0 0.2,0 -0.07,0 -0.13,0 -0.2,0 m 0.41,0 c 0.07,0 0.1,0 0.17,0 -0.06,0 -0.11,0 -0.17,0 m 0.39,0.01 c 0.05,0 0.11,0 0.16,0 -0.05,0 -0.11,0 -0.16,0 m 0.41,0 c 0.05,0 0.07,0 0.12,0 -0.03,0 -0.09,0 -0.12,0 m 0.38,0.01 c 0.05,0 0.09,0 0.14,0 -0.04,0 -0.1,0 -0.14,0 m 0.4,0.01 c 0.04,0 0.06,0 0.09,0 -0.03,0 -0.05,0 -0.09,0 m 0.39,0 c 0.05,0 0.07,0 0.12,0 -0.04,0 -0.09,0 -0.12,0 m 1.53,0.03 h 0.02 -0.02 m 0.4,0.01 h 0.01 -0.01 m 0.32,0 c 0.03,0 0.05,0.01 0.09,0.01 -0.04,0 -0.06,-0.01 -0.09,-0.01 m 0.39,0.01 c 0.04,0 0.05,0 0.08,0 -0.01,0 -0.06,0 -0.08,0 m 0.38,0.01 c 0.03,0 0.07,0 0.1,0 -0.05,0 -0.05,0 -0.1,0 m 0.38,0.01 c 0.04,0 0.07,0 0.11,0 -0.05,0 -0.06,0 -0.11,0 m 0.39,0.01 c 0.04,0 0.08,0 0.11,0 -0.03,0 -0.08,0 -0.11,0 m 0.41,0.01 c 0.02,0 0.06,0 0.08,0 -0.04,0 -0.05,0 -0.08,0 m 0.4,0.01 c 0.01,0 0.05,0 0.06,0 -0.03,0 -0.03,0 -0.06,0 m 0.39,0.01 c 0.02,0 0.04,0 0.06,0 -0.04,0 -0.03,0 -0.06,0 m 0.38,0.01 c 0.03,0 0.04,0 0.07,0 -0.03,0 -0.04,0 -0.07,0 m 0.39,0.01 c 0.02,0 0.05,0 0.06,0 -0.03,0 -0.03,0 -0.06,0 m 0.4,0.01 c 0.01,0 0.02,0 0.04,0 -0.02,0 -0.03,0 -0.04,0 m 0.39,0.01 h 0.03 -0.03 m 0.38,0.01 c 0.02,0 0.03,0 0.05,0 -0.02,0 -0.03,0 -0.05,0"
         id="path20" /></clipPath><linearGradient
       x1="0"
       y1="0"
       x2="1"
       y2="0"
       gradientUnits="userSpaceOnUse"
       gradientTransform="matrix(439.981,-439.981,-439.981,-439.981,2556.64,3783.56)"
       spreadMethod="pad"
       id="linearGradient28"><stop
         style="stop-opacity:1;stop-color:#9c9c9b"
         offset="0"
         id="stop24" /><stop
         style="stop-opacity:1;stop-color:#c8c7c6"
         offset="1"
         id="stop26" /></linearGradient><clipPath
       clipPathUnits="userSpaceOnUse"
       id="clipPath38"><path
         d="m 2676.36,3230.34 v 0 c -0.14,0 -0.29,0 -0.43,0 -0.01,0 -0.02,0 -0.04,0 -36.43,0.04 -71.9,4.08 -106.11,11.5 l -171.49,169 278.21,124.64 145.68,513.63 352.88,-353.1 c -17.32,-255.02 -225.71,-457.6 -483.22,-465.44 -0.02,0 -0.03,0 -0.05,0 -0.13,0 -0.22,0 -0.35,-0.01 h -0.03 c -0.11,0 -0.24,-0.01 -0.35,-0.01 -0.02,0 -0.03,0 -0.04,0 -0.11,0 -0.22,0 -0.34,-0.01 -0.01,0 -0.04,0 -0.06,0 -0.1,0 -0.22,0 -0.32,-0.01 -0.03,0 -0.04,0 -0.07,0 -0.1,0 -0.23,-0.01 -0.32,-0.01 -0.02,0 -0.04,0 -0.06,0 -0.1,0 -0.23,-0.01 -0.33,-0.01 -0.01,0 -0.05,0 -0.06,0 -0.1,0 -0.23,-0.01 -0.32,-0.01 -0.02,0 -0.06,0 -0.08,0 -0.1,0 -0.2,-0.01 -0.3,-0.01 -0.03,0 -0.07,0 -0.11,0 -0.09,-0.01 -0.19,-0.01 -0.28,-0.01 -0.04,0 -0.07,0 -0.11,0 -0.08,0 -0.2,0 -0.28,-0.01 -0.03,0 -0.07,0 -0.1,0 -0.1,0 -0.2,-0.01 -0.3,-0.01 -0.03,0 -0.04,0 -0.08,0 -0.11,0 -0.19,0 -0.3,0 -0.04,0 -0.06,-0.01 -0.09,-0.01 -0.1,0 -0.22,0 -0.31,0 h -0.01 c -0.13,0 -0.25,-0.01 -0.38,-0.01 h -0.02 c -0.48,-0.01 -0.93,-0.02 -1.41,-0.03 -0.05,0 -0.07,0 -0.12,0 -0.1,0 -0.2,0 -0.3,0 -0.03,0 -0.05,0 -0.09,0 -0.09,-0.01 -0.17,-0.01 -0.26,-0.01 -0.05,0 -0.09,0 -0.14,0 -0.09,0 -0.16,-0.01 -0.26,-0.01 -0.05,0 -0.07,0 -0.12,0 -0.1,0 -0.15,0 -0.25,0 -0.05,0 -0.11,0 -0.16,0 -0.06,0 -0.15,0 -0.22,-0.01 -0.07,0 -0.1,0 -0.17,0 -0.06,0 -0.15,0 -0.21,0 -0.07,0 -0.13,0 -0.2,0 -0.06,0 -0.12,0 -0.19,0 -0.08,0 -0.12,0 -0.2,-0.01 -0.05,0 -0.14,0 -0.19,0 -0.07,0 -0.14,0 -0.21,0 -0.07,0 -0.12,0 -0.18,0 -0.07,0 -0.15,0 -0.22,-0.01 -0.06,0 -0.11,0 -0.17,0 -0.07,0 -0.17,0 -0.23,0 -0.07,0 -0.1,0 -0.17,0 -0.06,0 -0.16,0 -0.23,0 -0.05,0 -0.12,0 -0.16,0 -0.09,0 -0.15,0 -0.24,0 -0.05,0 -0.11,-0.01 -0.16,-0.01 -0.09,0 -0.14,0 -0.23,0 -0.04,0 -0.12,0 -0.17,0 -0.08,0 -0.15,0 -0.23,0 -0.07,0 -0.1,0 -0.16,0 -0.07,0 -0.16,0 -0.23,0 -0.06,0 -0.11,0 -0.18,0 -0.07,0 -0.15,0 -0.21,-0.01 -0.07,0 -0.12,0 -0.18,0 -0.07,0 -0.15,0 -0.21,0 -0.07,0 -0.13,0 -0.19,0 -0.07,0 -0.15,0 -0.21,0 -0.07,0 -0.12,0 -0.19,0 -0.06,0 -0.14,0 -0.21,0 -0.06,0 -0.12,0 -0.18,0 -0.09,0 -0.15,0 -0.23,0 -0.07,0 -0.1,0 -0.17,0 -0.13,0 -0.26,0 -0.39,0"
         id="path36" /></clipPath><linearGradient
       x1="0"
       y1="0"
       x2="1"
       y2="0"
       gradientUnits="userSpaceOnUse"
       gradientTransform="matrix(439.981,-439.981,-439.981,-439.981,2556.64,3783.56)"
       spreadMethod="pad"
       id="linearGradient44"><stop
         style="stop-opacity:1;stop-color:#4c848a"
         offset="0"
         id="stop40" /><stop
         style="stop-opacity:1;stop-color:#61a8ac"
         offset="1"
         id="stop42" /></linearGradient><clipPath
       clipPathUnits="userSpaceOnUse"
       id="clipPath70"><path
         d="M 523.691,3230.97 279.063,3474.48 720.957,4019.93 999.805,3738 c 0.031,-1.59 0.117,-3.17 0.129,-4.76 v -5.79 C 998.563,3487.72 828.547,3287.98 602.473,3240.89 l -78.782,-9.92"
         id="path68" /></clipPath><linearGradient
       x1="0"
       y1="0"
       x2="1"
       y2="0"
       gradientUnits="userSpaceOnUse"
       gradientTransform="matrix(720.869,0,0,-720.869,279.063,3625.45)"
       spreadMethod="pad"
       id="linearGradient76"><stop
         style="stop-opacity:1;stop-color:#9d381e"
         offset="0"
         id="stop72" /><stop
         style="stop-opacity:1;stop-color:#c84520"
         offset="1"
         id="stop74" /></linearGradient><clipPath
       clipPathUnits="userSpaceOnUse"
       id="clipPath128"><path
         d="m 2775.48,1088.48 -186.09,185.31 219.81,562.24 356.51,-360.29 c -40.75,-194.82 -194.87,-347.97 -390.23,-387.26"
         id="path126" /></clipPath><linearGradient
       x1="0"
       y1="0"
       x2="1"
       y2="0"
       gradientUnits="userSpaceOnUse"
       gradientTransform="matrix(576.318,0,0,-576.318,2589.39,1462.25)"
       spreadMethod="pad"
       id="linearGradient134"><stop
         style="stop-opacity:1;stop-color:#9d381e"
         offset="0"
         id="stop130" /><stop
         style="stop-opacity:1;stop-color:#c84520"
         offset="1"
         id="stop132" /></linearGradient><clipPath
       clipPathUnits="userSpaceOnUse"
       id="clipPath168"><path
         d="m 3176.24,488.852 v 0.007 -0.007 m 0.04,2.058 c 0,0.012 0,0.039 0,0.051 0,-0.031 0,-0.02 0,-0.051 m 0.01,0.699 c 0,0.02 0,0.039 0,0.063 0,-0.031 0,-0.031 0,-0.063 m 0.02,1.371 c 0,0.02 0,0.051 0,0.071 0,-0.031 0,-0.039 0,-0.071 m 0.01,0.7 c 0,0.039 0,0.05 0,0.09 0,-0.032 0,-0.059 0,-0.09 m 0.01,0.711 c 0,0.039 0,0.05 0,0.078 0,-0.028 0,-0.047 0,-0.078 m 0,0.699 v 0.031 c 0,-0.012 0,-0.019 0,-0.031 m 0.01,0.652 c 0,0.039 0,0.09 0,0.117 0,-0.039 0,-0.07 0,-0.117 m 0.01,0.727 c 0,0.031 0,0.062 0,0.09 0,-0.02 0,-0.059 0,-0.09 m 0,0.722 c 0,0.028 0,0.028 0,0.059 0,-0.02 0,-0.051 0,-0.059 m 0,0.661 c 0,0.019 0,0.058 0,0.078 0,-0.032 0,-0.051 0,-0.078 m 0.01,0.687 c 0,0.043 0,0.082 0,0.121 0,-0.031 0,-0.09 0,-0.121 m 0,0.723 c 0,0.039 0,0.07 0,0.097 0,-0.027 0,-0.07 0,-0.097"
         id="path166" /></clipPath><linearGradient
       x1="0"
       y1="0"
       x2="1"
       y2="0"
       gradientUnits="userSpaceOnUse"
       gradientTransform="matrix(810.82,0,0,-810.82,2365.54,367.61)"
       spreadMethod="pad"
       id="linearGradient174"><stop
         style="stop-opacity:1;stop-color:#9c9c9b"
         offset="0"
         id="stop170" /><stop
         style="stop-opacity:1;stop-color:#c8c7c6"
         offset="1"
         id="stop172" /></linearGradient><clipPath
       clipPathUnits="userSpaceOnUse"
       id="clipPath184"><path
         d="M 2683.06,0.171875 2446.77,235.039 v 21.191 l -81.23,81.461 h 285.08 v -53.902 h 57.6 v 53.902 h 285.08 v 397.348 l 179.93,-179.648 c 2.01,-18.18 3.13,-36.661 3.13,-55.391 v 0 c 0,-0.219 0,-0.418 0,-0.641 0,-0.027 0,-0.058 0,-0.097 0,-0.203 0,-0.403 0,-0.602 0,-0.039 0,-0.078 0,-0.121 -0.01,-0.199 -0.01,-0.41 -0.01,-0.609 0,-0.02 0,-0.059 0,-0.078 0,-0.204 0,-0.403 0,-0.602 0,-0.031 0,-0.031 0,-0.059 0,-0.222 0,-0.41 0,-0.632 0,-0.028 0,-0.059 0,-0.09 -0.01,-0.207 -0.01,-0.41 -0.01,-0.61 0,-0.027 0,-0.078 0,-0.117 0,-0.203 0,-0.41 -0.01,-0.621 v -0.031 c 0,-0.211 0,-0.418 0,-0.621 0,-0.028 0,-0.039 0,-0.078 -0.01,-0.2 -0.01,-0.422 -0.01,-0.621 0,-0.04 0,-0.051 0,-0.09 0,-0.2 -0.01,-0.43 -0.01,-0.629 0,-0.02 0,-0.051 0,-0.071 -0.01,-0.429 -0.01,-0.878 -0.02,-1.308 0,-0.024 0,-0.043 0,-0.063 0,-0.199 -0.01,-0.437 -0.01,-0.648 0,-0.012 0,-0.039 0,-0.051 -0.02,-0.68 -0.03,-1.371 -0.04,-2.051 v -0.007 C 3171.13,255.359 3005.9,61.4414 2786.03,12.2188 L 2685.08,0.230469 2683.06,0.171875"
         id="path182" /></clipPath><linearGradient
       x1="0"
       y1="0"
       x2="1"
       y2="0"
       gradientUnits="userSpaceOnUse"
       gradientTransform="matrix(810.82,0,0,-810.82,2365.54,367.61)"
       spreadMethod="pad"
       id="linearGradient190"><stop
         style="stop-opacity:1;stop-color:#996a1e"
         offset="0"
         id="stop186" /><stop
         style="stop-opacity:1;stop-color:#c4871b"
         offset="1"
         id="stop188" /></linearGradient><clipPath
       clipPathUnits="userSpaceOnUse"
       id="clipPath234"><path
         d="m 589.211,2161.84 -373.41,375.87 14.453,59.86 v 158.93 l -30.652,32.57 h 600.8 l 193.907,-199 0.398,-8.83 C 965.723,2381.79 819.055,2220.52 627.355,2170.17 l -34.66,-7.71 c -1.164,-0.22 -2.324,-0.41 -3.484,-0.62"
         id="path232" /></clipPath><linearGradient
       x1="0"
       y1="0"
       x2="1"
       y2="0"
       gradientUnits="userSpaceOnUse"
       gradientTransform="matrix(795.107,0,0,-795.107,199.6,2475.46)"
       spreadMethod="pad"
       id="linearGradient240"><stop
         style="stop-opacity:1;stop-color:#996a1e"
         offset="0"
         id="stop236" /><stop
         style="stop-opacity:1;stop-color:#c4871b"
         offset="1"
         id="stop238" /></linearGradient><clipPath
       clipPathUnits="userSpaceOnUse"
       id="clipPath264"><path
         d="m 2677.13,2153.75 c 0.01,0 0.01,0 0.03,0 -0.02,0 -0.02,0 -0.03,0 m 0.3,0 c 0.05,0 0.08,0 0.13,0 -0.03,0 -0.09,0 -0.13,0 m 0.35,0 c 0.07,0 0.12,0 0.18,0 -0.06,0 -0.12,0 -0.18,0 m 0.37,0 c 0.07,0 0.15,0 0.22,0 -0.07,0 -0.15,0 -0.22,0 m 0.4,0 c 0.08,0 0.13,0 0.22,0 -0.07,0 -0.15,0 -0.22,0 m 0.4,0 c 0.09,0.01 0.14,0.01 0.22,0.01 -0.07,0 -0.15,0 -0.22,-0.01 m 0.39,0.01 c 0.08,0 0.15,0 0.23,0 -0.07,0 -0.17,0 -0.23,0 m 0.46,0 c 0.05,0 0.11,0 0.17,0 -0.05,0 -0.12,0 -0.17,0 m 0.39,0 c 0.05,0 0.13,0 0.18,0 -0.05,0 -0.13,0 -0.18,0 m 0.38,0.01 c 0.07,0 0.14,0 0.2,0 -0.06,0 -0.13,0 -0.2,0 m 0.4,0 c 0.06,0 0.14,0 0.21,0 -0.09,0 -0.13,0 -0.21,0 m 0.41,0 c 0.05,0 0.14,0 0.19,0 -0.06,0 -0.12,0 -0.19,0 m 0.41,0.01 c 0.05,0 0.13,0 0.18,0 -0.06,0 -0.12,0 -0.18,0 m 0.42,0 c 0.05,0 0.11,0 0.16,0 -0.07,0 -0.09,0 -0.16,0 m 0.4,0.01 c 0.05,0 0.11,0 0.16,0 -0.07,0 -0.09,0 -0.16,0 m 0.41,0 c 0.05,0 0.1,0 0.15,0 -0.05,0 -0.1,0 -0.15,0 m 0.4,0.01 c 0.05,0 0.1,0 0.15,0 -0.05,0 -0.1,0 -0.15,0 m 0.42,0 c 0.05,0 0.07,0 0.12,0 -0.05,0 -0.07,0 -0.12,0 m 0.39,0.01 c 0.05,0 0.09,0 0.14,0 -0.05,0 -0.09,0 -0.14,0 m 0.39,0.01 c 0.05,0 0.1,0 0.15,0 -0.05,0 -0.1,0 -0.15,0 m 0.39,0 c 0.05,0 0.11,0 0.16,0 -0.05,0 -0.11,0 -0.16,0 m 0.42,0.01 c 0.03,0 0.1,0 0.13,0 -0.05,0 -0.08,0 -0.13,0 m 0.4,0.01 c 0.03,0 0.1,0 0.13,0 -0.05,0 -0.08,0 -0.13,0 m 0.41,0 c 0.04,0 0.08,0.01 0.12,0.01 -0.05,0 -0.07,-0.01 -0.12,-0.01 m 0.4,0.01 c 0.03,0 0.08,0 0.12,0 -0.05,0 -0.08,0 -0.12,0 m 0.4,0.01 c 0.03,0 0.08,0 0.11,0 -0.05,0 -0.06,0 -0.11,0 m 0.4,0.01 c 0.03,0 0.08,0 0.11,0 -0.05,0 -0.06,0 -0.11,0 m 0.41,0.01 c 0.04,0 0.06,0 0.09,0 -0.03,0 -0.06,0 -0.09,0 m 0.39,0.01 c 0.03,0 0.08,0 0.11,0 -0.03,0 -0.08,0 -0.11,0 m 0.39,0.01 c 0.05,0 0.07,0 0.12,0 -0.05,0 -0.07,0 -0.12,0 m 0.4,0.01 c 0.05,0 0.07,0 0.12,0 -0.05,0 -0.08,0 -0.12,0 m 0.4,0.01 c 0.05,0 0.07,0 0.12,0 -0.04,0 -0.08,0 -0.12,0 m 0.4,0.01 c 0.04,0 0.07,0 0.11,0 -0.04,0 -0.07,0 -0.11,0 m 0.41,0.01 c 0.02,0 0.08,0 0.09,0 -0.03,0 -0.05,0 -0.09,0 m 0.4,0.01 c 0.03,0 0.06,0 0.09,0 -0.03,0 -0.06,0 -0.09,0 m 0.41,0.01 c 0.02,0 0.05,0 0.07,0 -0.04,0 -0.04,0 -0.07,0 m 0.4,0.01 c 0.03,0 0.03,0 0.07,0 -0.04,0 -0.04,0 -0.07,0 m 0.4,0.01 c 0.02,0 0.04,0 0.06,0.01 -0.03,-0.01 -0.03,-0.01 -0.06,-0.01 m 0.39,0.02 c 0.04,0 0.03,0 0.07,0 -0.04,0 -0.03,0 -0.07,0 m 0.42,0.01 h 0.02 -0.02 m 0.39,0.01 c 0.02,0 0.02,0 0.04,0 h -0.04 m 0.41,0.01 0.02,0.01 -0.02,-0.01 m 0.38,0.02 c 0.02,0 0.02,0 0.04,0 h -0.04 m 0.42,0.01 v 0 0"
         id="path262" /></clipPath><linearGradient
       x1="0"
       y1="0"
       x2="1"
       y2="0"
       gradientUnits="userSpaceOnUse"
       gradientTransform="matrix(802.949,0,0,-802.949,2373.14,2507.76)"
       spreadMethod="pad"
       id="linearGradient270"><stop
         style="stop-opacity:1;stop-color:#9c9c9b"
         offset="0"
         id="stop266" /><stop
         style="stop-opacity:1;stop-color:#c8c7c6"
         offset="1"
         id="stop268" /></linearGradient><clipPath
       clipPathUnits="userSpaceOnUse"
       id="clipPath280"><path
         d="m 2676.36,2153.75 v 0 c -9.49,0 -18.9,0.32 -28.25,0.84 l -274.97,274.46 591.01,432.73 211.94,-218.31 c -5.37,-265.42 -217.4,-480.1 -481.83,-489.41 v 0 c -0.14,0 -0.25,-0.01 -0.38,-0.01 -0.02,0 -0.02,0 -0.04,0 -0.13,-0.01 -0.23,-0.01 -0.36,-0.01 l -0.02,-0.01 c -0.14,0 -0.24,0 -0.37,-0.01 -0.02,0 -0.02,0 -0.04,0 -0.13,0 -0.23,-0.01 -0.37,-0.01 h -0.02 c -0.11,0 -0.24,-0.01 -0.35,-0.01 -0.04,0 -0.03,0 -0.07,0 -0.1,-0.01 -0.23,-0.01 -0.33,-0.01 -0.02,-0.01 -0.04,-0.01 -0.06,-0.01 -0.1,0 -0.23,0 -0.33,-0.01 -0.04,0 -0.04,0 -0.07,0 -0.1,0 -0.23,-0.01 -0.33,-0.01 -0.02,0 -0.05,0 -0.07,0 -0.1,0 -0.22,-0.01 -0.32,-0.01 -0.03,0 -0.06,0 -0.09,0 -0.1,0 -0.21,-0.01 -0.31,-0.01 -0.01,0 -0.07,0 -0.09,0 -0.1,-0.01 -0.2,-0.01 -0.3,-0.01 -0.04,0 -0.07,0 -0.11,0 -0.09,-0.01 -0.19,-0.01 -0.28,-0.01 -0.05,0 -0.07,0 -0.12,0 -0.09,-0.01 -0.18,-0.01 -0.28,-0.01 -0.05,0 -0.07,0 -0.12,0 -0.09,-0.01 -0.19,-0.01 -0.28,-0.01 -0.05,0 -0.07,0 -0.12,0 -0.08,-0.01 -0.2,-0.01 -0.28,-0.01 -0.03,0 -0.08,0 -0.11,0 -0.1,-0.01 -0.2,-0.01 -0.3,-0.01 -0.03,0 -0.05,0 -0.09,0 -0.1,0 -0.2,-0.01 -0.3,-0.01 -0.03,0 -0.08,0 -0.11,0 -0.09,0 -0.2,-0.01 -0.29,-0.01 -0.03,0 -0.08,0 -0.11,0 -0.08,0 -0.2,0 -0.28,-0.01 -0.04,0 -0.09,0 -0.12,0 -0.09,0 -0.2,0 -0.28,0 -0.04,0 -0.08,-0.01 -0.12,-0.01 -0.08,0 -0.2,0 -0.28,0 -0.03,0 -0.1,0 -0.13,0 -0.09,-0.01 -0.19,-0.01 -0.27,-0.01 -0.03,0 -0.1,0 -0.13,0 -0.08,0 -0.18,0 -0.26,-0.01 -0.05,0 -0.11,0 -0.16,0 -0.08,0 -0.16,0 -0.24,0 -0.05,0 -0.1,0 -0.15,0 -0.08,-0.01 -0.17,-0.01 -0.25,-0.01 -0.05,0 -0.09,0 -0.14,0 -0.09,0 -0.19,0 -0.27,-0.01 -0.05,0 -0.07,0 -0.12,0 -0.08,0 -0.19,0 -0.27,0 -0.05,0 -0.1,0 -0.15,0 -0.08,0 -0.17,-0.01 -0.25,-0.01 -0.05,0 -0.1,0 -0.15,0 -0.08,0 -0.17,0 -0.25,0 -0.05,0 -0.11,0 -0.16,0 -0.07,0 -0.18,-0.01 -0.24,-0.01 -0.05,0 -0.11,0 -0.16,0 -0.07,0 -0.17,0 -0.24,0 -0.05,0 -0.13,0 -0.18,0 -0.07,0 -0.15,0 -0.22,-0.01 -0.05,0 -0.14,0 -0.19,0 -0.06,0 -0.14,0 -0.2,0 -0.07,0 -0.15,0 -0.21,0 -0.05,0 -0.15,0 -0.2,0 -0.06,0 -0.13,0 -0.2,0 -0.08,-0.01 -0.11,-0.01 -0.2,-0.01 -0.05,0 -0.13,0 -0.18,0 -0.09,0 -0.14,0 -0.22,0 -0.06,0 -0.12,0 -0.17,0 -0.09,0 -0.15,0 -0.23,0 -0.08,0 -0.15,0 -0.23,0 -0.07,0 -0.1,0 -0.17,0 -0.08,0 -0.13,0 -0.22,-0.01 -0.06,0 -0.12,0 -0.18,0 -0.09,0 -0.14,0 -0.22,0 -0.07,0 -0.12,0 -0.18,0 -0.07,0 -0.15,0 -0.22,0 -0.06,0 -0.12,0 -0.19,0 -0.06,0 -0.11,0 -0.18,0 -0.07,0 -0.15,0 -0.22,0 -0.05,0 -0.08,0 -0.13,0 -0.1,0 -0.17,0 -0.27,0 -0.02,0 -0.02,0 -0.03,0 -0.25,0 -0.52,0 -0.77,0 v 0"
         id="path278" /></clipPath><linearGradient
       x1="0"
       y1="0"
       x2="1"
       y2="0"
       gradientUnits="userSpaceOnUse"
       gradientTransform="matrix(802.949,0,0,-802.949,2373.14,2507.76)"
       spreadMethod="pad"
       id="linearGradient286"><stop
         style="stop-opacity:1;stop-color:#2f313a"
         offset="0"
         id="stop282" /><stop
         style="stop-opacity:1;stop-color:#3a3d4b"
         offset="1"
         id="stop284" /></linearGradient><clipPath
       clipPathUnits="userSpaceOnUse"
       id="clipPath318"><path
         d="m 1738.72,2175.07 h -2.89 l -309.39,311.23 164.93,270.2 10,147.25 26.51,-27.41 73.38,23.62 374.57,-374.89 0.23,-4.48 c -45.56,-165.23 -173.71,-296.16 -337.34,-345.52"
         id="path316" /></clipPath><linearGradient
       x1="0"
       y1="0"
       x2="1"
       y2="0"
       gradientUnits="userSpaceOnUse"
       gradientTransform="matrix(649.619,0,0,-649.619,1426.44,2539.41)"
       spreadMethod="pad"
       id="linearGradient324"><stop
         style="stop-opacity:1;stop-color:#4c848a"
         offset="0"
         id="stop320" /><stop
         style="stop-opacity:1;stop-color:#61a8ac"
         offset="1"
         id="stop322" /></linearGradient><clipPath
       clipPathUnits="userSpaceOnUse"
       id="clipPath346"><path
         d="m 2094.01,3719.65 c 0,0.01 0,0.01 0,0.03 v -0.03 m 0.01,0.71 c 0,0.02 0,0.02 0,0.03 v -0.03 m 0.03,1.41 c 0,0.02 0,0.02 0,0.04 0,-0.01 0,-0.02 0,-0.04 m 0.01,0.7 c 0,0.01 0,0.05 0,0.07 0,-0.03 0,-0.04 0,-0.07 m 0.01,0.72 c 0,0.03 0,0.04 0,0.07 0,-0.03 0,-0.04 0,-0.07 m 0.01,0.74 v 0.01 -0.01 m 0.01,0.68 c 0,0.02 0,0.03 0,0.05 0,-0.02 0,-0.03 0,-0.05 m 0.01,0.69 c 0,0.04 0,0.06 0,0.09 0,-0.03 0,-0.05 0,-0.09 m 0,0.72 c 0,0.03 0,0.07 0,0.1 0,-0.03 0,-0.07 0,-0.1 m 0.01,0.74 c 0,0.02 0,0.04 0,0.06 0,-0.02 0,-0.04 0,-0.06 m 0,0.7 c 0,0.02 0,0.02 0,0.04 0,-0.01 0,-0.02 0,-0.04 m 0.01,0.68 c 0,0.04 0,0.07 0,0.11 0,-0.04 0,-0.08 0,-0.11 m 0,0.73 c 0,0.03 0,0.07 0,0.11 0,-0.03 0,-0.09 0,-0.11 m 0,0.73 c 0,0.03 0,0.06 0,0.09 0,-0.03 0,-0.06 0,-0.09"
         id="path344" /></clipPath><linearGradient
       x1="0"
       y1="0"
       x2="1"
       y2="0"
       gradientUnits="userSpaceOnUse"
       gradientTransform="matrix(631.24,0,0,-631.24,1462.88,3642.63)"
       spreadMethod="pad"
       id="linearGradient352"><stop
         style="stop-opacity:1;stop-color:#9c9c9b"
         offset="0"
         id="stop348" /><stop
         style="stop-opacity:1;stop-color:#c8c7c6"
         offset="1"
         id="stop350" /></linearGradient><clipPath
       clipPathUnits="userSpaceOnUse"
       id="clipPath362"><path
         d="m 1689.16,3239.48 -226.28,226.95 80.35,285.34 -17.87,82.48 -61.6,211.52 147.11,-146.73 214.93,146.73 266.21,-270.53 c 1.32,-14.8 2.11,-29.75 2.11,-44.9 v 0 c 0,-0.22 0,-0.43 0,-0.65 0,-0.03 0,-0.06 0,-0.09 0,-0.21 0,-0.42 0,-0.62 0,-0.04 0,-0.08 0,-0.11 0,-0.21 0,-0.42 0,-0.62 0,-0.04 0,-0.07 0,-0.11 0,-0.22 -0.01,-0.42 -0.01,-0.64 0,-0.02 0,-0.02 0,-0.04 0,-0.2 0,-0.44 0,-0.64 0,-0.02 0,-0.04 0,-0.06 0,-0.22 0,-0.42 -0.01,-0.64 0,-0.03 0,-0.07 0,-0.1 0,-0.21 0,-0.42 0,-0.63 0,-0.03 0,-0.05 0,-0.09 -0.01,-0.22 -0.01,-0.42 -0.01,-0.64 0,-0.02 0,-0.03 0,-0.05 0,-0.22 -0.01,-0.45 -0.01,-0.67 v -0.01 c 0,-0.22 0,-0.45 -0.01,-0.67 0,-0.03 0,-0.04 0,-0.07 0,-0.21 -0.01,-0.44 -0.01,-0.65 0,-0.02 0,-0.06 0,-0.07 0,-0.22 -0.01,-0.43 -0.01,-0.66 0,-0.02 0,-0.02 0,-0.04 -0.01,-0.46 -0.02,-0.92 -0.03,-1.38 0,-0.01 0,-0.01 0,-0.03 0,-0.23 -0.01,-0.44 -0.01,-0.68 0,-0.02 0,-0.02 0,-0.03 -5.01,-238.86 -177.56,-436.41 -404.85,-480.17"
         id="path360" /></clipPath><linearGradient
       x1="0"
       y1="0"
       x2="1"
       y2="0"
       gradientUnits="userSpaceOnUse"
       gradientTransform="matrix(631.24,0,0,-631.24,1462.88,3642.63)"
       spreadMethod="pad"
       id="linearGradient368"><stop
         style="stop-opacity:1;stop-color:#2f313a"
         offset="0"
         id="stop364" /><stop
         style="stop-opacity:1;stop-color:#3a3d4b"
         offset="1"
         id="stop366" /></linearGradient><clipPath
       clipPathUnits="userSpaceOnUse"
       id="clipPath394"><path
         d="m 3749.34,3230.35 v 0 0 c 0.13,0 0.25,0 0.39,0 -0.13,0 -0.27,0 -0.39,0 m 0.54,0 c 0.08,0 0.16,0 0.25,0 -0.08,0 -0.17,0 -0.25,0 m 0.4,0 c 0.07,0 0.18,0 0.24,0 -0.08,0 -0.16,0 -0.24,0 m 0.41,0 c 0.06,0 0.16,0 0.23,0 -0.08,0 -0.15,0 -0.23,0 m 0.39,0 c 0.07,0 0.17,0 0.24,0 -0.08,0 -0.16,0 -0.24,0 m 0.39,0 c 0.09,0 0.16,0 0.24,0 -0.08,0 -0.16,0 -0.24,0 m 0.41,0 c 0.09,0 0.15,0 0.23,0 -0.08,0 -0.15,0 -0.23,0 m 0.39,0.01 c 0.09,0 0.15,0 0.23,0 -0.08,0 -0.15,0 -0.23,0 m 0.42,0 c 0.06,0 0.13,0 0.2,0 -0.08,0 -0.12,0 -0.2,0 m 0.39,0 c 0.07,0 0.14,0 0.21,0 -0.07,0 -0.15,0 -0.21,0 m 0.4,0 c 0.06,0 0.14,0 0.2,0 -0.06,0 -0.14,0 -0.2,0 m 0.39,0.01 c 0.06,0 0.14,0 0.2,0 -0.06,0 -0.14,0 -0.2,0 m 0.41,0 c 0.05,0 0.12,0 0.17,0 -0.06,0 -0.11,0 -0.17,0 m 0.39,0.01 c 0.05,0 0.13,0 0.18,0 -0.05,0 -0.13,0 -0.18,0 m 0.39,0 c 0.07,0 0.12,0 0.19,0 -0.07,0 -0.12,0 -0.19,0 m 0.39,0 c 0.07,0 0.11,0 0.18,0 -0.06,0 -0.11,0 -0.18,0 m 0.41,0.01 c 0.05,0 0.09,0 0.14,0 -0.05,0 -0.09,0 -0.14,0 m 0.39,0 c 0.05,0 0.08,0 0.13,0 -0.03,0 -0.1,0 -0.13,0 m 0.4,0.01 c 0.02,0 0.06,0 0.08,0 -0.02,0 -0.06,0 -0.08,0 m 0.39,0 c 0.01,0 0.05,0 0.06,0.01 -0.01,-0.01 -0.05,-0.01 -0.06,-0.01 m 1.5,0.03 c 0.01,0 0.03,0 0.04,0 -0.01,0 -0.03,0 -0.04,0 m 0.76,0.01 c 0.03,0 0.03,0 0.06,0.01 -0.01,0 -0.05,-0.01 -0.06,-0.01 m 0.38,0.01 c 0.02,0 0.05,0 0.07,0 -0.02,0 -0.05,0 -0.07,0 m 0.38,0.01 c 0.01,0 0.06,0 0.08,0 -0.02,0 -0.07,0 -0.08,0 m 0.39,0.01 c 0.04,0 0.04,0 0.07,0 -0.01,0 -0.05,0 -0.07,0 m 0.38,0.01 c 0.03,0 0.06,0 0.09,0 -0.03,0 -0.06,0 -0.09,0 m 0.38,0 c 0.02,0 0.08,0 0.1,0 -0.04,0 -0.06,0 -0.1,0 m 0.39,0.01 c 0.04,0.01 0.06,0.01 0.1,0.01 -0.04,0 -0.07,0 -0.1,-0.01 m 0.41,0.01 c 0.02,0 0.04,0 0.05,0 -0.03,0 -0.02,0 -0.05,0 m 0.39,0.01 c 0.02,0 0.03,0.01 0.04,0.01 l -0.04,-0.01 m 0.39,0.01 c 0.02,0 0.02,0 0.04,0 h -0.04 m 0.39,0.02 h 0.02 -0.02"
         id="path392" /></clipPath><linearGradient
       x1="0"
       y1="0"
       x2="1"
       y2="0"
       gradientUnits="userSpaceOnUse"
       gradientTransform="matrix(783.486,0,0,-783.486,3464.31,3619.31)"
       spreadMethod="pad"
       id="linearGradient400"><stop
         style="stop-opacity:1;stop-color:#9c9c9b"
         offset="0"
         id="stop396" /><stop
         style="stop-opacity:1;stop-color:#c8c7c6"
         offset="1"
         id="stop398" /></linearGradient><clipPath
       clipPathUnits="userSpaceOnUse"
       id="clipPath410"><path
         d="m 3749.34,3230.35 v 0 c -13.8,0 -27.44,0.71 -40.95,1.8 l -244.08,248.14 544.1,527.98 239.01,-235.58 0.15,-1.87 0.22,-77.93 c -18.83,-254.08 -227.38,-455.36 -484.59,-462.35 h -0.02 c -0.13,-0.01 -0.23,-0.01 -0.35,-0.02 -0.02,0 -0.02,0 -0.04,0 -0.13,0 -0.22,0 -0.35,0 -0.01,0 -0.02,-0.01 -0.04,-0.01 -0.11,0 -0.23,0 -0.34,-0.01 -0.01,0 -0.03,0 -0.05,0 -0.1,0 -0.22,0 -0.31,0 -0.04,0 -0.06,0 -0.1,-0.01 -0.09,0 -0.2,0 -0.29,-0.01 -0.02,0 -0.08,0 -0.1,0 -0.09,0 -0.19,0 -0.29,0 -0.03,0 -0.06,0 -0.09,0 -0.11,-0.01 -0.19,-0.01 -0.31,-0.01 -0.03,0 -0.03,0 -0.07,0 -0.11,-0.01 -0.2,-0.01 -0.31,-0.01 -0.02,0 -0.07,0 -0.08,0 -0.12,0 -0.2,-0.01 -0.31,-0.01 -0.02,0 -0.05,0 -0.07,0 -0.11,0 -0.21,0 -0.32,0 -0.03,-0.01 -0.03,-0.01 -0.06,-0.01 -0.24,0 -0.48,-0.01 -0.72,-0.01 -0.01,0 -0.03,0 -0.04,0 -0.49,-0.01 -0.96,-0.02 -1.44,-0.02 -0.01,-0.01 -0.05,-0.01 -0.06,-0.01 -0.12,0 -0.2,0 -0.31,0 -0.02,0 -0.06,0 -0.08,0 -0.1,0 -0.17,-0.01 -0.27,-0.01 -0.05,0 -0.08,0 -0.13,0 -0.1,0 -0.15,0 -0.25,0 -0.05,0 -0.09,0 -0.14,0 -0.06,0 -0.17,0 -0.23,-0.01 -0.07,0 -0.11,0 -0.18,0 -0.06,0 -0.14,0 -0.2,0 -0.07,0 -0.12,0 -0.19,0 -0.08,0 -0.13,0 -0.21,0 -0.05,0 -0.13,0 -0.18,0 -0.08,0 -0.14,-0.01 -0.22,-0.01 -0.05,0 -0.12,0 -0.17,0 -0.07,0 -0.14,0 -0.21,0 -0.06,0 -0.14,0 -0.2,0 -0.07,0 -0.12,0 -0.19,-0.01 -0.06,0 -0.14,0 -0.2,0 -0.07,0 -0.13,0 -0.19,0 -0.07,0 -0.14,0 -0.21,0 -0.06,0 -0.13,0 -0.19,0 -0.07,0 -0.14,0 -0.2,0 -0.05,0 -0.14,0 -0.19,0 -0.08,0 -0.14,0 -0.23,0 -0.05,0 -0.11,-0.01 -0.16,-0.01 -0.08,0 -0.14,0 -0.23,0 -0.06,0 -0.11,0 -0.17,0 -0.08,0 -0.15,0 -0.24,0 -0.04,0 -0.1,0 -0.15,0 -0.07,0 -0.17,0 -0.24,0 -0.04,0 -0.11,0 -0.16,0 -0.07,0 -0.17,0 -0.23,0 -0.05,0 -0.12,0 -0.17,0 -0.06,0 -0.17,0 -0.24,0 -0.07,0 -0.09,0 -0.15,0 -0.09,0 -0.17,0 -0.25,0 -0.05,0 -0.1,0 -0.15,0 -0.14,0 -0.26,0 -0.39,0"
         id="path408" /></clipPath><linearGradient
       x1="0"
       y1="0"
       x2="1"
       y2="0"
       gradientUnits="userSpaceOnUse"
       gradientTransform="matrix(783.486,0,0,-783.486,3464.31,3619.31)"
       spreadMethod="pad"
       id="linearGradient416"><stop
         style="stop-opacity:1;stop-color:#9d381e"
         offset="0"
         id="stop412" /><stop
         style="stop-opacity:1;stop-color:#c84520"
         offset="1"
         id="stop414" /></linearGradient><clipPath
       clipPathUnits="userSpaceOnUse"
       id="clipPath440"><path
         d="m 500.012,1078.62 v 0 0 c 0.133,0 0.265,0 0.398,0 -0.133,0 -0.265,0 -0.398,0 m 0.547,0 c 0.082,0 0.171,0 0.254,0 -0.083,0 -0.172,0 -0.254,0 m 0.457,0 c 0.07,0 0.125,0 0.195,0 -0.066,0 -0.129,0 -0.195,0 m 0.41,0 c 0.066,0 0.121,0 0.187,0 -0.066,0 -0.125,0 -0.187,0 m 0.379,0.01 c 0.082,0 0.129,0 0.211,0 -0.067,0 -0.145,0 -0.211,0 m 0.39,0 c 0.086,0 0.137,0 0.223,0 -0.066,0 -0.156,0 -0.223,0 m 0.403,0 c 0.086,0 0.136,0 0.222,0 -0.082,0 -0.14,0 -0.222,0 m 0.382,0 c 0.083,0 0.157,0 0.243,0 -0.086,0 -0.16,0 -0.243,0 m 0.422,0 c 0.067,0 0.153,0 0.219,0 -0.086,0 -0.137,0 -0.219,0 m 0.399,0.01 c 0.066,0 0.152,0 0.222,0 -0.085,0 -0.14,0 -0.222,0 m 0.418,0 c 0.066,0 0.129,0 0.199,0 -0.066,0 -0.133,0 -0.199,0 m 0.402,0 c 0.067,0 0.133,0 0.199,0 -0.066,0 -0.132,0 -0.199,0 m 0.41,0.01 c 0.067,0 0.117,0 0.184,0 -0.067,0 -0.117,0 -0.184,0 m 0.399,0 c 0.066,0 0.125,0 0.191,0 -0.066,0 -0.129,0 -0.191,0 m 0.398,0.01 c 0.067,0 0.121,0 0.192,0 -0.071,0 -0.125,0 -0.192,0 m 0.399,0 c 0.07,0 0.121,0 0.191,0 -0.066,0 -0.125,0 -0.191,0 m 0.418,0.01 c 0.07,0 0.101,0 0.168,0 -0.051,0 -0.118,0 -0.168,0 m 0.406,0 c 0.066,0 0.09,0 0.156,0 -0.047,0 -0.109,0 -0.156,0 m 0.402,0.01 c 0.07,0 0.086,0 0.152,0 -0.046,0 -0.101,0 -0.152,0 m 0.391,0 c 0.066,0 0.097,0 0.168,0 -0.051,0 -0.117,0 -0.168,0 m 0.402,0.01 c 0.051,0 0.113,0 0.164,0 -0.051,0 -0.113,0 -0.164,0 m 0.395,0.01 c 0.05,0 0.117,0 0.168,0 -0.051,0 -0.118,0 -0.168,0 m 0.418,0 c 0.046,0 0.089,0 0.136,0 -0.047,0 -0.09,0 -0.136,0 m 0.398,0.01 c 0.051,0 0.086,0 0.137,0 -0.047,0 -0.086,0 -0.137,0 m 0.414,0.01 c 0.035,0 0.082,0 0.113,0 -0.031,0 -0.078,0 -0.113,0 m 0.395,0 c 0.05,0.01 0.066,0.01 0.117,0.01 -0.031,0 -0.082,0 -0.117,-0.01 m 0.414,0.01 c 0.019,0 0.074,0.01 0.093,0.01 -0.035,-0.01 -0.058,-0.01 -0.093,-0.01 m 0.39,0.01 c 0.035,0 0.071,0 0.106,0 -0.035,0 -0.071,0 -0.106,0 m 0.41,0.01 c 0.036,0 0.051,0 0.083,0 -0.032,0 -0.047,0 -0.083,0 m 0.403,0.01 c 0.035,0 0.039,0 0.07,0 -0.031,0 -0.035,0 -0.07,0 m 0.41,0.01 c 0.016,0 0.035,0 0.051,0 -0.035,0 -0.02,0 -0.051,0 m 0.387,0.01 c 0.035,0 0.031,0 0.062,0 -0.031,0 -0.027,0 -0.062,0 m 0.414,0.01 h 0.031 -0.031 m 0.402,0.01 h 0.02 -0.02 m 0.797,0.02 c 0.016,0 -0.008,0 0.012,0 h -0.012"
         id="path438" /></clipPath><linearGradient
       x1="0"
       y1="0"
       x2="1"
       y2="0"
       gradientUnits="userSpaceOnUse"
       gradientTransform="matrix(816.631,0,0,-816.631,183.047,1480.9)"
       spreadMethod="pad"
       id="linearGradient446"><stop
         style="stop-opacity:1;stop-color:#9c9c9b"
         offset="0"
         id="stop442" /><stop
         style="stop-opacity:1;stop-color:#c8c7c6"
         offset="1"
         id="stop444" /></linearGradient><clipPath
       clipPathUnits="userSpaceOnUse"
       id="clipPath456"><path
         d="m 500.012,1078.62 v 0 c -2.992,0 -5.942,0.18 -8.91,0.23 l -308.055,307.68 63.652,80.69 41.953,145.04 146.133,139.39 h 179.934 l 131.511,131.51 251.036,-252.2 0.031,-0.22 2.383,-65.03 c -6.754,-265.41 -220.145,-479.44 -485.375,-486.89 -0.02,0 0.004,0 -0.012,0 -0.266,-0.01 -0.516,-0.01 -0.777,-0.02 h -0.02 c -0.133,0 -0.238,-0.01 -0.371,-0.01 h -0.031 c -0.114,0 -0.235,-0.01 -0.352,-0.01 -0.031,0 -0.027,0 -0.062,0 -0.098,0 -0.239,-0.01 -0.336,-0.01 -0.016,0 -0.035,0 -0.051,0 -0.102,0 -0.238,-0.01 -0.34,-0.01 -0.031,0 -0.035,0 -0.07,0 -0.098,0 -0.223,0 -0.32,-0.01 -0.032,0 -0.047,0 -0.083,0 -0.097,0 -0.207,0 -0.304,-0.01 -0.035,0 -0.071,0 -0.106,0 -0.097,0 -0.199,0 -0.297,0 -0.019,0 -0.074,-0.01 -0.093,-0.01 -0.098,0 -0.2,0 -0.297,0 -0.051,0 -0.067,0 -0.117,-0.01 -0.098,0 -0.18,0 -0.282,0 -0.031,0 -0.078,0 -0.113,0 -0.098,0 -0.176,-0.01 -0.277,-0.01 -0.051,0 -0.086,0 -0.137,0 -0.082,0 -0.176,0 -0.262,-0.01 -0.047,0 -0.09,0 -0.136,0 -0.086,0 -0.168,0 -0.25,0 -0.051,0 -0.118,0 -0.168,0 -0.082,-0.01 -0.149,-0.01 -0.231,-0.01 -0.051,0 -0.113,0 -0.164,0 -0.082,0 -0.152,0 -0.234,-0.01 -0.071,0 -0.102,0 -0.168,0 -0.082,0 -0.153,0 -0.239,0 -0.066,0 -0.082,0 -0.152,0 -0.082,-0.01 -0.164,-0.01 -0.246,-0.01 -0.066,0 -0.09,0 -0.156,0 -0.086,0 -0.156,0 -0.238,0 -0.067,0 -0.098,0 -0.168,0 -0.082,-0.01 -0.145,-0.01 -0.227,-0.01 -0.07,0 -0.121,0 -0.191,0 -0.067,0 -0.141,0 -0.207,0 -0.071,0 -0.125,0 -0.192,0 -0.066,-0.01 -0.14,-0.01 -0.207,-0.01 -0.066,0 -0.125,0 -0.191,0 -0.067,0 -0.149,0 -0.215,0 -0.067,0 -0.117,0 -0.184,0 -0.066,0 -0.144,0 -0.211,-0.01 -0.066,0 -0.132,0 -0.199,0 -0.066,0 -0.137,0 -0.203,0 -0.07,0 -0.133,0 -0.199,0 -0.067,0 -0.129,0 -0.196,0 -0.07,0 -0.156,0 -0.222,0 -0.051,0 -0.129,-0.01 -0.18,-0.01 -0.066,0 -0.152,0 -0.219,0 -0.05,0 -0.132,0 -0.179,0 -0.086,0 -0.16,0 -0.243,0 -0.05,0 -0.109,0 -0.16,0 -0.086,0 -0.136,0 -0.222,0 -0.067,0 -0.114,0 -0.18,0 -0.086,0 -0.137,0 -0.223,0 -0.066,0 -0.113,0 -0.179,0 -0.082,0 -0.129,0 -0.211,0 -0.067,-0.01 -0.125,-0.01 -0.192,-0.01 -0.066,0 -0.121,0 -0.187,0 -0.067,0 -0.149,0 -0.215,0 -0.07,0 -0.125,0 -0.195,0 -0.067,0 -0.137,0 -0.203,0 -0.083,0 -0.172,0 -0.254,0 -0.051,0 -0.098,0 -0.149,0 -0.133,0 -0.265,0 -0.398,0"
         id="path454" /></clipPath><linearGradient
       x1="0"
       y1="0"
       x2="1"
       y2="0"
       gradientUnits="userSpaceOnUse"
       gradientTransform="matrix(816.631,0,0,-816.631,183.047,1480.9)"
       spreadMethod="pad"
       id="linearGradient462"><stop
         style="stop-opacity:1;stop-color:#2f313a"
         offset="0"
         id="stop458" /><stop
         style="stop-opacity:1;stop-color:#3a3d4b"
         offset="1"
         id="stop460" /></linearGradient><clipPath
       clipPathUnits="userSpaceOnUse"
       id="clipPath576"><path
         d="m 3767.09,2154.2 -168.56,169.29 64.89,22 12.5,31.8 -89.72,86.76 19.72,2.94 13.78,47.69 -74.46,78.69 265.68,313.94 30,57.38 83.67,-44.15 319.64,-320.43 -9.89,-68.11 c -52.99,-211.76 -240.99,-369.89 -467.25,-377.8"
         id="path574" /></clipPath><linearGradient
       x1="0"
       y1="0"
       x2="1"
       y2="0"
       gradientUnits="userSpaceOnUse"
       gradientTransform="matrix(698.984,0,0,-698.984,3545.24,2559.44)"
       spreadMethod="pad"
       id="linearGradient582"><stop
         style="stop-opacity:1;stop-color:#4c848a"
         offset="0"
         id="stop578" /><stop
         style="stop-opacity:1;stop-color:#61a8ac"
         offset="1"
         id="stop580" /></linearGradient><clipPath
       clipPathUnits="userSpaceOnUse"
       id="clipPath612"><path
         d="m 3749.34,1078.62 v 0 0 c 0.13,0 0.25,0 0.38,0 -0.12,0 -0.26,0 -0.38,0 m 0.53,0 c 0.08,0 0.17,0 0.25,0 -0.09,0 -0.15,0 -0.25,0 m 0.4,0 c 0.07,0 0.17,0 0.24,0 -0.08,0 -0.16,0 -0.24,0 m 0.41,0 c 0.07,0 0.15,0 0.22,0 -0.08,0 -0.14,0 -0.22,0 m 0.4,0 c 0.07,0.01 0.15,0.01 0.22,0.01 -0.08,0 -0.14,0 -0.22,-0.01 m 0.37,0.01 c 0.09,0 0.16,0 0.25,0 -0.08,0 -0.17,0 -0.25,0 m 0.4,0 c 0.08,0 0.16,0 0.25,0 -0.08,0 -0.17,0 -0.25,0 m 0.39,0 c 0.08,0 0.16,0 0.25,0 -0.1,0 -0.16,0 -0.25,0 m 0.4,0 c 0.09,0 0.16,0 0.24,0 -0.08,0 -0.16,0 -0.24,0 m 0.39,0.01 c 0.08,0 0.16,0 0.25,0 -0.08,0 -0.17,0 -0.25,0 m 0.4,0 c 0.08,0 0.17,0 0.25,0 -0.08,0 -0.17,0 -0.25,0 m 0.38,0 c 0.08,0 0.19,0 0.28,0 -0.1,0 -0.19,0 -0.28,0 m 0.4,0.01 c 0.08,0 0.21,0 0.29,0 -0.09,0 -0.19,0 -0.29,0 m 0.39,0 c 0.4,0 0.77,0.01 1.18,0.01 -0.4,0 -0.79,-0.01 -1.18,-0.01 m 1.32,0.01 c 0.09,0.01 0.17,0.01 0.25,0.01 -0.07,0 -0.17,0 -0.25,-0.01 m 0.4,0.01 c 0.09,0 0.15,0 0.24,0 -0.08,0 -0.16,0 -0.24,0 m 0.4,0.01 c 0.09,0 0.15,0 0.23,0 -0.06,0 -0.16,0 -0.23,0 m 0.41,0 c 0.08,0 0.12,0 0.21,0 -0.08,0 -0.14,0 -0.21,0 m 0.39,0.01 c 0.08,0 0.14,0 0.22,0 -0.08,0 -0.15,0 -0.22,0 m 0.38,0 c 0.07,0.01 0.17,0.01 0.23,0.01 -0.07,0 -0.15,0 -0.23,-0.01 m 0.39,0.01 c 0.08,0 0.15,0 0.24,0 -0.08,0 -0.17,0 -0.24,0 m 0.4,0.01 c 0.07,0 0.13,0 0.2,0 -0.08,0 -0.12,0 -0.2,0 m 0.4,0.01 c 0.07,0 0.13,0 0.2,0 -0.07,0 -0.14,0 -0.2,0 m 0.39,0 c 0.07,0 0.13,0.01 0.2,0.01 -0.06,0 -0.14,-0.01 -0.2,-0.01 m 0.38,0.01 c 0.07,0 0.14,0 0.21,0.01 -0.08,-0.01 -0.13,-0.01 -0.21,-0.01 m 0.4,0.01 c 0.05,0 0.11,0 0.16,0 -0.04,0 -0.11,0 -0.16,0 m 0.39,0.01 c 0.05,0 0.09,0 0.14,0 -0.05,0 -0.09,0 -0.14,0 m 0.57,0.01 c 0.07,0 0.13,0 0.2,0.01 -0.06,-0.01 -0.14,-0.01 -0.2,-0.01 m 0.42,0.01 c 0.05,0 0.11,0 0.16,0 -0.05,0 -0.12,0 -0.16,0 m 0.41,0.01 c 0.05,0 0.08,0 0.13,0 -0.03,0 -0.1,0 -0.13,0 m 0.39,0.01 c 0.05,0 0.08,0 0.13,0 -0.05,0 -0.08,0 -0.13,0 m 0.37,0.01 c 0.05,0 0.1,0 0.15,0 -0.05,0 -0.11,0 -0.15,0 m 0.38,0.01 c 0.06,0 0.1,0 0.16,0 -0.05,0 -0.11,0 -0.16,0 m 0.39,0.01 c 0.05,0 0.1,0 0.15,0.01 -0.05,-0.01 -0.1,-0.01 -0.15,-0.01 m 0.4,0.01 c 0.03,0 0.1,0.01 0.13,0.01 -0.05,-0.01 -0.09,-0.01 -0.13,-0.01 m 0.37,0.01 c 0.05,0 0.11,0.01 0.16,0.01 -0.05,0 -0.11,-0.01 -0.16,-0.01 m 0.4,0.01 c 0.03,0.01 0.09,0.01 0.12,0.01 -0.04,0 -0.08,0 -0.12,-0.01 m 0.39,0.02 c 0.03,0 0.06,0 0.1,0 -0.05,0 -0.06,0 -0.1,0 m 0.39,0.01 h 0.05 c -0.02,0 -0.03,0 -0.05,0 m 0.37,0.01 c 0.04,0 0.06,0 0.09,0 -0.03,0 -0.06,0 -0.09,0 m 1.47,0.05 c 0.02,0 0.03,0 0.05,0 -0.01,0 -0.03,0 -0.05,0 m 0.41,0.02 c 0.02,0 0,0 0.01,0 h -0.01 m 0.35,0.01 c 0.01,0 0.03,0 0.05,0 -0.02,0 -0.04,0 -0.05,0 m 0.41,0.01 v 0 0 m 0.33,0.02 c 0.04,0 0.04,0 0.07,0 -0.03,0 -0.03,0 -0.07,0 m 0.38,0.01 c 0.02,0 0.05,0 0.07,0 -0.03,0 -0.04,0 -0.07,0 m 0.39,0.02 c 0.03,0 0.02,0 0.05,0 -0.03,0 -0.02,0 -0.05,0 m 0.38,0.01 c 0.02,0 0.03,0 0.05,0 -0.02,0 -0.03,0 -0.05,0 m 0.36,0.02 c 0.04,0 0.06,0 0.1,0 -0.04,0 -0.07,0 -0.1,0 m 0.38,0.01 c 0.04,0 0.05,0 0.08,0.01 -0.03,-0.01 -0.04,-0.01 -0.08,-0.01 m 0.4,0.02 h 0.02 -0.02"
         id="path610" /></clipPath><linearGradient
       x1="0"
       y1="0"
       x2="1"
       y2="0"
       gradientUnits="userSpaceOnUse"
       gradientTransform="matrix(792.646,0,0,-792.646,3453.88,1476.35)"
       spreadMethod="pad"
       id="linearGradient618"><stop
         style="stop-opacity:1;stop-color:#9c9c9b"
         offset="0"
         id="stop614" /><stop
         style="stop-opacity:1;stop-color:#c8c7c6"
         offset="1"
         id="stop616" /></linearGradient><clipPath
       clipPathUnits="userSpaceOnUse"
       id="clipPath628"><path
         d="m 3749.34,1078.62 v 0 c -33.83,0 -66.87,3.41 -98.81,9.81 l -196.65,194.73 514.84,590.92 277.46,-277.97 0.34,-70.45 c -25.7,-244.12 -227.03,-435.9 -475.34,-446.57 h -0.02 c -0.11,-0.01 -0.21,-0.01 -0.32,-0.01 -0.03,-0.01 -0.04,-0.01 -0.08,-0.01 -0.09,0 -0.19,-0.01 -0.28,-0.01 -0.04,0 -0.06,0 -0.1,0 -0.09,-0.01 -0.22,-0.01 -0.31,-0.02 -0.02,0 -0.03,0 -0.05,0 -0.11,0 -0.22,-0.01 -0.33,-0.01 -0.03,0 -0.02,0 -0.05,0 -0.1,-0.01 -0.23,-0.01 -0.32,-0.02 -0.02,0 -0.05,0 -0.07,0 -0.09,0 -0.21,-0.01 -0.31,-0.01 -0.03,0 -0.03,0 -0.07,0 -0.1,-0.01 -0.22,-0.01 -0.33,-0.02 v 0 c -0.12,0 -0.24,-0.01 -0.36,-0.01 -0.02,0 -0.04,0 -0.05,0 -0.11,-0.01 -0.23,-0.01 -0.34,-0.01 -0.01,0 0.01,0 -0.01,0 -0.12,-0.01 -0.23,-0.01 -0.36,-0.02 -0.02,0 -0.03,0 -0.05,0 -0.45,-0.01 -0.92,-0.03 -1.38,-0.05 -0.03,0 -0.05,0 -0.09,0 -0.11,0 -0.21,-0.01 -0.32,-0.01 h -0.05 c -0.09,0 -0.2,-0.01 -0.29,-0.01 -0.04,0 -0.07,0 -0.1,0 -0.08,-0.01 -0.19,-0.01 -0.27,-0.01 -0.03,0 -0.09,0 -0.12,-0.01 -0.08,0 -0.17,0 -0.24,0 -0.05,0 -0.11,-0.01 -0.16,-0.01 -0.08,0 -0.16,0 -0.24,0 -0.03,0 -0.1,-0.01 -0.13,-0.01 -0.1,0 -0.16,0 -0.25,0 -0.05,-0.01 -0.1,-0.01 -0.15,-0.01 -0.08,0 -0.16,0 -0.23,-0.01 -0.06,0 -0.1,0 -0.16,0 -0.07,0 -0.15,0 -0.23,-0.01 -0.05,0 -0.1,0 -0.15,0 -0.08,0 -0.16,0 -0.24,-0.01 -0.05,0 -0.08,0 -0.13,0 -0.09,0 -0.16,0 -0.26,-0.01 -0.05,0 -0.08,0 -0.13,0 -0.1,0 -0.16,0 -0.25,-0.01 -0.05,0 -0.11,0 -0.16,0 -0.08,0 -0.14,0 -0.22,0 -0.07,-0.01 -0.13,-0.01 -0.2,-0.01 -0.14,0 -0.29,-0.01 -0.43,-0.01 -0.05,0 -0.09,0 -0.14,0 -0.08,0 -0.15,-0.01 -0.23,-0.01 -0.05,0 -0.11,0 -0.16,0 -0.06,0 -0.13,0 -0.19,0 -0.07,-0.01 -0.14,-0.01 -0.21,-0.01 -0.06,0 -0.12,0 -0.18,0 -0.07,0 -0.13,-0.01 -0.2,-0.01 -0.06,0 -0.13,0 -0.19,0 -0.07,0 -0.13,0 -0.2,0 -0.06,-0.01 -0.14,-0.01 -0.2,-0.01 -0.07,0 -0.13,0 -0.2,0 -0.04,0 -0.12,0 -0.16,-0.01 -0.09,0 -0.16,0 -0.24,0 -0.07,0 -0.09,0 -0.16,0 -0.06,0 -0.16,0 -0.23,-0.01 -0.05,0 -0.11,0 -0.16,0 -0.08,0 -0.14,0 -0.22,0 -0.05,0 -0.14,0 -0.18,-0.01 -0.09,0 -0.13,0 -0.21,0 -0.07,0 -0.11,0 -0.18,0 -0.08,0 -0.14,0 -0.23,0 -0.06,-0.01 -0.1,-0.01 -0.16,-0.01 -0.09,0 -0.15,0 -0.24,0 -0.05,0 -0.1,0 -0.15,0 -0.08,0 -0.16,0 -0.25,-0.01 -0.06,0 -0.08,0 -0.14,0 -0.41,0 -0.78,-0.01 -1.18,-0.01 -0.03,0 -0.07,0 -0.1,0 -0.08,0 -0.21,0 -0.29,0 -0.03,-0.01 -0.09,-0.01 -0.12,-0.01 -0.09,0 -0.2,0 -0.28,0 -0.05,0 -0.08,0 -0.13,0 -0.08,0 -0.17,0 -0.25,0 -0.06,0 -0.09,0 -0.15,0 -0.09,0 -0.17,0 -0.25,0 -0.05,-0.01 -0.1,-0.01 -0.15,-0.01 -0.08,0 -0.15,0 -0.24,0 -0.05,0 -0.11,0 -0.15,0 -0.09,0 -0.17,0 -0.25,0 -0.05,0 -0.1,0 -0.14,0 -0.09,0 -0.17,0 -0.25,0 -0.05,0 -0.1,0 -0.15,0 -0.09,0 -0.16,0 -0.25,0 -0.04,0 -0.1,0 -0.15,0 -0.07,0 -0.15,0 -0.22,-0.01 -0.06,0 -0.12,0 -0.18,0 -0.07,0 -0.15,0 -0.22,0 -0.05,0 -0.12,0 -0.17,0 -0.07,0 -0.17,0 -0.24,0 -0.04,0 -0.1,0 -0.15,0 -0.08,0 -0.17,0 -0.25,0 -0.05,0 -0.1,0 -0.15,0 -0.13,0 -0.25,0 -0.38,0"
         id="path626" /></clipPath><linearGradient
       x1="0"
       y1="0"
       x2="1"
       y2="0"
       gradientUnits="userSpaceOnUse"
       gradientTransform="matrix(792.646,0,0,-792.646,3453.88,1476.35)"
       spreadMethod="pad"
       id="linearGradient634"><stop
         style="stop-opacity:1;stop-color:#996a1e"
         offset="0"
         id="stop630" /><stop
         style="stop-opacity:1;stop-color:#c4871b"
         offset="1"
         id="stop632" /></linearGradient><clipPath
       clipPathUnits="userSpaceOnUse"
       id="clipPath656"><path
         d="M 520.754,0.539063 313.555,204.559 686.445,795.398 999.531,481.23 C 989.891,220.699 781.023,11.1719 520.754,0.539063"
         id="path654" /></clipPath><linearGradient
       x1="0"
       y1="0"
       x2="1"
       y2="0"
       gradientUnits="userSpaceOnUse"
       gradientTransform="matrix(685.977,0,0,-685.977,313.555,397.97)"
       spreadMethod="pad"
       id="linearGradient662"><stop
         style="stop-opacity:1;stop-color:#4c848a"
         offset="0"
         id="stop658" /><stop
         style="stop-opacity:1;stop-color:#61a8ac"
         offset="1"
         id="stop660" /></linearGradient><clipPath
       clipPathUnits="userSpaceOnUse"
       id="clipPath686"><path
         d="m 1593.66,0.0117188 c -0.04,0 -0.09,0 -0.14,0 0.05,0 0.09,0 0.14,0 m 1.12,0 c 0.04,0 0.06,0 0.09,0 -0.03,0 -0.06,0 -0.09,0 m -1.59,0 c -0.05,0 -0.1,0 -0.15,0 0.05,0 0.1,0 0.15,0 m 2.32,0 c 0.03,0 0.07,0 0.1,0 -0.03,0 -0.07,0 -0.1,0 m -2.82,0 c -0.04,0 -0.07,0 -0.1,0 0.03,0 0.06,0 0.1,0 m 3.55,0 c 0.03,0 0.07,0 0.1,0 -0.03,0 -0.07,0 -0.1,0 m 0.74,0.0078125 c 0.02,0 0.05,0 0.07,0 -0.02,0 -0.05,0 -0.07,0 m -5.85,0 c -0.01,0 -0.02,0 -0.03,0 0.02,0 0.01,0 0.03,0 m 6.57,0 h 0.03 c -0.01,0 -0.02,0 -0.03,0 m 0.69,0.0117187 c 0.03,0 0.05,0 0.09,0 -0.03,0 -0.06,0 -0.09,0 m 0.72,0 c 0.04,0 0.07,0 0.1,0 -0.03,0 -0.07,0 -0.1,0 m 0.74,0.0078125 c 0.03,0 0.05,0 0.08,0 -0.03,0 -0.05,0 -0.08,0 m 1.45,0.0195313 c 0.01,0 0.01,0 0.03,0 h -0.03 m 0.7,0.0117187 c 0.02,0 0.05,0 0.06,0 -0.03,0 -0.03,0 -0.06,0 m 0.72,0.0117188 c 0.04,0 0.04,0 0.07,0 -0.03,0 -0.04,0 -0.07,0 m 2.9,0.0585937 h 0.01 -0.01"
         id="path684" /></clipPath><linearGradient
       x1="0"
       y1="0"
       x2="1"
       y2="0"
       gradientUnits="userSpaceOnUse"
       gradientTransform="matrix(795.273,0,0,-795.273,1290.95,380.53)"
       spreadMethod="pad"
       id="linearGradient692"><stop
         style="stop-opacity:1;stop-color:#9c9c9b"
         offset="0"
         id="stop688" /><stop
         style="stop-opacity:1;stop-color:#c8c7c6"
         offset="1"
         id="stop690" /></linearGradient><clipPath
       clipPathUnits="userSpaceOnUse"
       id="clipPath702"><path
         d="m 1594.12,0.0117188 v 0 c -0.15,0 -0.31,0 -0.46,0 -0.05,0 -0.09,0 -0.14,0 -0.11,0 -0.22,0 -0.33,0 -0.05,0 -0.1,0 -0.15,0 -0.11,0 -0.24,0 -0.35,0 -0.04,0 -0.07,0 -0.1,0 -0.49,0 -0.97,0 -1.46,0.0078125 -0.02,0 -0.01,0 -0.03,0 C 1549.44,0.261719 1509.01,5.62891 1470.35,15.4805 l -12.87,4.6406 -166.53,162.1289 286.87,250.52 160.49,328.261 347.91,-349.16 C 2045.21,181.461 1846.53,5.58203 1605.63,0.140625 h -0.01 c -0.94,-0.019531 -1.88,-0.039062 -2.83,-0.0585937 -0.03,0 -0.03,0 -0.07,0 -0.21,0 -0.45,-0.0117188 -0.66,-0.0117188 -0.01,0 -0.04,0 -0.06,0 -0.23,0 -0.45,-0.0117187 -0.67,-0.0117187 -0.02,0 -0.02,0 -0.03,0 -0.47,-0.0078125 -0.9,-0.0078125 -1.37,-0.0195313 -0.03,0 -0.05,0 -0.08,0 -0.21,0 -0.43,0 -0.64,-0.0078125 -0.03,0 -0.06,0 -0.1,0 -0.21,0 -0.42,0 -0.63,0 -0.04,0 -0.06,0 -0.09,0 -0.23,-0.0117187 -0.43,-0.0117187 -0.66,-0.0117187 h -0.03 c -0.21,0 -0.44,0 -0.65,0 -0.02,0 -0.05,0 -0.07,0 -0.22,0 -0.41,-0.0078125 -0.64,-0.0078125 -0.03,0 -0.07,0 -0.1,0 -0.21,0 -0.42,0 -0.63,0 -0.03,0 -0.07,0 -0.1,0 -0.21,0 -0.43,0 -0.64,0 -0.03,0 -0.05,0 -0.09,0 -0.22,0 -0.43,0 -0.66,0 v 0"
         id="path700" /></clipPath><linearGradient
       x1="0"
       y1="0"
       x2="1"
       y2="0"
       gradientUnits="userSpaceOnUse"
       gradientTransform="matrix(795.273,0,0,-795.273,1290.95,380.53)"
       spreadMethod="pad"
       id="linearGradient708"><stop
         style="stop-opacity:1;stop-color:#9d381e"
         offset="0"
         id="stop704" /><stop
         style="stop-opacity:1;stop-color:#c84520"
         offset="1"
         id="stop706" /></linearGradient><clipPath
       clipPathUnits="userSpaceOnUse"
       id="clipPath758"><path
         d="m 3739.9,0.242188 c -3.06,0.058593 -6.14,0.128906 -9.2,0.238281 L 3452.51,276.309 l 12,135.441 41.56,21.281 c -11.77,84.571 10.11,172.09 19.07,196.34 8.95,24.258 44.74,115.43 151.04,164.09 21.07,9.641 43.65,13.5 66.32,13.5 91.76,0 185,-63.289 185,-63.289 L 4244.57,431.719 C 4212.89,199.922 4022.43,18.8203 3786.36,1.51953 L 3739.9,0.242188"
         id="path756" /></clipPath><clipPath
       clipPathUnits="userSpaceOnUse"
       id="clipPath764"><path
         d="m 3452.51,0.242188 h 792.059 V 806.96119 H 3452.51 Z"
         id="path762" /></clipPath><linearGradient
       x1="0"
       y1="0"
       x2="1"
       y2="0"
       gradientUnits="userSpaceOnUse"
       gradientTransform="matrix(792.061,0,0,-792.061,3452.51,403.6)"
       spreadMethod="pad"
       id="linearGradient770"><stop
         style="stop-opacity:1;stop-color:#2f313a"
         offset="0"
         id="stop766" /><stop
         style="stop-opacity:1;stop-color:#3a3d4b"
         offset="1"
         id="stop768" /></linearGradient><clipPath
       clipPathUnits="userSpaceOnUse"
       id="clipPath794"><path
         d="m 1594.12,1078.62 c -0.16,0 -0.33,0 -0.49,0 0.17,0 0.32,0 0.49,0 0.14,0 0.26,0 0.4,0 -0.13,0 -0.27,0 -0.4,0 m 0.57,0 c 0.09,0 0.13,0 0.22,0 -0.07,0 -0.15,0 -0.22,0 m 0.42,0 c 0.05,0 0.14,0 0.19,0 -0.04,0 -0.14,0 -0.19,0 m 0.38,0 c 0.07,0 0.15,0 0.21,0 -0.08,0 -0.13,0 -0.21,0 m 0.39,0 c 0.06,0.01 0.16,0.01 0.23,0.01 -0.08,0 -0.15,0 -0.23,-0.01 m -3.78,0.01 c -0.01,0 -0.02,0 -0.03,0 0.02,0 0.01,0 0.03,0 m 4.17,0 c 0.07,0 0.16,0 0.23,0 -0.09,0 -0.15,0 -0.23,0 m 0.41,0 c 0.07,0 0.15,0 0.21,0 -0.06,0 -0.15,0 -0.21,0 m 0.38,0 c 0.09,0 0.15,0 0.23,0 -0.08,0 -0.14,0 -0.23,0 m 0.42,0 c 0.06,0 0.13,0 0.2,0 -0.08,0 -0.12,0 -0.2,0 m 0.4,0.01 c 0.06,0 0.12,0 0.19,0 -0.06,0 -0.13,0 -0.19,0 m 0.4,0 c 0.06,0 0.12,0 0.19,0 -0.07,0 -0.13,0 -0.19,0 m 0.38,0 c 0.07,0 0.14,0 0.21,0 -0.07,0 -0.14,0 -0.21,0 m 0.41,0.01 c 0.06,0 0.12,0 0.19,0 -0.07,0 -0.13,0 -0.19,0 m 0.39,0 c 0.06,0 0.13,0 0.19,0 -0.06,0 -0.13,0 -0.19,0 m 0.4,0 c 0.05,0 0.13,0.01 0.18,0.01 -0.05,0 -0.13,-0.01 -0.18,-0.01 m 0.39,0.01 c 0.07,0 0.11,0 0.17,0 -0.05,0 -0.12,0 -0.17,0 m 0.41,0 c 0.03,0 0.1,0.01 0.14,0.01 -0.05,-0.01 -0.09,-0.01 -0.14,-0.01 m 0.39,0.01 c 0.05,0 0.09,0 0.14,0 -0.05,0 -0.09,0 -0.14,0 m 0.4,0 c 0.03,0 0.08,0.01 0.12,0.01 -0.04,0 -0.09,-0.01 -0.12,-0.01 m 0.39,0.01 c 0.03,0 0.06,0 0.09,0 -0.03,0 -0.06,0 -0.09,0 m 0.4,0.01 v 0 0 m 0.38,0 h 0.01 -0.01 m 2.32,0.05 v 0 0 m 0.76,0.01 h 0.01 -0.01 m 0.38,0.01 c 0.02,0 0,0 0.02,0 h -0.02 m 0.38,0.01 h 0.03 -0.03 m -44.49,0.87 c -0.09,0 -0.18,0.01 -0.27,0.02 0.08,-0.01 0.19,-0.02 0.27,-0.02 m -0.36,0.02 c -6.27,0.4 -12.5,0.92 -18.7,1.55 h -0.01 c 6.2,-0.63 12.44,-1.15 18.71,-1.55"
         id="path792" /></clipPath><linearGradient
       x1="0"
       y1="0"
       x2="1"
       y2="0"
       gradientUnits="userSpaceOnUse"
       gradientTransform="matrix(832.383,0,0,-832.383,1260.4,1442.26)"
       spreadMethod="pad"
       id="linearGradient800"><stop
         style="stop-opacity:1;stop-color:#9c9c9b"
         offset="0"
         id="stop796" /><stop
         style="stop-opacity:1;stop-color:#c8c7c6"
         offset="1"
         id="stop798" /></linearGradient><clipPath
       clipPathUnits="userSpaceOnUse"
       id="clipPath810"><path
         d="m 1594.12,1078.62 c -0.17,0 -0.32,0 -0.49,0 -0.51,0 -1.02,0 -1.53,0.01 -0.02,0 -0.01,0 -0.03,0 -10.11,0.04 -20.14,0.38 -30.1,1.01 -0.08,0 -0.19,0.01 -0.27,0.02 -0.03,0 -0.06,0 -0.09,0 -6.27,0.4 -12.51,0.92 -18.71,1.55 l -14.47,4.05 -268.03,266.09 128.54,98.21 h 466.39 v 356.34 l 237.39,-239.9 0.06,-22.21 c -17.63,-255.81 -227.51,-458.74 -486.29,-465.02 h -0.03 c -0.13,0 -0.23,0 -0.36,-0.01 -0.02,0 0,0 -0.02,0 -0.13,0 -0.24,0 -0.37,-0.01 h -0.01 c -0.26,0 -0.5,-0.01 -0.76,-0.01 v 0 c -0.78,-0.02 -1.54,-0.03 -2.31,-0.05 h -0.01 c -0.12,0 -0.25,0 -0.38,0 v 0 c -0.1,-0.01 -0.21,-0.01 -0.31,-0.01 -0.03,0 -0.06,0 -0.09,0 -0.1,0 -0.18,0 -0.27,0 -0.04,0 -0.09,-0.01 -0.12,-0.01 -0.1,0 -0.17,0 -0.26,0 -0.05,0 -0.09,0 -0.14,0 -0.08,0 -0.17,0 -0.25,0 -0.04,0 -0.11,-0.01 -0.14,-0.01 -0.08,0 -0.16,0 -0.24,0 -0.06,0 -0.1,0 -0.17,0 -0.08,0 -0.13,0 -0.21,0 -0.05,0 -0.13,-0.01 -0.18,-0.01 -0.08,0 -0.13,0 -0.21,0 -0.06,0 -0.13,0 -0.19,0 -0.07,0 -0.14,0 -0.2,0 -0.07,0 -0.13,0 -0.19,0 -0.07,0 -0.14,-0.01 -0.2,-0.01 -0.07,0 -0.14,0 -0.21,0 -0.06,0 -0.13,0 -0.19,0 -0.07,0 -0.13,0 -0.19,0 -0.07,0 -0.14,0 -0.21,0 -0.07,0 -0.13,0 -0.19,0 -0.07,0 -0.14,-0.01 -0.2,-0.01 -0.07,0 -0.14,0 -0.2,0 -0.05,0 -0.14,0 -0.19,0 -0.08,0 -0.14,0 -0.23,0 -0.06,0 -0.1,0 -0.17,0 -0.06,0 -0.14,0 -0.21,0 -0.06,0 -0.12,0 -0.18,0 -0.07,0 -0.16,0 -0.23,0 -0.05,0 -0.12,0 -0.16,0 -0.07,0 -0.17,0 -0.23,-0.01 -0.05,0 -0.13,0 -0.18,0 -0.06,0 -0.14,0 -0.21,0 -0.06,0 -0.12,0 -0.19,0 -0.05,0 -0.14,0 -0.19,0 -0.08,0 -0.12,0 -0.2,0 -0.09,0 -0.13,0 -0.22,0 -0.06,0 -0.11,0 -0.17,0 -0.14,0 -0.26,0 -0.4,0"
         id="path808" /></clipPath><linearGradient
       x1="0"
       y1="0"
       x2="1"
       y2="0"
       gradientUnits="userSpaceOnUse"
       gradientTransform="matrix(832.383,0,0,-832.383,1260.4,1442.26)"
       spreadMethod="pad"
       id="linearGradient816"><stop
         style="stop-opacity:1;stop-color:#996a1e"
         offset="0"
         id="stop812" /><stop
         style="stop-opacity:1;stop-color:#c4871b"
         offset="1"
         id="stop814" /></linearGradient><linearGradient
       inkscape:collect="always"
       xlink:href="#linearGradient975"
       id="linearGradient977"
       x1="105.12704"
       y1="153.99734"
       x2="344.99713"
       y2="153.99734"
       gradientUnits="userSpaceOnUse"
       gradientTransform="matrix(0.31266927,0,0,-0.31339696,-20.823899,420.73464)" /><linearGradient
       inkscape:collect="always"
       id="linearGradient975"><stop
         style="stop-color:#a600ff;stop-opacity:1;"
         offset="0"
         id="stop971" /><stop
         style="stop-color:#a600ff;stop-opacity:0;"
         offset="1"
         id="stop973" /></linearGradient><linearGradient
       inkscape:collect="always"
       xlink:href="#linearGradient975"
       id="linearGradient979"
       x1="198"
       y1="82.849007"
       x2="251.75703"
       y2="82.849007"
       gradientUnits="userSpaceOnUse"
       gradientTransform="matrix(0.31266927,0,0,-0.31339696,-20.823899,420.73464)" /><linearGradient
       inkscape:collect="always"
       xlink:href="#linearGradient975"
       id="linearGradient981"
       x1="143.45197"
       y1="123.11134"
       x2="186.89427"
       y2="123.11134"
       gradientUnits="userSpaceOnUse"
       gradientTransform="matrix(0.31266927,0,0,-0.31339696,-20.823899,420.73464)" /><linearGradient
       inkscape:collect="always"
       xlink:href="#linearGradient975"
       id="linearGradient983"
       x1="263.1853"
       y1="123.07225"
       x2="306.41895"
       y2="123.07225"
       gradientUnits="userSpaceOnUse"
       gradientTransform="matrix(0.31266927,0,0,-0.31339696,-20.823899,420.73464)" /><linearGradient
       inkscape:collect="always"
       xlink:href="#linearGradient975"
       id="linearGradient985"
       x1="235"
       y1="111.48084"
       x2="259"
       y2="111.48084"
       gradientUnits="userSpaceOnUse"
       gradientTransform="matrix(0.31266927,0,0,-0.31339696,-20.823899,420.73464)" /><linearGradient
       inkscape:collect="always"
       xlink:href="#linearGradient975"
       id="linearGradient987"
       x1="191.49841"
       y1="111.12101"
       x2="213.80283"
       y2="111.12101"
       gradientUnits="userSpaceOnUse"
       gradientTransform="matrix(0.31266927,0,0,-0.31339696,-20.823899,420.73464)" /><linearGradient
       inkscape:collect="always"
       xlink:href="#linearGradient975"
       id="linearGradient989"
       x1="188.18732"
       y1="150.85085"
       x2="262"
       y2="150.85085"
       gradientUnits="userSpaceOnUse"
       gradientTransform="matrix(0.31266927,0,0,-0.31339696,-20.823899,420.73464)" /><linearGradient
       inkscape:collect="always"
       xlink:href="#linearGradient975"
       id="linearGradient991"
       x1="212"
       y1="153.95874"
       x2="238"
       y2="153.95874"
       gradientUnits="userSpaceOnUse"
       gradientTransform="matrix(0.31266927,0,0,-0.31339696,-20.823899,420.73464)" /><linearGradient
       inkscape:collect="always"
       xlink:href="#linearGradient975"
       id="linearGradient993"
       x1="164.89999"
       y1="154.60001"
       x2="181"
       y2="154.60001"
       gradientUnits="userSpaceOnUse"
       gradientTransform="matrix(0.31266927,0,0,-0.31339696,-20.823899,420.73464)" /><linearGradient
       inkscape:collect="always"
       xlink:href="#linearGradient975"
       id="linearGradient995"
       x1="268.99814"
       y1="154.08121"
       x2="285.29999"
       y2="154.08121"
       gradientUnits="userSpaceOnUse"
       gradientTransform="matrix(0.31266927,0,0,-0.31339696,-20.823899,420.73464)" /><linearGradient
       inkscape:collect="always"
       xlink:href="#linearGradient975"
       id="linearGradient997"
       x1="144.43633"
       y1="183.35001"
       x2="186.66212"
       y2="183.35001"
       gradientUnits="userSpaceOnUse"
       gradientTransform="matrix(0.31266927,0,0,-0.31339696,-20.823899,420.73464)" /><linearGradient
       inkscape:collect="always"
       xlink:href="#linearGradient975"
       id="linearGradient999"
       x1="263.32303"
       y1="184.14174"
       x2="305.75552"
       y2="184.14174"
       gradientUnits="userSpaceOnUse"
       gradientTransform="matrix(0.31266927,0,0,-0.31339696,-20.823899,420.73464)" /><linearGradient
       inkscape:collect="always"
       xlink:href="#linearGradient975"
       id="linearGradient1001"
       x1="237.18808"
       y1="194.37605"
       x2="259.28"
       y2="194.37605"
       gradientUnits="userSpaceOnUse"
       gradientTransform="matrix(0.31266927,0,0,-0.31339696,-20.823899,420.73464)" /><linearGradient
       inkscape:collect="always"
       xlink:href="#linearGradient975"
       id="linearGradient1003"
       x1="191"
       y1="194.84718"
       x2="213"
       y2="194.84718"
       gradientUnits="userSpaceOnUse"
       gradientTransform="matrix(0.31266927,0,0,-0.31339696,-20.823899,420.73464)" /><linearGradient
       inkscape:collect="always"
       xlink:href="#linearGradient975"
       id="linearGradient1005"
       x1="197.3"
       y1="226.03487"
       x2="252.86395"
       y2="226.03487"
       gradientUnits="userSpaceOnUse"
       gradientTransform="matrix(0.31266927,0,0,-0.31339696,-20.823899,420.73464)" /></defs><sodipodi:namedview
     pagecolor="#ffffff"
     bordercolor="#666666"
     borderopacity="1"
     objecttolerance="10"
     gridtolerance="10"
     guidetolerance="10"
     inkscape:pageopacity="0"
     inkscape:pageshadow="2"
     inkscape:window-width="1920"
     inkscape:window-height="1001"
     id="namedview4"
     inkscape:document-rotation="0"
     showgrid="false"
     inkscape:zoom="2.9366593"
     inkscape:cx="129.48138"
     inkscape:cy="71.701767"
     inkscape:window-x="-9"
     inkscape:window-y="-9"
     inkscape:window-maximized="1"
     inkscape:current-layer="g10" /><g
     id="g10"
     inkscape:groupmode="layer"
     inkscape:label="ink_ext_XXXXXX"
     transform="matrix(1.3333333,0,0,-1.3333333,0,564.05333)"><path
       d="m 99.999366,372.55335 c 0,-27.615 -22.385,-50.001 -49.999003,-50.001 -27.615,0 -50.0000003979,22.386 -50.0000003979,50.001 0,27.614 22.3850003979,50 50.0000003979,50 27.614003,0 49.999003,-22.386 49.999003,-50"
       style="fill:#ff5555;fill-opacity:1;fill-rule:nonzero;stroke:none;stroke-width:0.1"
       id="path256" /><g
       id="g258"
       transform="matrix(0.1,0,0,0.1,-213.80475,154.68031)"><g
         id="g260"
         clip-path="url(#clipPath264)"><path
           d="m 2677.13,2153.75 c 0.01,0 0.01,0 0.03,0 -0.02,0 -0.02,0 -0.03,0 m 0.3,0 c 0.05,0 0.08,0 0.13,0 -0.03,0 -0.09,0 -0.13,0 m 0.35,0 c 0.07,0 0.12,0 0.18,0 -0.06,0 -0.12,0 -0.18,0 m 0.37,0 c 0.07,0 0.15,0 0.22,0 -0.07,0 -0.15,0 -0.22,0 m 0.4,0 c 0.08,0 0.13,0 0.22,0 -0.07,0 -0.15,0 -0.22,0 m 0.4,0 c 0.09,0.01 0.14,0.01 0.22,0.01 -0.07,0 -0.15,0 -0.22,-0.01 m 0.39,0.01 c 0.08,0 0.15,0 0.23,0 -0.07,0 -0.17,0 -0.23,0 m 0.46,0 c 0.05,0 0.11,0 0.17,0 -0.05,0 -0.12,0 -0.17,0 m 0.39,0 c 0.05,0 0.13,0 0.18,0 -0.05,0 -0.13,0 -0.18,0 m 0.38,0.01 c 0.07,0 0.14,0 0.2,0 -0.06,0 -0.13,0 -0.2,0 m 0.4,0 c 0.06,0 0.14,0 0.21,0 -0.09,0 -0.13,0 -0.21,0 m 0.41,0 c 0.05,0 0.14,0 0.19,0 -0.06,0 -0.12,0 -0.19,0 m 0.41,0.01 c 0.05,0 0.13,0 0.18,0 -0.06,0 -0.12,0 -0.18,0 m 0.42,0 c 0.05,0 0.11,0 0.16,0 -0.07,0 -0.09,0 -0.16,0 m 0.4,0.01 c 0.05,0 0.11,0 0.16,0 -0.07,0 -0.09,0 -0.16,0 m 0.41,0 c 0.05,0 0.1,0 0.15,0 -0.05,0 -0.1,0 -0.15,0 m 0.4,0.01 c 0.05,0 0.1,0 0.15,0 -0.05,0 -0.1,0 -0.15,0 m 0.42,0 c 0.05,0 0.07,0 0.12,0 -0.05,0 -0.07,0 -0.12,0 m 0.39,0.01 c 0.05,0 0.09,0 0.14,0 -0.05,0 -0.09,0 -0.14,0 m 0.39,0.01 c 0.05,0 0.1,0 0.15,0 -0.05,0 -0.1,0 -0.15,0 m 0.39,0 c 0.05,0 0.11,0 0.16,0 -0.05,0 -0.11,0 -0.16,0 m 0.42,0.01 c 0.03,0 0.1,0 0.13,0 -0.05,0 -0.08,0 -0.13,0 m 0.4,0.01 c 0.03,0 0.1,0 0.13,0 -0.05,0 -0.08,0 -0.13,0 m 0.41,0 c 0.04,0 0.08,0.01 0.12,0.01 -0.05,0 -0.07,-0.01 -0.12,-0.01 m 0.4,0.01 c 0.03,0 0.08,0 0.12,0 -0.05,0 -0.08,0 -0.12,0 m 0.4,0.01 c 0.03,0 0.08,0 0.11,0 -0.05,0 -0.06,0 -0.11,0 m 0.4,0.01 c 0.03,0 0.08,0 0.11,0 -0.05,0 -0.06,0 -0.11,0 m 0.41,0.01 c 0.04,0 0.06,0 0.09,0 -0.03,0 -0.06,0 -0.09,0 m 0.39,0.01 c 0.03,0 0.08,0 0.11,0 -0.03,0 -0.08,0 -0.11,0 m 0.39,0.01 c 0.05,0 0.07,0 0.12,0 -0.05,0 -0.07,0 -0.12,0 m 0.4,0.01 c 0.05,0 0.07,0 0.12,0 -0.05,0 -0.08,0 -0.12,0 m 0.4,0.01 c 0.05,0 0.07,0 0.12,0 -0.04,0 -0.08,0 -0.12,0 m 0.4,0.01 c 0.04,0 0.07,0 0.11,0 -0.04,0 -0.07,0 -0.11,0 m 0.41,0.01 c 0.02,0 0.08,0 0.09,0 -0.03,0 -0.05,0 -0.09,0 m 0.4,0.01 c 0.03,0 0.06,0 0.09,0 -0.03,0 -0.06,0 -0.09,0 m 0.41,0.01 c 0.02,0 0.05,0 0.07,0 -0.04,0 -0.04,0 -0.07,0 m 0.4,0.01 c 0.03,0 0.03,0 0.07,0 -0.04,0 -0.04,0 -0.07,0 m 0.4,0.01 c 0.02,0 0.04,0 0.06,0.01 -0.03,-0.01 -0.03,-0.01 -0.06,-0.01 m 0.39,0.02 c 0.04,0 0.03,0 0.07,0 -0.04,0 -0.03,0 -0.07,0 m 0.42,0.01 h 0.02 -0.02 m 0.39,0.01 c 0.02,0 0.02,0 0.04,0 h -0.04 m 0.41,0.01 0.02,0.01 -0.02,-0.01 m 0.38,0.02 c 0.02,0 0.02,0 0.04,0 h -0.04 m 0.42,0.01 v 0 0"
           style="fill:url(#linearGradient270);fill-opacity:1;fill-rule:nonzero;stroke:none"
           id="path272" /></g></g><g
       id="g274"
       transform="matrix(0.1,0,0,0.1,-217.63563,107.17735)"
       style="fill:#aa0000"><g
         id="g276"
         clip-path="url(#clipPath280)"
         style="fill:#aa0000"><path
           d="m 2676.36,2153.75 v 0 c -9.49,0 -18.9,0.32 -28.25,0.84 l -274.97,274.46 591.01,432.73 211.94,-218.31 c -5.37,-265.42 -217.4,-480.1 -481.83,-489.41 v 0 c -0.14,0 -0.25,-0.01 -0.38,-0.01 -0.02,0 -0.02,0 -0.04,0 -0.13,-0.01 -0.23,-0.01 -0.36,-0.01 l -0.02,-0.01 c -0.14,0 -0.24,0 -0.37,-0.01 -0.02,0 -0.02,0 -0.04,0 -0.13,0 -0.23,-0.01 -0.37,-0.01 h -0.02 c -0.11,0 -0.24,-0.01 -0.35,-0.01 -0.04,0 -0.03,0 -0.07,0 -0.1,-0.01 -0.23,-0.01 -0.33,-0.01 -0.02,-0.01 -0.04,-0.01 -0.06,-0.01 -0.1,0 -0.23,0 -0.33,-0.01 -0.04,0 -0.04,0 -0.07,0 -0.1,0 -0.23,-0.01 -0.33,-0.01 -0.02,0 -0.05,0 -0.07,0 -0.1,0 -0.22,-0.01 -0.32,-0.01 -0.03,0 -0.06,0 -0.09,0 -0.1,0 -0.21,-0.01 -0.31,-0.01 -0.01,0 -0.07,0 -0.09,0 -0.1,-0.01 -0.2,-0.01 -0.3,-0.01 -0.04,0 -0.07,0 -0.11,0 -0.09,-0.01 -0.19,-0.01 -0.28,-0.01 -0.05,0 -0.07,0 -0.12,0 -0.09,-0.01 -0.18,-0.01 -0.28,-0.01 -0.05,0 -0.07,0 -0.12,0 -0.09,-0.01 -0.19,-0.01 -0.28,-0.01 -0.05,0 -0.07,0 -0.12,0 -0.08,-0.01 -0.2,-0.01 -0.28,-0.01 -0.03,0 -0.08,0 -0.11,0 -0.1,-0.01 -0.2,-0.01 -0.3,-0.01 -0.03,0 -0.05,0 -0.09,0 -0.1,0 -0.2,-0.01 -0.3,-0.01 -0.03,0 -0.08,0 -0.11,0 -0.09,0 -0.2,-0.01 -0.29,-0.01 -0.03,0 -0.08,0 -0.11,0 -0.08,0 -0.2,0 -0.28,-0.01 -0.04,0 -0.09,0 -0.12,0 -0.09,0 -0.2,0 -0.28,0 -0.04,0 -0.08,-0.01 -0.12,-0.01 -0.08,0 -0.2,0 -0.28,0 -0.03,0 -0.1,0 -0.13,0 -0.09,-0.01 -0.19,-0.01 -0.27,-0.01 -0.03,0 -0.1,0 -0.13,0 -0.08,0 -0.18,0 -0.26,-0.01 -0.05,0 -0.11,0 -0.16,0 -0.08,0 -0.16,0 -0.24,0 -0.05,0 -0.1,0 -0.15,0 -0.08,-0.01 -0.17,-0.01 -0.25,-0.01 -0.05,0 -0.09,0 -0.14,0 -0.09,0 -0.19,0 -0.27,-0.01 -0.05,0 -0.07,0 -0.12,0 -0.08,0 -0.19,0 -0.27,0 -0.05,0 -0.1,0 -0.15,0 -0.08,0 -0.17,-0.01 -0.25,-0.01 -0.05,0 -0.1,0 -0.15,0 -0.08,0 -0.17,0 -0.25,0 -0.05,0 -0.11,0 -0.16,0 -0.07,0 -0.18,-0.01 -0.24,-0.01 -0.05,0 -0.11,0 -0.16,0 -0.07,0 -0.17,0 -0.24,0 -0.05,0 -0.13,0 -0.18,0 -0.07,0 -0.15,0 -0.22,-0.01 -0.05,0 -0.14,0 -0.19,0 -0.06,0 -0.14,0 -0.2,0 -0.07,0 -0.15,0 -0.21,0 -0.05,0 -0.15,0 -0.2,0 -0.06,0 -0.13,0 -0.2,0 -0.08,-0.01 -0.11,-0.01 -0.2,-0.01 -0.05,0 -0.13,0 -0.18,0 -0.09,0 -0.14,0 -0.22,0 -0.06,0 -0.12,0 -0.17,0 -0.09,0 -0.15,0 -0.23,0 -0.08,0 -0.15,0 -0.23,0 -0.07,0 -0.1,0 -0.17,0 -0.08,0 -0.13,0 -0.22,-0.01 -0.06,0 -0.12,0 -0.18,0 -0.09,0 -0.14,0 -0.22,0 -0.07,0 -0.12,0 -0.18,0 -0.07,0 -0.15,0 -0.22,0 -0.06,0 -0.12,0 -0.19,0 -0.06,0 -0.11,0 -0.18,0 -0.07,0 -0.15,0 -0.22,0 -0.05,0 -0.08,0 -0.13,0 -0.1,0 -0.17,0 -0.27,0 -0.02,0 -0.02,0 -0.03,0 -0.25,0 -0.52,0 -0.77,0 v 0"
           style="fill:#aa0000;fill-opacity:1;fill-rule:nonzero;stroke:none"
           id="path288" /></g></g><circle
       style="fill:#f9f9f9;stroke-width:0.758876"
       id="path1103"
       cx="49.758831"
       cy="-372.51501"
       transform="scale(1,-1)"
       r="37.5" /><path
       d="m 43.116971,409.64039 c -8.00434,-1.53565 -14.85179,-5.20239 -20.32351,-10.87488 -3.25176,-3.35334 -4.908911,-5.70382 -6.847461,-9.58995 -10.0992099,-20.24544 0.21887,-45.06648 21.699251,-52.24327 22.35586,-7.45885 45.74352,7.14545 49.08908,30.68157 0.969281,7.02009 -0.34394,14.98037 -3.62696,21.5617 -2.06362,4.13685 -3.62697,6.29928 -7.12886,9.80933 -5.00271,5.04569 -10.44316,8.211 -17.22808,10.0287 -2.65769,0.68948 -3.90836,0.84617 -8.28573,0.94019 -3.47063,0.0627 -5.87819,-0.0313 -7.34773,-0.31339 z m 9.44261,-6.80072 c 2.59515,-1.25358 5.315379,-4.63827 7.00379,-8.74377 0.375199,-0.94019 0.781669,-1.8177 0.906739,-1.9744 0.0938,-0.12536 1.625881,-0.0627 3.345561,0.12535 8.34827,0.9402 13.538579,-2.03708 13.538579,-7.80358 0,-2.78923 -2.094879,-7.23947 -5.096509,-10.87487 l -0.7504,-0.90886 1.65714,-2.22511 c 2.43882,-3.25933 3.62697,-6.04857 3.81457,-8.96316 0.12507,-2.19378 0.0625,-2.56985 -0.71914,-3.98014 -0.93801,-1.72368 -2.34502,-2.88325 -4.533701,-3.69808 -1.532079,-0.56411 -7.035059,-0.78349 -9.724019,-0.37608 l -1.46954,0.21938 -0.53154,-1.47296 c -1.688421,-4.54426 -4.56497,-8.43038 -7.22266,-9.77799 -1.93855,-0.97153 -4.43991,-1.03421 -6.22212,-0.1567 -2.72022,1.31627 -5.690581,5.20239 -7.37899,9.62129 l -0.68788,1.8177 -1.28194,-0.25072 c -2.56389,-0.43875 -8.0356,-0.25072 -9.84908,0.37608 -2.12616,0.72081 -4.22104,2.63254 -4.90891,4.45023 -1.219411,3.19665 0.15633,7.89761 3.62696,12.47321 1.28195,1.72368 1.43828,2.09976 1.06308,2.41315 -0.25014,0.21938 -1.28195,1.62967 -2.31376,3.16531 -3.595691,5.39043 -4.0647,9.87201 -1.37574,13.06865 2.00108,2.35048 6.47225,3.44737 11.56876,2.85191 3.5957,-0.40741 3.8771,-0.40741 3.8771,0.094 0,0.21938 0.625339,1.72369 1.40701,3.35335 1.09434,2.22512 1.90729,3.38469 3.53317,4.98302 1.21941,1.25358 2.56389,2.25645 3.18922,2.44449 1.81349,0.56412 4.033439,0.4701 5.53425,-0.25072 z"
       id="path4"
       style="fill:url(#linearGradient977);fill-opacity:1;stroke:none;stroke-width:0.0313032" /><path
       d="m 47.994611,400.92795 c -1.65715,-0.47009 -4.12724,-3.22799 -5.59678,-6.29928 -0.719141,-1.47296 -1.31321,-2.85191 -1.31321,-3.10263 0,-0.28205 0.594069,-0.59545 1.50081,-0.84617 0.81294,-0.18804 2.68896,-0.84617 4.1585,-1.41029 l 2.720219,-1.00286 2.720231,1.0342 c 1.53208,0.56412 3.37682,1.22225 4.12723,1.41029 0.781669,0.18804 1.46955,0.53278 1.563349,0.78349 0.250131,0.68948 -2.188689,5.42177 -3.720769,7.11411 -1.31321,1.53565 -3.28302,2.69522 -4.47117,2.66388 -0.34393,0 -1.09434,-0.1567 -1.68841,-0.34474 z"
       id="path6"
       style="fill:url(#linearGradient979);fill-opacity:1;stroke:none;stroke-width:0.0313032" /><path
       d="m 28.015041,389.45762 c -5.15904,-1.84904 -5.31538,-6.45598 -0.43773,-13.16267 l 1.43827,-1.94306 0.78168,0.72081 c 4.00216,3.57273 3.93963,3.51005 3.84583,4.51292 -0.12507,1.3476 0.68787,2.85191 1.90728,3.41602 0.93801,0.43876 1.03181,0.65814 1.65715,3.44737 0.34393,1.66101 0.50027,3.07129 0.34393,3.16531 -0.15633,0.094 -1.96981,0.21938 -4.0647,0.28206 -3.18922,0.12536 -4.09596,0.0627 -5.47171,-0.43876 z"
       id="path8"
       style="fill:url(#linearGradient981);fill-opacity:1;stroke:none;stroke-width:0.0313032" /><path
       d="m 62.377391,389.80236 c -1.15687,-0.1567 -1.15687,-0.0627 -0.31266,-4.23086 0.3752,-1.84904 0.53153,-2.16244 1.28194,-2.47584 1.34448,-0.56411 2.12615,-1.88038 2.12615,-3.54138 0,-0.78349 0.0938,-1.44163 0.25014,-1.44163 0.12506,0 1.12561,-0.87751 2.219949,-1.91172 l 1.969811,-1.84904 1.407019,1.78636 c 5.002701,6.45598 4.877641,11.87775 -0.343939,13.41339 -1.46955,0.43876 -5.94072,0.56412 -8.59841,0.25072 z"
       id="path10"
       style="fill:url(#linearGradient983);fill-opacity:1;stroke:none;stroke-width:0.0313032" /><path
       d="m 55.717541,388.04734 c -1.68841,-0.53278 -3.06416,-1.03421 -3.06416,-1.12823 0,-0.25072 6.78492,-4.1055 7.19139,-4.1055 0.187609,0 0.31267,0.21938 0.31267,0.50143 0,0.6268 -0.96927,4.889 -1.21941,5.35909 -0.12507,0.25072 -1.063071,0.0627 -3.22049,-0.62679 z"
       id="path12"
       style="fill:url(#linearGradient985);fill-opacity:1;stroke:none;stroke-width:0.0313032" /><path
       d="m 39.865211,387.60858 c -0.71915,-2.75789 -0.96928,-4.29354 -0.71915,-4.54425 0.12508,-0.12536 1.844759,0.65813 3.78331,1.75502 2.93909,1.69234 3.40809,2.06842 2.93909,2.31914 -0.75041,0.40741 -4.721311,1.62966 -5.284111,1.62966 -0.218869,0 -0.562809,-0.53278 -0.719139,-1.15957 z"
       id="path14"
       style="fill:url(#linearGradient987);fill-opacity:1;stroke:none;stroke-width:0.0313032" /><path
       d="m 45.868461,383.78514 c -4.22104,-2.22512 -4.97144,-2.78923 -4.846381,-3.69809 0.156341,-1.03421 -0.81294,-2.85191 -1.813479,-3.44736 -1.15687,-0.65813 -1.37575,-2.09976 -1.06307,-6.89474 l 0.21886,-3.60406 2.53263,-1.62966 c 1.40701,-0.90886 3.22049,-2.03709 4.0647,-2.50718 1.46954,-0.87751 1.56334,-0.87751 2.595149,-0.37608 1.34448,0.65814 2.72022,0.6268 3.845831,-0.0313 0.84421,-0.50144 0.93801,-0.47009 2.84529,0.59545 1.09435,0.59546 3.00163,1.72369 4.22104,2.50718 l 2.21995,1.44162 0.187599,2.13111 c 0.12507,1.1909 0.218871,3.38468 0.218871,4.88899 v 2.69521 l -1.031811,0.65813 c -1.281939,0.7835 -1.90728,1.91173 -1.876009,3.32201 0.0313,1.03421 -0.0938,1.15957 -2.34502,2.4445 -2.25122,1.31627 -6.19085,3.35335 -6.378461,3.35335 -0.0625,0 -1.65714,-0.84618 -3.595689,-1.84904 z m 5.56551,-5.07703 c 2.75149,-0.94019 4.47117,-3.32201 4.47117,-6.2366 0,-3.63541 -2.68895,-6.26794 -6.37845,-6.26794 -3.6895,0 -6.37846,2.63253 -6.37846,6.26794 0,4.45024 4.18977,7.58421 8.28574,6.2366 z"
       id="path16"
       style="fill:url(#linearGradient989);fill-opacity:1;stroke:none;stroke-width:0.0313032" /><path
       d="m 46.681401,375.32342 c -1.03181,-1.03421 -1.21941,-1.41028 -1.21941,-2.56986 0,-0.81483 0.25013,-1.78636 0.62534,-2.38181 2.157409,-3.57273 7.50406,-1.91172 7.50406,2.38181 0,1.15958 -0.1876,1.53565 -1.21941,2.56986 -1.09434,1.09689 -1.37575,1.22225 -2.84529,1.22225 -1.46955,0 -1.75095,-0.12536 -2.84529,-1.22225 z"
       id="path18"
       style="fill:url(#linearGradient991);fill-opacity:1;stroke:none;stroke-width:0.0313032" /><path
       d="m 32.830151,374.63395 -2.09489,-1.94306 0.71914,-0.75216 c 0.40647,-0.43875 1.53208,-1.5043 2.53263,-2.35047 l 1.78221,-1.56699 v 4.2622 c 0,3.38469 -0.0938,4.2622 -0.43774,4.2622 -0.21887,0 -1.34447,-0.87751 -2.50135,-1.91172 z"
       id="path20-5"
       style="fill:url(#linearGradient993);fill-opacity:1;stroke:none;stroke-width:0.0313032" /><path
       d="m 63.503001,376.32629 c -0.31267,-0.28206 -0.2814,-7.92894 0.0313,-7.92894 0.12507,0 1.250679,0.97153 2.53262,2.1311 l 2.313749,2.09976 -2.126149,1.9744 c -2.157411,1.9744 -2.37628,2.09976 -2.75149,1.72368 z"
       id="path22"
       style="fill:url(#linearGradient995);fill-opacity:1;stroke:none;stroke-width:0.0313032" /><path
       d="m 27.702371,369.02414 c -4.2523,-5.82918 -4.50244,-10.53013 -0.59407,-12.6299 1.18814,-0.62679 1.75095,-0.68947 5.75312,-0.68947 2.43882,0 4.50243,0.094 4.6275,0.21938 0.1876,0.1567 -0.12507,2.09976 -1.28194,8.27368 -0.0625,0.34473 -1.12561,1.5043 -2.37629,2.56985 -1.25068,1.03421 -2.84529,2.38182 -3.53316,2.97727 l -1.25068,1.09689 z"
       id="path24"
       style="fill:url(#linearGradient997);fill-opacity:1;stroke:none;stroke-width:0.0313032" /><path
       d="m 68.411911,369.61959 c -0.50027,-0.53277 -1.90728,-1.8177 -3.15796,-2.82057 -2.06362,-1.72368 -2.25122,-1.9744 -2.43882,-3.35335 -0.12507,-0.81483 -0.50027,-2.78923 -0.844211,-4.38755 -0.343929,-1.62967 -0.531529,-3.00861 -0.43773,-3.10263 0.375201,-0.40742 5.190311,-0.65813 7.09759,-0.37608 2.56389,0.34474 3.314291,0.62679 4.596241,1.69235 1.93855,1.62966 2.06362,4.35621 0.34393,8.02296 -1.09434,2.31914 -3.25176,5.2964 -3.81456,5.2964 -0.21887,0 -0.81294,-0.43875 -1.34448,-0.97153 z"
       id="path26"
       style="fill:url(#linearGradient999);fill-opacity:1;stroke:none;stroke-width:0.0313032" /><path
       d="m 56.718081,361.00118 c -1.81348,-1.09689 -3.31429,-2.19378 -3.37683,-2.4445 -0.0625,-0.34473 0.65661,-0.68947 2.56389,-1.28492 1.46955,-0.43876 2.814019,-0.75216 2.97036,-0.65814 0.12507,0.094 0.375199,0.62679 0.469,1.19091 0.75041,3.44737 1.03181,5.26507 0.844209,5.23373 -0.0938,-0.0313 -1.657149,-0.94019 -3.470629,-2.03708 z"
       id="path28"
       style="fill:url(#linearGradient1001);fill-opacity:1;stroke:none;stroke-width:0.0313032" /><path
       d="m 38.895931,362.22343 c 0,-0.68948 1.12561,-5.39043 1.313209,-5.60981 0.312671,-0.28205 5.565521,1.53565 5.565521,1.94306 0,0.25072 -0.56281,0.72081 -1.28195,1.06555 -0.68787,0.37608 -2.18868,1.22225 -3.28303,1.91172 -1.09434,0.65814 -2.09488,1.22225 -2.15742,1.22225 -0.0938,0 -0.15633,-0.25072 -0.15633,-0.53277 z"
       id="path30"
       style="fill:url(#linearGradient1003);fill-opacity:1;stroke:none;stroke-width:0.0313032" /><path
       d="m 43.711041,355.07798 -2.845291,-0.94019 0.40647,-1.19091 c 0.625341,-1.78636 2.532621,-5.26507 3.501891,-6.36196 3.4081,-3.85479 7.2852,-3.44737 10.38062,1.09689 1.15688,1.72368 3.3143,6.2366 3.06416,6.45598 -0.0625,0.0313 -1.37574,0.47009 -2.93909,0.94019 -2.75149,0.81483 -2.87656,0.84617 -3.6895,0.3134 -1.09434,-0.72082 -3.12669,-0.72082 -4.189761,0.0313 -0.844209,0.59546 -0.875479,0.59546 -3.689499,-0.34473 z"
       id="path32"
       style="fill:url(#linearGradient1005);fill-opacity:1;stroke:none;stroke-width:0.0313032" /></g></svg>
