<?xml version="1.0" encoding="UTF-8" standalone="no"?>
<svg
   xmlns:dc="http://purl.org/dc/elements/1.1/"
   xmlns:cc="http://creativecommons.org/ns#"
   xmlns:rdf="http://www.w3.org/1999/02/22-rdf-syntax-ns#"
   xmlns:svg="http://www.w3.org/2000/svg"
   xmlns="http://www.w3.org/2000/svg"
   xmlns:sodipodi="http://sodipodi.sourceforge.net/DTD/sodipodi-0.dtd"
   xmlns:inkscape="http://www.inkscape.org/namespaces/inkscape"
   version="1.0"
   width="2047.000000pt"
   height="2047.000000pt"
   viewBox="0 0 2047.000000 2047.000000"
   preserveAspectRatio="xMidYMid meet"
   id="svg52"
   sodipodi:docname="vlab.svg"
   inkscape:version="1.0.1 (3bc2e813f5, 2020-09-07)">
  <defs
     id="defs56" />
  <sodipodi:namedview
     pagecolor="#ffffff"
     bordercolor="#666666"
     borderopacity="1"
     objecttolerance="10"
     gridtolerance="10"
     guidetolerance="10"
     inkscape:pageopacity="0"
     inkscape:pageshadow="2"
     inkscape:window-width="1920"
     inkscape:window-height="1001"
     id="namedview54"
     showgrid="false"
     inkscape:zoom="0.30410357"
     inkscape:cx="1364.6667"
     inkscape:cy="1393.0287"
     inkscape:window-x="-9"
     inkscape:window-y="-9"
     inkscape:window-maximized="1"
     inkscape:current-layer="svg52" />
  <metadata
     id="metadata2">
Created by potrace 1.16, written by Peter Selinger 2001-2019
<rdf:RDF>
  <cc:Work
     rdf:about="">
    <dc:format>image/svg+xml</dc:format>
    <dc:type
       rdf:resource="http://purl.org/dc/dcmitype/StillImage" />
  </cc:Work>
</rdf:RDF>
</metadata>
  <g
     transform="matrix(0.1,0,0,-0.10024333,0,2051.9809)"
     fill="#000000"
     stroke="none"
     id="g50"
     style="fill:#b70f4d;fill-opacity:1">
    <path
       d="M 7,20463 C 3,20460 0,15854 0,10228 V 0 H 10235 20470 V 10235 20470 H 10242 c -5626,0 -10232,-3 -10235,-7 z m 10332,-2302 c 87,-69 285,-149 621,-251 420,-128 601,-208 725,-322 81,-74 115,-142 115,-227 v -60 l 35,24 c 57,38 101,48 179,42 182,-15 351,-128 754,-504 247,-231 425,-368 512,-394 l 37,-11 -5,-102 c -5,-114 21,-309 64,-486 94,-388 126,-579 126,-755 0,-105 -3,-142 -21,-196 -27,-86 -69,-142 -133,-178 l -52,-30 28,-11 c 94,-36 159,-138 178,-283 21,-159 -10,-383 -117,-832 -51,-215 -78,-410 -72,-521 l 4,-92 -53,-22 c -98,-40 -234,-146 -464,-360 -313,-291 -438,-391 -580,-464 -100,-52 -153,-67 -226,-67 -66,0 -118,15 -161,48 l -33,24 6,-44 c 13,-95 -40,-198 -146,-281 -127,-100 -311,-177 -700,-296 -336,-102 -540,-185 -614,-251 l -36,-31 -45,37 c -86,71 -246,133 -750,290 -291,91 -458,168 -571,263 -92,78 -128,144 -129,234 0,37 -1,68 -2,68 -1,0 -24,-14 -51,-31 -85,-53 -216,-48 -336,13 -111,56 -291,188 -421,308 -27,26 -117,109 -200,186 -223,207 -410,346 -482,360 -32,6 -34,8 -26,38 24,92 -5,318 -84,656 -76,328 -103,496 -103,639 0,65 5,142 10,172 20,106 82,193 161,228 l 38,18 -32,15 c -212,101 -235,369 -87,998 82,350 102,478 98,629 l -3,103 46,17 c 87,33 244,152 427,322 329,306 444,401 581,482 111,65 183,90 267,91 61,1 79,-3 134,-31 l 63,-33 -6,35 c -8,49 18,140 53,189 108,148 320,245 949,437 200,60 417,157 462,205 12,13 24,24 27,24 2,0 21,-13 41,-29 z M 7376,12510 c 123,-63 210,-207 237,-393 l 12,-80 70,-32 c 84,-38 278,-103 434,-145 62,-17 122,-35 133,-41 58,-31 62,-158 13,-349 -5,-23 1,-30 60,-68 252,-160 686,-298 1145,-362 315,-45 899,-63 1250,-41 450,29 855,106 1182,225 198,72 438,200 438,234 0,9 -7,41 -14,70 -35,130 -29,240 15,281 12,11 51,27 87,36 153,39 364,106 458,146 l 100,43 21,109 c 48,252 176,393 369,405 109,7 158,-3 199,-43 l 36,-33 -3,-138 -3,-139 53,-115 c 70,-149 89,-232 72,-308 -11,-48 -21,-64 -79,-122 -36,-36 -82,-78 -101,-92 l -35,-26 77,-158 c 108,-222 111,-233 112,-399 0,-110 -3,-148 -16,-177 -28,-62 -46,-52 -114,62 -21,36 -66,93 -100,128 -55,57 -65,63 -95,60 -32,-3 -37,-8 -77,-90 -32,-66 -47,-88 -62,-88 -23,0 -26,13 -35,120 -7,86 -26,176 -57,270 -11,36 -21,66 -22,67 -1,2 -25,-6 -53,-17 -27,-10 -92,-31 -144,-46 -52,-14 -96,-28 -98,-30 -2,-2 18,-27 44,-56 71,-79 83,-131 45,-193 -40,-65 -347,-241 -599,-344 -380,-156 -812,-258 -1341,-317 -193,-21 -925,-31 -1152,-15 -567,40 -1065,144 -1508,316 -211,81 -530,255 -612,333 -34,32 -52,82 -43,123 4,18 32,58 63,92 l 55,60 -109,33 c -60,17 -128,39 -152,48 l -43,15 -10,-27 c -27,-71 -60,-217 -69,-312 -6,-58 -15,-109 -20,-113 -21,-22 -45,1 -72,67 -35,85 -52,106 -90,106 -41,0 -130,-92 -193,-199 -27,-46 -55,-86 -63,-89 -7,-2 -23,5 -35,17 -20,20 -22,34 -25,166 -5,179 7,223 113,438 l 74,149 -77,61 c -106,86 -135,130 -140,213 -5,81 8,131 72,269 l 51,110 v 140 c 0,160 6,177 68,206 35,16 59,19 139,17 87,-3 103,-7 164,-38 z m 3959,-2279 c 22,-10 56,-35 74,-57 49,-55 111,-154 111,-176 0,-15 8,-18 50,-18 47,0 51,-2 76,-41 14,-22 23,-44 19,-47 -3,-4 -25,-7 -48,-7 h -42 l -3,-232 c -1,-128 -5,-233 -8,-233 -3,0 -25,14 -49,30 l -44,31 -3,117 -3,117 h -68 c -63,0 -71,-2 -93,-28 -41,-48 -25,-137 41,-224 25,-32 25,-32 4,-38 -16,-5 -28,1 -50,27 -46,53 -97,159 -104,213 -7,60 6,90 54,122 29,20 47,23 128,23 h 94 l -3,38 -3,37 h -200 -200 l -3,-232 c -1,-128 -5,-233 -9,-233 -3,0 -26,11 -50,25 l -43,26 v 64 65 h -80 -80 v -30 c 0,-59 -59,-52 -126,15 -59,60 -58,115 3,115 19,0 23,5 23,30 0,22 -5,30 -18,30 -30,0 -107,55 -131,93 -21,34 -23,35 -86,36 l -65,1 v -40 c 0,-31 5,-43 24,-55 33,-22 58,-78 58,-131 0,-51 -35,-128 -82,-184 l -29,-35 -41,41 -41,40 60,60 c 80,80 92,133 34,155 -41,15 -85,-20 -124,-97 l -35,-72 -39,19 c -21,10 -40,21 -42,23 -3,2 5,23 17,46 l 21,42 -22,19 c -52,45 -119,3 -119,-74 0,-47 25,-94 82,-154 28,-29 33,-63 10,-63 -22,0 -115,86 -151,142 -34,50 -41,69 -41,110 0,79 55,138 130,138 37,0 65,-13 103,-48 l 27,-26 28,26 c 15,14 37,31 50,37 18,10 22,19 20,44 l -3,32 -206,3 -206,2 -21,39 c -12,21 -22,41 -22,45 0,3 146,6 324,6 h 324 l 23,-37 22,-38 7,31 c 9,42 16,52 52,70 40,21 89,13 135,-22 61,-46 73,-77 73,-186 v -98 h 80 81 l -3,93 -3,92 -45,2 c -25,1 -50,2 -56,2 -10,1 -64,73 -64,86 0,3 160,5 355,5 h 355 l -60,79 c -62,80 -78,91 -141,91 -32,0 -37,4 -56,44 -12,24 -19,47 -16,50 12,12 69,5 108,-13 z M 6858,9986 c 37,-19 89,-75 101,-109 16,-41 13,-99 -5,-125 -15,-22 -14,-23 31,-42 26,-11 51,-20 56,-20 5,0 9,40 9,89 0,79 -3,93 -22,114 -13,14 -31,39 -41,56 l -18,31 h 1263 1263 l 23,-40 c 12,-21 22,-43 22,-47 0,-4 -21,-8 -47,-8 h -48 l -3,-232 c -1,-128 -5,-233 -8,-233 -3,0 -25,12 -50,26 l -44,26 v 89 90 l -67,-3 -68,-3 -3,-35 c -4,-44 -14,-54 -47,-46 -31,8 -85,88 -85,126 0,45 15,50 147,50 h 123 v 74 73 l -190,2 -190,2 v -235 c 0,-130 -3,-236 -7,-236 -5,0 -28,14 -53,30 l -45,30 -5,202 -5,203 h -80 -80 l -3,-232 c -1,-128 -5,-233 -8,-233 -3,0 -25,14 -50,30 -39,28 -44,35 -44,70 0,22 -3,40 -6,40 -3,0 -20,-10 -37,-22 -18,-13 -50,-23 -81,-26 -45,-3 -57,0 -101,30 -58,39 -115,117 -115,160 0,131 174,180 289,82 21,-19 42,-34 45,-34 3,0 6,32 6,70 v 70 h -230 -230 v -235 c 0,-129 -3,-235 -7,-235 -3,0 -28,14 -55,31 l -48,31 v 204 204 h -75 -75 v -85 -85 h -111 -111 l -29,-31 c -71,-76 -12,-209 89,-201 36,3 42,10 31,39 -13,34 10,69 50,78 39,8 69,-11 91,-59 20,-43 14,-79 -17,-101 -15,-11 -12,-18 20,-72 21,-33 37,-66 37,-72 0,-9 -39,-31 -54,-31 -2,0 -11,18 -21,40 -10,22 -21,40 -24,40 -3,0 -16,-16 -29,-36 -14,-22 -41,-43 -67,-55 -37,-17 -51,-18 -92,-9 -66,15 -122,54 -129,89 -5,26 -11,29 -56,34 -90,11 -168,74 -168,137 0,85 116,135 175,75 38,-37 31,-123 -13,-149 -12,-7 -12,-10 -1,-17 18,-11 69,-11 69,0 0,5 11,16 25,25 23,15 27,15 69,-12 l 45,-29 -29,-22 c -58,-42 -24,-108 41,-81 27,12 89,91 89,115 0,7 -16,12 -36,13 -45,2 -90,29 -144,88 -71,77 -89,157 -50,222 33,54 74,72 163,72 h 77 v 40 39 l -297,-2 -298,-2 -3,-232 c -1,-128 -6,-233 -10,-233 -4,0 -25,11 -47,23 -39,22 -40,24 -43,86 -2,46 -6,61 -16,58 -7,-3 -63,-40 -125,-82 l -113,-78 -34,35 -35,34 129,80 130,79 -40,23 -39,24 -52,-35 c -29,-19 -76,-47 -105,-61 -49,-25 -55,-26 -75,-12 -42,29 -61,46 -56,49 2,2 41,23 87,47 45,23 82,45 82,49 -1,3 -18,18 -40,33 -47,33 -69,64 -76,110 -5,27 -1,41 22,67 15,18 37,37 48,41 33,13 84,11 114,-4 z m 7031,-43 c 10,-21 18,-42 17,-47 0,-6 -20,-9 -43,-7 l -43,3 v -236 c 0,-130 -3,-236 -8,-236 -10,0 -85,51 -94,64 -4,6 -8,35 -8,64 v 52 h -79 -80 l -3,-32 c -5,-51 -37,-49 -96,6 -62,58 -80,90 -62,111 7,8 21,15 31,15 17,0 19,9 19,95 v 95 h -85 -85 v -235 c 0,-129 -4,-235 -9,-235 -5,0 -29,12 -55,26 l -46,26 v 89 90 l -67,-3 -68,-3 -5,-40 c -7,-58 -36,-59 -83,-4 -41,47 -54,88 -37,118 10,20 20,21 135,21 h 125 v 75 75 h -190 -190 v -235 c 0,-129 -2,-235 -5,-235 -5,0 -83,47 -93,55 -8,7 -11,53 -11,228 l -1,188 -82,-3 -81,-3 -1,-232 c 0,-128 -4,-233 -9,-233 -5,0 -28,12 -53,26 l -44,26 v 124 124 h -87 -87 l 31,-32 c 77,-80 69,-182 -17,-218 -16,-7 -30,-14 -30,-17 0,-2 18,-30 40,-63 l 39,-58 -24,-16 -25,-17 -34,74 c -31,69 -37,75 -76,88 -79,25 -105,103 -44,131 21,10 29,8 54,-11 28,-20 31,-21 61,-5 29,14 31,19 26,55 -7,51 -41,92 -100,120 -31,15 -47,28 -45,38 3,14 27,16 161,19 l 157,3 v 40 40 l -167,-1 c -93,0 -180,-1 -195,0 -22,0 -32,8 -48,40 -11,21 -20,42 -20,45 0,3 427,5 950,5 h 950 z M 9436,9361 c 21,-16 75,-65 119,-110 76,-77 79,-82 62,-98 -17,-17 -21,-15 -79,47 -33,35 -76,77 -96,92 -36,29 -80,36 -99,17 -7,-7 -17,-1 -33,22 -23,31 -23,32 -5,45 32,24 88,17 131,-15 z m 4441,-60 c 55,-49 106,-100 115,-113 15,-22 15,-25 0,-35 -14,-8 -34,6 -110,78 -95,91 -118,102 -162,79 -16,-9 -22,-5 -35,21 -22,41 -6,59 50,59 40,0 50,-6 142,-89 z M 6530,8791 c 0,-7 62,-140 355,-756 26,-55 80,-170 120,-255 40,-85 164,-346 275,-580 111,-234 214,-450 228,-480 l 25,-54 17,39 c 10,22 59,132 110,245 186,411 683,1514 803,1783 20,44 33,64 38,55 4,-7 44,-119 89,-248 45,-129 97,-278 115,-330 18,-52 54,-156 80,-230 26,-74 57,-164 70,-200 24,-66 45,-125 320,-915 173,-495 220,-621 289,-769 l 46,-99 -122,6 c -254,12 -407,86 -486,235 -18,33 -86,214 -152,403 -67,189 -134,380 -150,424 -15,44 -78,222 -139,396 -61,173 -113,323 -117,333 -4,12 -51,-81 -145,-291 -76,-169 -279,-622 -451,-1005 -172,-384 -316,-698 -319,-698 -3,0 -30,51 -59,113 -30,61 -92,191 -138,287 -46,96 -106,220 -132,275 -396,832 -634,1325 -640,1325 -3,0 -11,-15 -17,-32 -191,-555 -526,-1496 -549,-1542 -64,-132 -180,-214 -314,-224 -38,-2 -70,-2 -70,0 0,3 31,74 69,159 37,85 123,312 191,504 67,193 153,438 190,545 38,107 111,317 163,465 99,283 146,416 299,857 80,231 108,298 108,259 z m 10220,-266 c 67,-148 147,-324 177,-390 31,-66 226,-496 435,-955 374,-823 433,-947 523,-1094 25,-41 45,-77 45,-80 0,-12 -177,-6 -265,9 -160,26 -235,58 -322,139 -73,67 -83,85 -264,481 l -147,320 -425,3 c -332,2 -426,-1 -434,-10 -5,-7 -72,-150 -148,-318 -173,-383 -197,-430 -258,-497 -58,-63 -116,-99 -189,-119 -47,-12 -168,-20 -168,-10 0,2 25,46 56,97 104,174 102,169 1111,2389 135,297 143,313 148,308 2,-1 58,-124 125,-273 z m -12630,18 c 62,-137 157,-345 211,-463 53,-118 183,-404 289,-635 105,-231 264,-580 353,-775 158,-347 220,-471 298,-597 22,-34 39,-66 39,-69 0,-12 -254,4 -330,21 -110,25 -211,76 -273,140 -55,55 -91,121 -202,365 -32,69 -84,184 -117,255 -33,72 -64,140 -69,153 l -9,22 h -428 -429 l -21,-47 c -25,-59 -245,-541 -275,-603 -72,-149 -158,-243 -255,-281 -55,-21 -212,-39 -212,-25 0,4 20,40 44,79 107,177 149,266 671,1417 125,276 540,1187 575,1263 7,15 16,27 20,27 4,0 58,-111 120,-247 z m 6970,158 c 298,-81 495,-256 567,-505 31,-105 33,-267 4,-376 -56,-220 -182,-376 -395,-491 -74,-40 -231,-99 -264,-99 -53,-1 -46,-16 115,-231 88,-118 240,-322 338,-454 229,-307 281,-373 374,-467 l 76,-78 h -85 c -232,1 -437,64 -554,171 -32,30 -182,221 -358,457 -167,224 -349,467 -404,542 l -102,135 182,12 c 296,19 406,53 515,162 111,112 161,252 161,455 0,203 -44,329 -153,440 -140,143 -259,169 -669,150 l -135,-7 -7,-1101 c -4,-682 -11,-1125 -17,-1163 -27,-157 -145,-238 -365,-250 l -100,-6 13,94 c 16,111 31,966 32,1834 0,517 -3,617 -25,752 l -6,43 223,3 c 123,2 388,3 589,2 347,-1 369,-2 450,-24 z m 1756,12 c -3,-10 -13,-70 -22,-133 -16,-102 -18,-249 -21,-1347 l -4,-1233 h -260 -259 l 2,1233 3,1232 33,67 c 66,134 200,195 430,197 94,1 103,-1 98,-16 z m 2851,-37 c -10,-99 -75,-184 -157,-206 -30,-8 -144,-8 -416,0 -206,7 -381,9 -389,6 -13,-5 -15,-165 -15,-1236 V 6010 h -280 -280 v 1235 1235 h -58 c -32,0 -208,-5 -391,-11 -299,-9 -336,-9 -381,6 -76,25 -132,106 -146,209 l -7,46 h 1263 1263 z M 6390,5440 c 67,-140 139,-291 160,-335 24,-51 40,-75 44,-65 3,8 48,136 101,284 99,282 113,308 173,325 36,11 37,10 18,-27 -12,-25 -75,-199 -241,-677 -36,-104 -68,-197 -71,-205 -7,-17 -3,-25 -198,385 -78,165 -145,300 -149,300 -4,0 -78,-157 -164,-349 -152,-337 -158,-347 -170,-320 -7,16 -73,203 -147,416 -74,213 -144,409 -156,434 -11,26 -19,49 -17,51 2,2 27,-1 55,-7 56,-10 102,-30 119,-52 6,-7 55,-138 108,-291 54,-153 101,-274 105,-270 3,4 29,60 57,123 28,63 84,187 123,275 40,88 83,184 96,214 13,30 26,52 28,50 2,-2 59,-119 126,-259 z m 1075,-165 c 102,-225 197,-429 210,-452 12,-23 21,-44 18,-47 -6,-5 -62,2 -113,15 -54,13 -85,53 -144,185 l -54,119 h -153 -154 l -56,-125 c -60,-132 -99,-184 -145,-193 -16,-3 -30,-4 -32,-2 -1,1 13,33 32,71 28,56 314,680 374,816 9,21 20,34 24,30 4,-4 91,-191 193,-417 z m 4058,200 c 163,-362 277,-608 302,-652 13,-24 20,-45 17,-47 -11,-6 -117,11 -138,22 -38,20 -65,60 -119,177 l -55,120 -152,2 -153,3 -59,-131 c -33,-72 -67,-140 -75,-150 -14,-18 -91,-52 -99,-44 -2,1 28,67 66,146 38,79 133,287 212,462 79,174 147,314 151,310 4,-5 50,-102 102,-218 z m 4833,-212 c 102,-224 194,-423 205,-441 10,-18 19,-37 19,-41 0,-13 -91,0 -136,19 -47,20 -65,47 -135,203 l -44,97 h -151 -152 l -20,-47 c -54,-125 -104,-221 -125,-241 -29,-27 -87,-46 -87,-29 0,7 9,27 21,46 11,19 40,77 64,130 23,53 102,227 175,386 73,160 139,306 147,325 12,28 17,31 24,18 5,-9 93,-200 195,-425 z m 759,82 c 92,-195 169,-354 170,-353 1,2 41,91 89,198 226,504 230,511 239,494 5,-8 26,-66 47,-127 21,-62 66,-191 100,-287 34,-96 79,-225 100,-287 21,-61 48,-132 59,-157 11,-25 17,-47 13,-50 -13,-8 -114,13 -138,29 -34,22 -43,44 -144,331 -49,141 -91,259 -93,261 -4,4 -11,-11 -184,-397 -63,-140 -118,-259 -122,-263 -4,-4 -25,30 -46,75 -21,46 -85,180 -143,298 -57,118 -111,232 -119,253 -9,21 -19,35 -23,30 -4,-4 -24,-57 -45,-118 -99,-289 -155,-439 -172,-458 -18,-20 -82,-52 -89,-44 -2,2 5,25 17,51 11,27 66,177 121,334 168,483 189,542 192,542 2,0 78,-160 171,-355 z M 2827,5630 c 23,-10 48,-29 56,-42 9,-12 73,-148 143,-301 70,-153 131,-274 135,-270 4,4 66,136 138,292 72,156 140,295 153,308 20,22 75,44 89,37 4,-2 -10,-36 -31,-76 -21,-40 -115,-244 -210,-453 -95,-209 -175,-383 -179,-388 -4,-4 -85,165 -181,375 -95,211 -190,418 -211,460 -22,43 -39,79 -39,81 0,10 100,-7 137,-23 z m 1005,-407 -3,-433 h -75 -75 l 3,400 3,400 27,27 c 19,19 42,29 75,33 27,3 48,6 48,5 0,0 -1,-195 -3,-432 z m 1050,410 c 15,-7 32,-22 38,-32 6,-11 10,-91 10,-186 v -165 l 195,2 195,3 3,160 c 3,172 8,195 55,219 38,20 108,24 104,6 -3,-15 -3,-835 1,-853 2,-13 -62,-11 -99,3 -48,19 -56,48 -60,223 l -3,162 h -193 -193 l -5,-170 c -3,-93 -9,-176 -13,-183 -13,-20 -59,-40 -100,-43 l -38,-4 v 438 c 0,240 1,439 1,441 0,8 75,-7 102,-21 z m 3391,-5 c 21,-10 47,-33 57,-51 11,-18 75,-152 142,-299 67,-148 125,-268 128,-268 3,0 12,15 19,33 112,254 257,557 275,575 18,19 96,49 96,37 0,-1 -11,-22 -24,-46 -14,-24 -109,-228 -211,-454 -102,-225 -189,-413 -193,-417 -4,-4 -81,156 -171,355 -90,199 -186,407 -213,461 -26,54 -48,100 -48,101 0,9 114,-12 143,-27 z m 1004,-35 c -4,-38 -7,-233 -7,-435 v -368 h -75 -76 l 3,400 3,400 27,27 c 24,23 47,31 122,42 5,0 6,-28 3,-66 z m 1074,46 c 25,-6 62,-23 81,-39 27,-23 114,-131 224,-278 9,-12 32,13 124,137 69,93 124,158 144,168 32,17 116,34 116,24 0,-3 -18,-23 -39,-46 -75,-78 -269,-342 -280,-381 -6,-22 -11,-127 -11,-236 v -198 h -75 -75 v 193 c -1,130 -5,203 -14,227 -14,40 -177,258 -273,366 -35,40 -63,75 -63,78 0,7 77,-1 141,-15 z m 4650,7 c 68,-12 73,-27 79,-220 l 5,-171 198,-3 197,-2 v 165 c 0,95 4,175 10,186 14,25 57,46 103,50 l 38,4 v -440 -440 l -23,3 c -122,14 -122,14 -128,226 l -5,171 h -195 -195 l -5,-171 c -6,-212 -6,-212 -128,-226 l -22,-3 v 435 c 0,239 0,439 0,443 0,5 8,6 18,4 9,-3 33,-8 53,-11 z m -10472,-2 c 69,-8 76,-20 35,-61 -23,-23 -31,-25 -77,-19 -195,23 -245,19 -301,-25 -34,-27 -49,-82 -33,-121 10,-25 43,-45 212,-131 189,-96 202,-105 233,-152 31,-46 34,-55 30,-116 -3,-51 -10,-76 -30,-107 -36,-53 -102,-98 -174,-117 -60,-16 -253,-20 -351,-9 l -52,7 30,44 c 25,36 35,44 53,39 73,-18 220,-27 274,-15 68,14 132,69 132,114 0,58 -24,78 -212,171 -193,96 -238,130 -257,201 -39,138 37,257 186,292 46,11 217,13 302,5 z m 5374,-9 c 81,-21 127,-47 184,-102 97,-94 145,-245 124,-385 -28,-180 -140,-310 -306,-353 -62,-16 -226,-20 -345,-9 l -65,6 v 424 423 l 55,4 c 152,9 299,6 353,-8 z m 2459,-6 c 56,-14 129,-69 152,-113 49,-97 21,-223 -65,-285 -62,-45 -126,-61 -250,-61 h -107 l -1,-162 c -2,-205 -10,-220 -116,-229 -32,-3 -39,-1 -36,11 9,33 12,700 4,772 l -9,77 135,4 c 155,4 240,0 293,-14 z m 878,-2 c 0,-7 -9,-23 -20,-35 -20,-21 -28,-22 -205,-22 h -185 v -160 -160 h 150 150 v -35 -35 h -150 -150 v -160 -160 h 182 c 173,0 183,-1 205,-22 50,-47 43,-48 -259,-48 h -283 v 425 425 h 283 c 226,0 282,-3 282,-13 z m 720,1 c 0,-6 -10,-22 -22,-35 -21,-22 -26,-23 -205,-23 h -183 v -160 -160 h 150 150 v -35 -35 h -150 -150 v -160 -160 h 182 c 173,0 183,-1 205,-22 50,-47 43,-48 -259,-48 h -283 v 425 425 h 283 c 211,0 282,-3 282,-12 z m 880,-2 c 0,-8 -8,-24 -18,-36 -18,-22 -24,-23 -165,-21 l -147,2 v -391 -390 h -80 -80 v 391 391 l -146,-3 c -143,-4 -147,-3 -165,20 -42,52 -52,51 391,51 343,0 410,-2 410,-14 z M 7536,3860 c 59,-25 97,-60 131,-119 23,-38 57,-150 49,-158 -5,-5 -155,-33 -175,-33 -12,0 -21,14 -29,46 -17,64 -59,104 -109,104 -47,0 -81,-22 -99,-66 -37,-89 3,-201 107,-299 192,-181 225,-218 267,-305 47,-100 57,-157 42,-241 -21,-115 -82,-202 -170,-243 -37,-17 -64,-21 -150,-21 -90,0 -111,4 -148,23 -59,31 -115,91 -146,157 -26,56 -54,180 -43,191 3,4 46,9 96,12 l 90,5 11,-44 c 29,-116 66,-159 135,-159 96,0 147,96 113,214 -9,33 -41,71 -168,196 -212,211 -247,266 -257,408 -14,174 75,314 222,353 53,14 178,3 231,-21 z m 3299,16 c 147,-39 231,-151 242,-325 3,-48 3,-100 -1,-115 l -7,-27 -102,3 -102,3 -5,103 c -5,102 -6,104 -38,133 -50,45 -119,38 -164,-15 -16,-19 -17,-55 -17,-431 -1,-374 1,-412 17,-431 42,-53 114,-59 164,-15 l 33,29 5,119 5,118 h 105 105 l -2,-133 c -1,-122 -4,-138 -28,-187 -59,-122 -181,-192 -315,-183 -118,9 -216,77 -269,188 l -26,55 v 430 c 0,486 1,494 76,579 87,99 202,135 324,102 z m 4391,-1 c 79,-23 139,-67 173,-127 29,-50 60,-153 49,-163 -2,-3 -46,-13 -96,-24 l -91,-18 -16,54 c -21,73 -52,103 -105,103 -23,0 -50,-5 -61,-10 -51,-28 -67,-142 -30,-225 29,-65 71,-115 157,-186 94,-78 174,-176 216,-265 30,-63 33,-77 33,-164 0,-81 -4,-103 -26,-150 -35,-74 -67,-110 -131,-145 -49,-28 -60,-30 -158,-30 -94,1 -110,3 -156,27 -59,31 -112,86 -142,150 -22,45 -57,186 -48,195 2,2 47,7 100,10 93,6 96,5 96,-15 0,-41 41,-131 71,-157 32,-26 78,-33 122,-16 64,25 90,146 49,228 -12,22 -93,112 -180,199 -170,169 -199,211 -228,326 -47,181 55,369 221,409 51,12 129,10 181,-6 z M 5544,3418 c 49,-249 91,-459 94,-467 3,-8 45,195 93,450 48,255 88,465 88,467 1,1 64,2 141,2 h 140 v -665 -665 h -100 -100 l -1,398 c 0,231 -4,389 -9,377 -7,-16 -128,-589 -156,-742 l -6,-33 h -84 c -70,0 -83,3 -88,18 -9,30 -103,430 -143,607 l -38,170 -3,-397 -2,-398 h -105 -105 v 665 665 h 148 148 z m 1005,245 c 35,-115 68,-219 74,-233 8,-22 13,-11 46,90 20,63 52,168 71,232 l 35,118 h 113 c 61,0 112,-2 112,-5 0,-6 -216,-626 -245,-705 -24,-64 -25,-73 -25,-343 v -277 h -100 -100 v 275 276 l -89,257 c -49,141 -107,309 -129,372 -22,63 -43,123 -47,133 -7,16 2,17 107,17 h 114 z m 1543,-334 3,-541 33,-29 c 61,-55 153,-31 182,46 6,16 10,227 10,546 v 519 h 105 106 l -3,-558 -3,-558 -30,-60 c -40,-78 -129,-147 -212,-164 -151,-32 -292,34 -365,172 l -23,43 -3,563 -3,562 h 100 100 z m 1105,509 c 60,-32 96,-76 124,-148 16,-42 19,-77 19,-219 0,-194 -11,-246 -68,-312 l -35,-40 72,-284 c 39,-156 71,-286 71,-289 0,-3 -49,-6 -109,-6 h -109 l -27,115 c -14,63 -41,174 -59,247 l -34,133 h -63 -64 l -3,-247 -2,-248 h -100 -100 v 666 665 l 218,-3 c 214,-3 218,-3 269,-30 z m 523,-492 c 0,-317 4,-535 10,-550 21,-57 114,-84 167,-49 52,35 53,40 53,603 v 520 h 105 106 l -3,-562 -3,-563 -30,-54 c -34,-62 -91,-115 -155,-144 -64,-30 -196,-30 -260,0 -68,31 -125,87 -157,151 l -28,57 -3,558 -3,557 h 101 100 z m 1993,409 c 9,-60 59,-359 110,-662 l 93,-553 h -107 -107 l -11,63 c -5,34 -16,101 -23,150 l -12,87 h -102 c -119,0 -105,15 -129,-140 -8,-58 -18,-117 -21,-132 l -6,-28 h -104 c -77,0 -104,3 -104,13 0,6 14,91 30,187 60,345 190,1117 190,1124 0,4 64,5 142,4 l 143,-3 z m 670,78 c 10,-64 167,-867 173,-883 4,-8 44,185 90,430 46,245 86,455 89,468 5,21 9,22 145,22 h 140 v -665 -665 h -105 -105 l 3,390 c 1,214 -1,386 -4,382 -3,-4 -30,-122 -59,-262 -29,-140 -65,-311 -79,-380 l -26,-125 h -84 -84 l -48,205 c -26,113 -68,291 -93,395 l -45,190 v -397 l -1,-398 h -105 -105 v 665 665 h 149 148 z m 1263,16 c 74,-28 136,-90 164,-166 19,-52 21,-74 18,-237 -3,-206 -13,-238 -91,-317 -66,-66 -129,-89 -242,-89 h -95 v -250 -250 h -100 -100 v 665 665 h 195 c 174,0 200,-2 251,-21 z m 546,-520 3,-541 33,-29 c 58,-52 149,-33 178,38 11,26 14,136 14,553 v 520 h 105 106 l -3,-557 -3,-558 -30,-59 c -35,-68 -114,-139 -178,-158 -66,-20 -184,-15 -237,9 -67,31 -122,84 -155,149 l -30,59 -3,558 -3,557 h 100 100 z"
       id="path4"
       style="fill:#b70f4d;fill-opacity:1" />
    <path
       d="m 10005,17619 c -978,-101 -1854,-710 -2300,-1597 -397,-789 -415,-1719 -50,-2524 376,-829 1132,-1447 2007,-1642 448,-100 901,-96 1338,10 388,96 787,291 1107,544 135,107 366,335 465,460 442,558 669,1236 645,1925 -16,453 -116,846 -317,1241 -450,886 -1324,1486 -2309,1584 -119,12 -469,11 -586,-1 z m 693,-229 c 469,-69 886,-243 1255,-525 62,-47 128,-99 147,-115 l 34,-30 -21,-22 -22,-21 -31,27 c -17,14 -35,26 -39,26 -5,0 -43,-45 -86,-100 -43,-56 -82,-97 -86,-93 -23,23 -20,61 7,92 21,25 25,37 18,49 -19,29 -42,38 -65,24 -29,-18 -41,-4 -37,43 5,63 27,66 93,15 l 57,-44 24,29 24,30 -27,23 c -47,39 -154,115 -157,111 -1,-2 -34,-52 -72,-111 -38,-60 -72,-108 -76,-108 -3,0 -11,14 -17,30 -9,29 -6,38 49,124 33,51 60,95 60,98 0,3 -18,17 -39,31 -46,31 -39,37 -112,-100 -29,-57 -56,-103 -60,-103 -4,0 -12,13 -19,29 -9,24 -9,34 4,60 l 16,30 -41,22 c -38,19 -43,19 -51,5 -21,-38 -56,1 -61,69 -2,25 2,30 18,28 15,-1 28,10 45,42 13,24 22,46 20,48 -3,3 -27,14 -53,25 -44,20 -48,20 -54,4 -4,-9 -25,-66 -48,-126 l -42,-109 -21,30 c -12,17 -19,38 -16,49 5,18 1,20 -28,16 -81,-9 -153,123 -98,178 25,25 86,27 119,4 12,-9 31,-30 41,-46 l 18,-30 12,37 c 7,20 10,38 8,39 -20,17 -388,126 -423,126 -7,0 -15,-18 -19,-42 -4,-24 -14,-83 -23,-131 l -16,-88 -24,23 c -23,21 -24,27 -18,90 l 7,67 -36,7 c -66,12 -98,-51 -61,-116 28,-49 11,-71 -19,-25 -27,40 -45,126 -34,158 14,39 39,49 108,41 56,-6 60,-5 60,13 0,18 -11,22 -97,32 -54,7 -108,14 -120,17 -22,4 -23,2 -24,-68 -1,-40 -4,-102 -8,-136 l -6,-64 -27,22 c -21,16 -28,30 -28,55 0,32 -1,33 -45,37 -37,3 -45,0 -45,-14 0,-35 -24,-31 -64,12 l -40,43 22,15 c 18,12 22,24 22,64 v 49 l -52,-3 -53,-3 v -45 c 0,-25 4,-84 9,-132 l 8,-88 -30,11 c -30,10 -42,32 -42,77 0,17 -6,22 -24,22 -13,0 -31,2 -38,5 -11,4 -13,-3 -10,-29 3,-27 -1,-40 -22,-60 -47,-47 -124,-27 -181,48 -38,50 -22,66 22,23 19,-20 46,-38 60,-42 45,-11 94,40 72,76 -6,10 -13,10 -34,1 -36,-16 -40,-15 -53,12 -12,26 -1,36 39,36 22,0 45,41 36,64 -9,22 -59,20 -89,-4 -25,-19 -25,-19 -44,1 -18,21 -18,21 5,40 54,44 163,6 169,-59 2,-19 -2,-40 -9,-48 -10,-12 -5,-14 28,-14 49,0 63,14 63,62 0,33 -3,38 -23,38 -15,0 -29,11 -40,29 l -18,30 53,4 c 111,10 435,-4 566,-23 z m -1350,-17 c 19,-9 53,-34 75,-55 l 40,-38 79,24 79,25 27,-24 c 31,-27 33,-25 -68,-53 -66,-19 -83,-38 -61,-71 7,-11 13,-11 32,3 33,23 63,20 98,-10 34,-29 57,-89 47,-127 -5,-22 -10,-24 -33,-18 -24,7 -28,12 -25,42 6,74 -23,103 -62,60 -22,-24 -22,-46 -2,-100 21,-57 21,-58 -15,-53 -20,3 -34,13 -41,28 l -11,24 -28,-26 c -23,-22 -33,-25 -63,-20 -50,9 -96,51 -96,86 0,43 35,80 76,80 20,0 44,-5 55,-10 22,-12 22,-13 8,29 -14,40 -24,39 -151,-14 l -87,-37 59,-119 60,-119 h -35 c -31,0 -37,5 -56,43 -12,23 -23,43 -24,45 -2,2 -17,-4 -34,-13 -25,-13 -31,-21 -29,-43 4,-35 -28,-41 -65,-12 -43,34 -35,52 38,88 l 65,32 -16,33 c -9,17 -18,33 -19,35 -4,4 -52,-20 -137,-69 l -67,-39 69,-107 c 39,-59 70,-111 70,-115 0,-4 -15,-8 -33,-8 -30,0 -37,7 -96,100 l -64,100 -28,-21 c -16,-11 -29,-23 -29,-26 0,-3 18,-32 40,-65 22,-33 40,-69 40,-80 0,-19 -5,-20 -51,-16 -61,6 -79,20 -61,48 10,17 9,26 -3,50 -10,19 -20,28 -28,24 -27,-17 -77,-57 -77,-63 0,-3 34,-49 75,-101 41,-52 75,-98 75,-102 0,-5 -15,-8 -34,-8 -28,0 -39,8 -77,56 -24,32 -56,71 -70,88 l -27,30 -35,-29 c -20,-17 -36,-35 -36,-40 -1,-6 37,-48 84,-95 47,-47 85,-88 85,-91 0,-4 -14,-10 -31,-14 -22,-5 -36,-2 -49,10 -19,17 -20,17 -26,-1 -16,-44 -46,-64 -95,-64 -26,0 -59,4 -73,10 -21,8 -29,5 -50,-21 -26,-31 -32,-54 -18,-76 10,-16 75,-43 102,-43 12,0 20,-7 20,-16 0,-15 -8,-16 -60,-11 -92,10 -140,40 -140,89 0,38 67,120 92,113 11,-4 21,2 28,15 13,25 10,65 -6,65 -7,0 -51,-44 -100,-98 -78,-87 -91,-97 -114,-92 -14,4 -27,8 -29,11 -8,8 78,104 218,244 134,134 334,297 433,354 21,11 38,23 38,27 0,3 -22,14 -48,26 -42,17 -54,18 -83,9 -27,-10 -39,-9 -57,2 -17,11 -20,18 -11,28 26,32 144,7 200,-42 13,-12 29,-6 115,41 54,30 107,58 117,61 9,3 17,9 17,14 0,18 -82,16 -130,-4 -22,-9 -55,17 -47,38 8,21 62,21 137,1 30,-8 57,-15 59,-15 2,0 -16,14 -39,31 -38,27 -48,30 -71,22 -21,-8 -31,-6 -49,7 l -23,18 21,11 c 41,22 72,13 131,-38 l 57,-50 124,50 c 69,28 126,51 127,53 2,1 -18,17 -44,35 -37,26 -52,31 -78,27 -24,-5 -36,-1 -50,14 -16,18 -17,23 -5,30 22,14 48,12 88,-7 z m 1687,-155 c 45,-12 55,-27 37,-56 -7,-10 -15,-10 -36,-2 -37,14 -52,13 -70,-6 -18,-18 -21,-70 -6,-110 7,-18 7,-31 1,-37 -14,-14 -61,88 -61,134 0,45 32,89 66,89 13,0 44,-5 69,-12 z m -694,-253 c 19,-11 32,-26 36,-46 3,-16 14,-34 23,-39 25,-13 57,-71 76,-138 14,-47 16,-83 11,-199 -9,-209 -7,-213 165,-388 190,-192 225,-265 216,-460 l -5,-104 121,-61 c 451,-225 754,-639 833,-1134 12,-77 14,-141 10,-280 -4,-100 -9,-196 -13,-213 l -6,-33 h 516 c 284,0 516,-4 516,-8 0,-4 -9,-36 -21,-71 l -21,-62 -837,3 c -785,3 -838,4 -876,21 l -40,19 50,19 c 28,10 55,19 60,19 6,0 39,14 73,30 l 64,30 h 218 c 173,0 219,3 223,13 17,44 29,225 24,351 -22,526 -327,993 -802,1231 -61,30 -114,55 -118,55 -4,0 -16,-19 -28,-42 -19,-37 -75,-113 -116,-156 -7,-7 -10,-25 -7,-41 8,-36 -16,-82 -61,-118 -20,-16 -35,-37 -35,-49 0,-33 -39,-74 -92,-99 -34,-16 -55,-33 -66,-56 -20,-39 -72,-69 -121,-69 -53,0 -116,35 -135,75 -12,24 -25,35 -47,40 -38,9 -105,67 -113,98 -3,13 -17,30 -32,37 -14,8 -37,28 -51,44 -22,27 -25,37 -20,83 3,31 2,53 -4,53 -23,0 -126,111 -165,178 -4,7 -176,-85 -254,-137 -120,-79 -299,-260 -383,-387 -151,-227 -229,-467 -243,-743 -6,-103 6,-271 22,-338 l 6,-23 h 219 c 194,0 224,-2 257,-18 20,-11 74,-32 120,-47 45,-16 82,-31 82,-35 0,-4 -17,-13 -37,-20 -31,-11 -202,-15 -876,-17 l -837,-4 -20,46 c -11,26 -23,58 -26,71 l -6,24 h 524 524 l -14,88 c -19,122 -10,397 17,514 56,245 138,428 270,603 147,194 329,346 538,450 l 91,45 -9,47 c -24,126 37,312 152,468 20,28 62,82 93,120 80,98 145,199 174,269 23,53 27,81 32,221 8,182 22,234 74,266 38,23 67,24 107,4 z m 1842,-317 c 10,-12 21,-35 24,-50 5,-28 6,-28 25,-11 19,17 21,16 72,-37 47,-48 53,-59 48,-88 -5,-35 -13,-40 -32,-17 -7,8 -16,15 -19,15 -4,0 -47,-38 -97,-85 -49,-47 -92,-85 -96,-85 -5,0 -8,-11 -8,-25 0,-29 -40,-75 -65,-75 -66,0 -145,110 -145,202 0,36 18,36 26,1 16,-64 64,-131 104,-145 8,-3 25,-2 37,3 28,10 21,35 -13,43 -17,5 -24,13 -24,31 0,31 18,32 54,4 21,-16 25,-17 20,-4 -5,12 17,40 76,100 l 82,83 -18,27 c -17,26 -19,26 -29,10 -38,-66 -92,-90 -172,-79 l -43,6 v -41 c 0,-31 -4,-41 -16,-41 -14,0 -15,7 -9,46 4,29 2,57 -6,76 -10,25 -9,32 5,46 13,13 20,14 34,6 9,-7 16,-19 14,-28 -2,-12 5,-16 32,-16 34,0 35,0 25,32 -28,98 54,166 114,96 z m -543,-88 c 18,-11 30,12 -237,-490 -320,-603 -291,-552 -316,-539 -12,7 -23,13 -24,14 -3,1 255,488 439,830 32,61 69,129 80,153 23,43 32,49 58,32 z m -2667,-113 c 19,-34 148,-255 286,-491 138,-236 251,-432 251,-435 0,-7 -41,-34 -44,-29 -2,2 -28,46 -58,98 -30,52 -103,176 -160,275 -270,461 -358,615 -358,624 0,12 32,31 41,25 4,-2 23,-32 42,-67 z m 2208,-216 c 4,-4 -144,-396 -233,-615 -6,-13 -48,3 -48,19 0,7 24,73 53,147 29,73 82,208 117,300 58,151 67,167 85,162 11,-4 23,-9 26,-13 z m -1656,-316 c 69,-153 128,-287 131,-298 6,-19 -9,-37 -32,-37 -6,0 -71,136 -144,301 -128,288 -133,302 -115,315 10,8 23,10 27,6 5,-5 64,-134 133,-287 z m 2667,238 c 15,-17 -9,-45 -319,-383 -184,-201 -361,-394 -393,-430 -50,-56 -60,-62 -74,-51 -22,19 -20,31 12,66 15,17 74,82 132,145 58,63 113,124 123,135 330,360 492,535 498,535 3,0 13,-8 21,-17 z m -3750,-22 c 2,-5 77,-87 168,-182 214,-224 556,-586 589,-622 25,-27 25,-27 5,-47 -19,-20 -20,-19 -138,108 -105,112 -191,202 -589,620 -85,90 -88,94 -71,113 19,21 30,24 36,10 z m 3212,-166 c 19,-14 3,-37 -349,-527 -23,-31 -37,-35 -55,-13 -10,12 4,37 82,144 51,72 138,194 193,271 55,77 102,140 105,140 3,0 13,-7 24,-15 z m -2534,-200 c 73,-99 159,-216 192,-260 l 58,-79 -20,-21 c -13,-13 -23,-16 -28,-9 -20,29 -149,205 -263,358 l -128,171 21,18 c 12,10 24,14 28,10 4,-4 67,-89 140,-188 z m -925,-262 c 94,-60 307,-196 475,-302 168,-107 306,-195 308,-197 2,-1 -2,-12 -8,-24 -7,-14 -17,-19 -27,-16 -20,8 -946,597 -961,611 -8,8 21,46 32,42 6,-3 88,-54 181,-114 z m 4449,93 c 8,-13 7,-19 -4,-26 -8,-6 -229,-146 -490,-314 -414,-264 -477,-301 -487,-288 -7,9 -13,21 -13,26 0,6 51,43 113,82 151,96 594,379 737,470 63,40 119,72 124,71 5,-2 14,-11 20,-21 z m -584,-50 c -22,-20 -397,-335 -453,-380 -39,-32 -49,-36 -62,-26 -9,7 -15,19 -13,26 2,6 116,106 253,222 247,207 250,210 270,191 17,-17 18,-21 5,-33 z m -3397,-8 c 182,-151 427,-360 431,-367 3,-5 -3,-16 -13,-25 -17,-15 -31,-5 -269,194 -224,188 -251,213 -242,231 6,10 15,19 21,19 5,0 38,-23 72,-52 z m -188,-527 c 374,-174 405,-190 405,-198 0,-5 -6,-17 -12,-26 -12,-14 -21,-12 -98,25 -47,22 -141,66 -210,98 -240,111 -300,140 -300,146 0,7 20,44 23,44 2,0 88,-40 192,-89 z m 3886,68 c 6,-12 7,-24 2,-29 -4,-4 -140,-69 -302,-144 -293,-136 -310,-141 -311,-99 0,6 6,15 13,20 18,11 571,271 579,272 4,1 12,-8 19,-20 z m 578,-154 c -2,-1 -249,-80 -549,-175 -300,-95 -548,-174 -552,-177 -8,-4 -23,45 -15,53 4,4 653,211 997,318 l 105,33 9,-24 c 4,-13 6,-26 5,-28 z m -4987,-26 c 122,-39 351,-111 508,-160 157,-50 299,-94 316,-100 26,-8 30,-14 26,-34 -5,-29 -13,-30 -73,-11 -24,8 -123,40 -219,70 -96,30 -312,98 -480,152 -168,53 -313,99 -323,102 -11,3 -16,10 -13,19 3,8 6,19 6,24 0,16 25,10 252,-62 z m 2397,-105 c 13,-9 41,-55 63,-103 48,-105 93,-165 218,-296 116,-121 135,-157 134,-245 -2,-117 -54,-189 -179,-246 -79,-36 -211,-58 -316,-51 -260,16 -411,125 -412,297 -1,87 21,126 137,249 96,101 188,230 224,313 24,55 63,98 89,98 10,0 29,-7 42,-16 z m -395,-89 c 52,-30 100,-84 115,-128 10,-27 6,-33 -97,-141 -132,-139 -157,-185 -156,-281 1,-118 62,-217 169,-274 l 40,-22 -80,5 c -160,10 -312,65 -385,140 -54,54 -74,99 -78,182 -5,88 11,129 97,247 76,104 94,147 95,222 1,59 1,60 36,73 22,7 66,11 116,8 66,-3 90,-9 128,-31 z m 976,16 c 23,-11 25,-16 22,-70 -4,-69 16,-115 97,-226 79,-108 96,-148 95,-227 -3,-167 -117,-270 -351,-317 -55,-12 -120,-21 -144,-21 h -42 l 60,39 c 100,65 152,171 140,288 -8,75 -43,130 -159,249 -55,58 -98,110 -98,121 0,29 54,105 94,132 61,40 105,52 186,48 41,-3 86,-10 100,-16 z m -1439,-91 c 35,-11 77,-30 93,-43 28,-22 28,-24 13,-53 -8,-16 -38,-60 -65,-97 -76,-102 -95,-148 -95,-226 0,-94 25,-160 85,-226 63,-69 161,-119 283,-144 l 90,-19 -70,-1 c -158,-2 -370,48 -480,114 -127,76 -185,163 -186,277 -1,72 10,99 81,203 54,80 64,119 46,178 -10,34 -11,47 -2,51 30,12 149,4 207,-14 z m 1848,11 c 10,-7 11,-13 1,-31 -7,-13 -10,-45 -8,-75 4,-43 14,-66 56,-127 62,-92 87,-162 78,-221 -32,-208 -276,-349 -626,-363 l -115,-4 88,19 c 112,25 219,76 275,130 83,81 119,208 89,312 -16,53 -27,72 -123,208 -24,35 -43,69 -41,75 5,16 85,58 137,72 53,15 169,18 189,5 z m -2899,-156 c 173,-31 316,-58 318,-60 3,-2 2,-15 -2,-28 -4,-19 -11,-23 -28,-20 -456,81 -619,111 -623,115 -6,6 6,48 14,48 4,0 148,-25 321,-55 z m 4090,31 c 0,-29 25,-23 -330,-86 -157,-27 -295,-52 -307,-55 -20,-5 -23,-1 -23,24 0,26 4,31 33,36 17,3 154,27 302,54 326,59 325,59 325,27 z m -4395,-266 c 264,-11 508,-23 543,-26 57,-5 62,-7 62,-30 0,-30 14,-29 -430,-9 -179,8 -390,17 -470,20 -80,3 -169,8 -197,11 -48,5 -53,8 -53,30 0,30 -55,29 545,4 z m 4913,-7 c 4,-29 65,-25 -999,-69 -156,-7 -157,-7 -164,15 -4,13 -4,25 -1,28 7,8 954,51 1071,49 84,-1 90,-2 93,-23 z m -4298,-259 c 0,-13 -1,-24 -2,-24 -2,0 -133,-11 -292,-25 -370,-32 -366,-32 -366,0 0,17 6,25 18,26 9,0 154,13 322,28 168,15 308,26 313,24 4,-2 7,-15 7,-29 z m 3493,1 c 158,-14 290,-25 293,-25 3,0 4,-12 2,-27 -3,-24 -7,-28 -33,-26 -301,25 -630,55 -633,57 -1,2 0,14 3,28 5,20 11,23 43,21 20,-2 166,-15 325,-28 z m -1769,-196 c 55,-15 96,-58 96,-102 0,-55 -36,-98 -110,-128 -66,-28 -102,-54 -132,-99 -16,-23 -19,-23 -28,-8 -31,51 -66,79 -122,99 -104,38 -149,109 -114,178 20,37 57,58 128,70 61,11 225,5 282,-10 z m -624,-18 c 0,-11 -38,-44 -88,-76 -30,-20 -45,-38 -49,-58 l -6,-30 -76,6 c -42,3 -105,16 -141,28 l -65,23 55,11 c 87,18 122,33 173,73 48,36 51,37 123,34 41,-2 74,-7 74,-11 z m 838,0 c 7,-1 31,-18 55,-39 23,-21 61,-50 85,-65 58,-37 56,-62 -5,-89 -56,-25 -184,-35 -226,-19 l -28,11 21,39 c 23,47 25,105 5,141 -21,36 -20,38 33,29 26,-4 53,-8 60,-8 z m 282,-22 c 46,-37 114,-66 175,-75 l 50,-7 -35,-15 c -54,-22 -140,-41 -192,-42 -42,0 -47,2 -56,29 -6,18 -28,41 -54,57 -51,33 -88,64 -88,75 0,9 138,17 155,10 6,-3 26,-17 45,-32 z m -946,-4 c -19,-47 -18,-84 6,-130 19,-38 19,-41 3,-52 -39,-29 -229,-6 -268,33 -24,24 -18,40 23,65 20,13 56,41 79,62 45,41 77,55 135,56 l 37,1 z m -585,-151 c 70,-28 207,-56 256,-53 17,2 59,-7 95,-19 36,-11 76,-23 90,-25 14,-2 -421,-5 -966,-6 l -991,-1 -27,59 c -14,32 -26,61 -26,65 0,3 338,6 752,6 h 751 z m 3279,-39 -32,-65 -981,1 h -980 l 80,24 c 44,13 114,26 155,29 86,5 188,29 240,56 33,18 71,19 792,20 h 758 z m -1898,-184 c 0,-5 -11,-12 -25,-15 -32,-8 -60,-51 -57,-87 l 2,-29 H 9406 8072 l -40,64 c -22,36 -38,67 -34,70 9,10 2822,7 2822,-3 z m 1796,-6 c -3,-8 -21,-40 -41,-70 l -35,-55 h -278 c -274,0 -279,0 -329,24 -63,31 -194,69 -293,86 -41,7 -79,17 -85,22 -5,5 226,8 529,8 468,-1 537,-3 532,-15 z m -1194,-30 c 271,-31 498,-97 569,-165 21,-20 39,-45 39,-55 0,-24 -61,-80 -119,-109 -133,-68 -398,-133 -636,-157 -144,-14 -381,-7 -485,15 -173,37 -293,132 -258,204 21,41 58,61 138,73 74,11 108,10 272,-13 77,-10 89,-10 113,6 39,26 17,46 -51,46 -90,0 -155,19 -192,56 -28,28 -31,36 -22,53 10,20 79,45 145,54 77,10 372,6 487,-8 z m -926,-227 c -9,-13 -16,-43 -16,-70 v -48 l -267,4 c -209,2 -287,7 -353,21 -128,27 -479,27 -610,0 -86,-18 -136,-20 -545,-20 h -449 l -48,60 c -26,32 -48,63 -48,67 0,4 529,8 1176,8 h 1175 z m 1935,-19 c -16,-23 -41,-54 -55,-70 l -26,-28 -175,1 c -96,0 -175,3 -175,5 0,2 15,19 34,38 19,18 37,48 41,64 l 7,31 h 190 190 z m -2669,-110 c 210,-23 372,-81 411,-147 42,-72 -16,-141 -125,-149 -52,-4 -85,2 -186,31 -68,20 -128,36 -133,36 -25,0 -3,-29 45,-59 65,-39 88,-63 81,-83 -30,-77 -500,-75 -728,4 -142,49 -214,129 -182,204 16,37 38,56 101,88 142,71 452,103 716,75 z m -858,-130 c -9,-18 -16,-47 -17,-65 l -1,-34 h -201 -201 l -64,65 -64,65 h 282 283 z m 1754,5 c 120,-48 190,-58 412,-58 222,0 363,15 548,59 97,23 122,25 370,25 h 266 l -64,-65 -64,-65 h -943 -943 v 33 c 0,17 -7,45 -15,61 -8,15 -15,30 -15,32 0,2 86,4 192,4 182,0 194,-1 256,-26 z m 1047,-217 290,-2 -90,-67 -90,-68 -1040,1 c -669,1 -1028,4 -1005,10 96,26 150,72 136,117 -5,16 43,17 752,14 416,-1 887,-3 1047,-5 z m -2698,-27 c 56,-34 184,-73 304,-92 81,-13 74,-13 -214,-16 l -298,-2 -84,62 c -47,35 -85,66 -85,71 0,4 74,7 164,7 h 165 z m 2607,-229 c -5,-5 -59,-35 -121,-65 l -112,-56 H 10305 9230 l -108,55 c -59,30 -114,59 -122,64 -10,7 397,11 1304,11 805,0 1316,-4 1310,-9 z m -579,-240 c -18,-17 -278,-70 -425,-87 -178,-20 -539,-15 -695,11 -135,21 -328,65 -339,76 -6,5 283,9 729,9 441,0 735,-4 730,-9 z"
       id="path6"
       style="fill:#b70f4d;fill-opacity:1" />
    <path
       d="m 10259,16878 c -8,-14 -15,-87 -19,-188 -6,-135 -11,-175 -29,-221 -34,-88 -108,-204 -213,-335 -171,-212 -212,-298 -212,-439 -1,-161 62,-262 204,-332 124,-60 193,-74 423,-83 16,0 6,-30 -14,-41 -37,-19 -262,-6 -334,19 -73,27 -77,27 -73,1 7,-51 98,-84 262,-94 173,-12 296,16 355,79 36,38 17,53 -49,40 -27,-6 -55,-7 -61,-3 -22,13 0,38 43,49 64,17 88,36 88,69 0,31 -38,76 -73,87 -11,3 -56,11 -100,18 -44,6 -82,16 -84,22 -2,6 20,20 49,30 64,23 114,82 123,148 9,55 -8,92 -55,124 -30,20 -45,23 -105,20 -64,-3 -70,-1 -70,16 0,15 12,23 50,32 31,8 59,23 74,40 21,25 23,35 19,108 -4,70 -11,97 -53,191 -105,241 -99,214 -100,450 0,188 -2,210 -17,213 -9,2 -22,-7 -29,-20 z"
       id="path8"
       style="fill:#b70f4d;fill-opacity:1" />
    <path
       d="m 10450,15128 c -30,-5 -121,-8 -202,-6 -140,3 -146,2 -131,-15 48,-52 272,-64 366,-18 26,12 47,29 47,37 0,16 -2,16 -80,2 z"
       id="path10"
       style="fill:#b70f4d;fill-opacity:1" />
    <path
       d="m 7203,12490 c -87,-35 103,-270 318,-394 l 47,-27 -15,77 c -35,184 -126,304 -259,339 -66,17 -61,17 -91,5 z"
       id="path12"
       style="fill:#b70f4d;fill-opacity:1" />
    <path
       d="m 13343,12490 c -128,-26 -214,-126 -264,-305 -33,-120 -29,-124 66,-63 174,114 330,301 297,355 -11,17 -51,22 -99,13 z"
       id="path14"
       style="fill:#b70f4d;fill-opacity:1" />
    <path
       d="m 7073,11357 c -40,-78 -79,-164 -89,-192 -17,-48 -30,-223 -22,-290 3,-28 4,-27 45,35 86,132 187,209 254,195 21,-5 41,-21 62,-51 l 31,-45 13,73 c 7,40 25,116 41,169 l 29,96 -96,46 c -53,25 -119,60 -146,76 l -51,30 z"
       id="path16"
       style="fill:#b70f4d;fill-opacity:1" />
    <path
       d="m 13425,11468 c -27,-17 -92,-51 -142,-75 -51,-25 -93,-46 -93,-49 0,-3 13,-50 30,-105 16,-55 32,-123 36,-152 6,-48 23,-98 24,-70 0,23 61,82 90,88 65,14 165,-66 247,-198 20,-31 38,-55 40,-53 11,11 1,248 -12,292 -15,51 -156,353 -165,353 -3,0 -27,-14 -55,-31 z"
       id="path18"
       style="fill:#b70f4d;fill-opacity:1" />
    <path
       d="m 12470,11239 c -176,-83 -495,-209 -529,-209 -10,0 -23,11 -29,25 -17,36 -89,85 -127,85 -69,0 -102,-94 -51,-145 14,-14 22,-26 18,-29 -52,-30 -602,-151 -774,-171 l -57,-6 -38,42 c -89,100 -178,125 -235,69 -25,-26 -29,-36 -26,-68 3,-20 8,-45 12,-54 7,-16 2,-18 -38,-18 -25,0 -46,-4 -46,-8 0,-16 25,-32 51,-32 23,0 27,-5 33,-37 3,-21 6,-58 6,-83 0,-25 3,-68 6,-96 5,-43 11,-54 31,-63 l 25,-12 -7,138 c -4,76 -8,142 -9,148 0,5 28,12 64,16 36,3 95,9 131,14 64,7 66,6 72,-16 4,-13 7,-38 7,-56 v -32 l -35,20 c -69,41 -155,13 -155,-51 0,-33 15,-52 60,-79 44,-26 66,-26 108,-1 42,26 42,26 42,-10 0,-23 7,-33 30,-45 17,-9 30,-14 30,-13 0,2 -7,57 -15,123 -23,186 -30,168 76,189 50,9 94,15 96,12 13,-13 -9,-34 -42,-39 -20,-3 -43,-11 -51,-18 -24,-20 -17,-57 16,-81 19,-14 28,-28 25,-38 -3,-10 6,-26 21,-41 36,-34 131,-35 166,-1 30,27 38,28 38,3 0,-12 11,-23 30,-30 17,-5 30,-9 30,-8 0,2 -11,61 -25,132 -31,162 -31,162 3,168 70,14 63,23 96,-115 28,-119 32,-128 58,-137 16,-6 28,-6 28,-1 0,5 -13,64 -30,132 -37,151 -37,158 -5,160 14,0 30,1 37,2 7,1 20,-26 30,-58 22,-73 39,-93 90,-107 31,-8 45,-7 70,6 34,16 48,9 48,-27 0,-12 44,-38 65,-38 2,0 -16,65 -40,144 l -43,144 46,18 c 25,9 48,13 50,8 2,-5 22,-63 45,-129 39,-111 44,-120 70,-123 15,-2 27,-2 27,0 0,2 -20,64 -45,137 -43,130 -46,151 -22,151 7,0 46,13 87,29 69,27 76,28 93,14 31,-29 19,-60 -40,-102 -62,-42 -56,-97 15,-142 73,-46 141,-36 183,27 40,61 14,118 -60,130 -37,6 -40,9 -35,33 4,19 -1,34 -20,54 l -26,28 23,8 c 12,5 46,18 75,30 29,12 55,21 57,21 6,0 45,-77 45,-89 0,-5 -9,-13 -20,-16 -30,-9 -24,-33 13,-55 58,-37 104,-20 83,31 -5,11 6,20 41,36 l 48,21 25,-51 c 20,-41 31,-53 53,-55 15,-2 27,-1 27,2 0,3 -11,29 -24,58 -13,29 -40,88 -60,131 l -35,78 25,11 c 24,11 25,13 8,25 -23,16 -18,17 -94,-18 z m -190,-319 c 16,-30 -13,-84 -56,-105 -29,-14 -38,-14 -62,-3 -42,20 -40,52 5,93 45,41 95,48 113,15 z m -493,-95 c 4,-33 0,-45 -21,-67 -42,-46 -59,-38 -84,40 -12,38 -22,75 -22,83 0,10 19,21 48,31 l 47,15 14,-31 c 7,-17 16,-49 18,-71 z m -982,45 c 48,-23 90,-64 81,-78 -3,-6 -51,-14 -106,-17 -55,-4 -103,-8 -107,-9 -11,-1 -16,41 -9,70 7,25 48,53 80,54 11,0 38,-9 61,-20 z m 533,-131 c 9,-52 9,-76 1,-92 -20,-38 -51,-66 -86,-78 -29,-9 -38,-9 -51,4 -19,20 -4,42 35,51 24,7 25,8 8,26 -16,18 -20,18 -54,4 -33,-14 -37,-13 -48,2 -7,10 -13,21 -13,26 0,7 41,20 104,33 26,6 28,8 21,42 -7,40 3,53 45,53 24,0 27,-5 38,-71 z"
       id="path20"
       style="fill:#b70f4d;fill-opacity:1" />
    <path
       d="m 8201,11181 c -8,-5 -11,-17 -7,-29 6,-16 15,-20 52,-20 42,0 74,-14 74,-33 0,-20 -35,-39 -71,-39 -35,0 -39,-3 -39,-25 0,-18 6,-25 20,-26 35,-2 39,-4 51,-16 16,-16 -14,-63 -39,-63 -43,0 -89,59 -94,120 -4,54 -18,44 -18,-12 1,-131 93,-212 158,-139 20,24 29,28 44,20 10,-5 24,-7 30,-3 12,8 12,7 -16,-58 -15,-34 -14,-38 3,-60 l 19,-23 10,25 c 21,51 102,244 105,247 2,1 25,-6 53,-16 43,-17 49,-22 46,-46 -2,-14 -7,-37 -12,-50 -8,-21 -14,-24 -40,-19 -26,6 -30,4 -30,-15 0,-28 23,-83 41,-98 17,-14 31,-7 47,24 12,21 13,21 54,5 24,-9 45,-17 46,-18 9,-6 -30,-112 -42,-117 -8,-3 -22,-17 -31,-31 -13,-20 -14,-31 -5,-65 13,-50 42,-71 98,-71 36,0 43,3 38,16 -3,9 -6,19 -6,23 0,5 -22,6 -49,3 -42,-4 -51,-1 -60,17 -23,43 22,81 73,62 29,-12 30,-12 16,23 -7,20 -1,49 32,143 23,65 42,119 43,121 2,2 58,-12 126,-30 123,-34 124,-34 122,-62 -1,-16 -4,-30 -6,-32 -2,-2 -36,5 -76,16 -76,22 -86,20 -118,-19 -24,-28 -7,-118 33,-179 22,-33 35,-17 17,20 -19,37 -21,114 -5,130 9,9 25,9 68,0 32,-6 59,-14 62,-17 3,-3 -4,-39 -15,-80 l -20,-75 22,-20 23,-21 21,83 c 53,202 54,203 85,200 25,-3 27,-2 17,17 -6,11 -19,22 -28,25 -10,3 -70,19 -133,36 -144,38 -397,121 -513,167 -48,20 -91,33 -94,30 -10,-11 7,-39 27,-44 25,-7 25,-13 -1,-73 -23,-54 -50,-68 -86,-44 -28,18 -29,35 -3,59 11,10 20,29 20,42 0,30 -22,84 -41,100 -20,16 -81,25 -98,14 z"
       id="path22"
       style="fill:#b70f4d;fill-opacity:1" />
    <path
       d="m 9448,10951 c -28,-25 -32,-35 -30,-74 l 1,-44 -42,8 c -50,9 -52,7 -37,-20 6,-13 21,-21 35,-21 30,0 30,6 3,-146 l -22,-124 22,-21 c 27,-25 26,-29 52,131 11,69 22,130 25,136 2,8 17,9 47,4 24,-5 83,-14 132,-21 l 88,-11 -7,-52 c -3,-28 -8,-52 -9,-54 -2,-1 -17,10 -34,26 -87,81 -199,22 -148,-77 24,-46 61,-64 118,-58 l 48,6 v -32 c 0,-22 7,-36 21,-45 12,-7 22,-12 24,-10 2,2 11,66 20,143 10,77 19,142 21,143 1,2 21,1 43,-3 36,-6 40,-9 35,-29 -7,-29 29,-74 74,-93 l 35,-14 -21,-22 c -21,-21 -23,-21 -51,-4 -27,16 -31,16 -45,1 -9,-8 -13,-21 -10,-27 17,-29 39,-47 58,-47 15,0 29,-15 49,-51 23,-42 30,-49 42,-39 13,11 10,18 -15,50 -17,21 -30,40 -30,43 0,2 18,23 40,45 33,33 40,46 40,79 0,26 -8,50 -21,67 l -20,26 h 78 c 43,0 108,-3 146,-7 l 67,-6 v -54 -55 l -30,26 c -41,34 -89,42 -129,22 -57,-30 -49,-98 18,-143 39,-26 79,-29 107,-8 28,21 34,18 34,-19 0,-25 6,-38 25,-50 l 25,-16 v 97 c 0,54 3,122 6,151 6,46 9,52 31,52 20,0 22,3 14,18 -9,17 -29,20 -188,26 -186,7 -387,21 -451,32 -32,6 -40,13 -60,55 -13,27 -43,69 -67,94 -38,39 -50,45 -84,45 -31,0 -49,-7 -73,-29 z m 156,-52 c 34,-29 82,-96 75,-103 -4,-4 -169,19 -206,29 -33,8 -31,57 3,84 39,31 86,27 128,-10 z"
       id="path24"
       style="fill:#b70f4d;fill-opacity:1" />
    <path
       d="m 8395,9736 c -79,-36 -101,-102 -43,-132 52,-27 157,4 210,63 20,22 14,34 -32,62 -40,24 -91,26 -135,7 z"
       id="path26"
       style="fill:#b70f4d;fill-opacity:1" />
    <path
       d="m 13557,9883 c -4,-3 -7,-46 -7,-95 v -88 h 80 80 v 95 95 h -73 c -41,0 -77,-3 -80,-7 z"
       id="path28"
       style="fill:#b70f4d;fill-opacity:1" />
    <path
       d="m 16466,7815 c -20,-44 -94,-206 -165,-360 l -128,-280 325,-3 c 179,-1 327,-1 329,1 2,2 -62,148 -143,323 -80,175 -154,337 -164,359 l -18,40 z"
       id="path30"
       style="fill:#b70f4d;fill-opacity:1" />
    <path
       d="m 3713,7528 -161,-353 326,-3 c 179,-1 327,-1 329,1 2,2 -21,55 -50,118 -29,63 -102,221 -162,352 -60,130 -112,237 -115,237 -4,0 -79,-159 -167,-352 z"
       id="path32"
       style="fill:#b70f4d;fill-opacity:1" />
    <path
       d="m 7178,5322 c -26,-59 -50,-115 -54,-124 -6,-16 3,-18 105,-18 61,0 111,3 110,8 0,4 -26,60 -57,124 l -57,117 z"
       id="path34"
       style="fill:#b70f4d;fill-opacity:1" />
    <path
       d="m 11322,5312 c -29,-64 -52,-120 -52,-124 0,-5 50,-8 110,-8 61,0 110,2 110,4 0,2 -26,58 -57,124 l -58,121 z"
       id="path36"
       style="fill:#b70f4d;fill-opacity:1" />
    <path
       d="m 16060,5313 c -29,-65 -55,-121 -57,-125 -2,-5 48,-8 111,-8 h 115 l -47,103 c -26,56 -52,113 -58,125 -9,21 -15,12 -64,-95 z"
       id="path38"
       style="fill:#b70f4d;fill-opacity:1" />
    <path
       d="m 9658,5574 c -5,-4 -8,-169 -8,-367 v -359 l 113,4 c 117,4 145,12 199,60 36,31 74,110 88,186 14,68 9,213 -9,272 -21,69 -74,143 -125,175 -45,27 -58,30 -150,33 -56,2 -104,0 -108,-4 z"
       id="path40"
       style="fill:#b70f4d;fill-opacity:1" />
    <path
       d="m 12095,5568 c -2,-7 -3,-85 -2,-173 l 2,-160 h 97 c 83,0 101,3 125,21 96,72 96,235 1,297 -38,24 -51,27 -130,27 -62,0 -90,-4 -93,-12 z"
       id="path42"
       style="fill:#b70f4d;fill-opacity:1" />
    <path
       d="m 8910,3450 v -210 h 70 c 77,0 118,15 144,52 13,18 16,52 16,160 0,79 -5,147 -11,161 -16,36 -50,47 -139,47 h -80 z"
       id="path44"
       style="fill:#b70f4d;fill-opacity:1" />
    <path
       d="m 11547,3510 c -6,-23 -67,-446 -67,-463 0,-4 32,-7 70,-7 70,0 70,0 69,28 -2,69 -66,465 -72,442 z"
       id="path46"
       style="fill:#b70f4d;fill-opacity:1" />
    <path
       d="m 13400,3450 v -210 h 73 c 80,0 110,12 141,53 18,24 21,44 23,140 4,196 -17,227 -153,227 h -84 z"
       id="path48"
       style="fill:#b70f4d;fill-opacity:1" />
  </g>
</svg>
